SplineFontDB: 3.0
FontName: Asap-BoldItalic
FullName: Asap-BoldItalic
FamilyName: Asap
Weight: Bold
Copyright: Copyright (c) 2011-2013, Omnibus-Type (www.omnibus-type.com omnibus.type@gmail.com) with Reserved Font Name 'Asap'

StartChar: .notdef
Encoding: 65536 -1 0
Width: 515
Flags: MW
HStem: 0 50<65 405 65 480> 650 50<128 468 128 128>
VStem: -20 574
LayerCount: 2
UndoRedoHistory
Layer: 1
Undoes
EndUndoes
Redoes
EndRedoes
EndUndoRedoHistory
Fore
SplineSet
54 700 m 1,0,-1
 554 700 l 1,1,-1
 480 0 l 1,2,-1
 -20 0 l 1,3,-1
 54 700 l 1,0,-1
468 650 m 1,4,-1
 128 650 l 1,5,-1
 272 395 l 1,6,-1
 468 650 l 1,4,-1
405 50 m 1,7,-1
 261 305 l 1,8,-1
 65 50 l 1,9,-1
 405 50 l 1,7,-1
39 95 m 1,10,-1
 237 350 l 1,11,-1
 93 605 l 1,12,-1
 39 95 l 1,10,-1
439 95 m 1,13,-1
 493 605 l 1,14,-1
 297 350 l 1,15,-1
 439 95 l 1,13,-1
EndSplineSet
Validated: 1
EndChar

StartChar: A
Encoding: 65 65 1
Width: 613
Flags: MW
HStem: -2 21G 141 132<221 375 221 406 164 375> 682 20G<319 371 371 385.5>
VStem: -37 624<14 21>
LayerCount: 2
UndoRedoHistory
Layer: 1
Undoes
EndUndoes
Redoes
EndRedoes
EndUndoRedoHistory
Fore
SplineSet
371 702 m 2,0,1
 421 702 421 702 426 681 c 2,2,-1
 584 38 l 2,3,4
 587 29 587 29 587 21 c 0,5,6
 587 -2 587 -2 533 -2 c 2,7,-1
 489 -2 l 2,8,9
 440 -2 440 -2 435 19 c 2,10,-1
 406 141 l 1,11,-1
 164 141 l 1,12,-1
 109 19 l 2,13,14
 99 -2 99 -2 61 -2 c 2,15,-1
 21 -2 l 2,16,17
 -37 -2 -37 -2 -37 18 c 0,18,19
 -37 26 -37 26 -31 38 c 2,20,-1
 260 681 l 2,21,22
 269 702 269 702 319 702 c 2,23,-1
 371 702 l 2,0,1
323 515 m 1,24,25
 311 474 311 474 301 451 c 2,26,-1
 221 273 l 1,27,-1
 375 273 l 1,28,-1
 335 451 l 2,29,30
 329 477 329 477 327 515 c 1,31,-1
 323 515 l 1,24,25
EndSplineSet
Validated: 1
Substitution2: "Single Substitution lookup 21 subtable" ordfeminine
Substitution2: "'aalt' Access All Alternates lookup 0 subtable" ordfeminine
Position2: "'cpsp' Capital Spacing lookup 3 subtable" dx=5 dy=0 dh=10 dv=0
EndChar

StartChar: Aacute
Encoding: 193 193 2
Width: 613
Flags: MW
HStem: -2 21G 141 132<221 375 221 406 164 375> 682 20G<319 371 371 385.5> 752 159<306 472>
VStem: -37 624<14 21>
LayerCount: 2
UndoRedoHistory
Layer: 1
Undoes
EndUndoes
Redoes
EndRedoes
EndUndoRedoHistory
Fore
SplineSet
453 911 m 0,0,1
 511 911 511 911 511 898 c 0,2,3
 511 891 511 891 506.5 885.5 c 128,-1,4
 502 880 502 880 471 851 c 0,5,6
 430 811 430 811 395 777 c 0,7,8
 370 752 370 752 317 752 c 0,9,10
 288 752 288 752 288 765 c 0,11,12
 288 768 288 768 290 772.5 c 128,-1,13
 292 777 292 777 298.5 786.5 c 128,-1,14
 305 796 305 796 312.5 807 c 128,-1,15
 320 818 320 818 335 839.5 c 128,-1,16
 350 861 350 861 365 884 c 0,17,18
 383 911 383 911 453 911 c 0,0,1
371 702 m 2,19,20
 421 702 421 702 426 681 c 2,21,-1
 584 38 l 2,22,23
 587 29 587 29 587 21 c 0,24,25
 587 -2 587 -2 533 -2 c 2,26,-1
 489 -2 l 2,27,28
 440 -2 440 -2 435 19 c 2,29,-1
 406 141 l 1,30,-1
 164 141 l 1,31,-1
 109 19 l 2,32,33
 99 -2 99 -2 61 -2 c 2,34,-1
 21 -2 l 2,35,36
 -37 -2 -37 -2 -37 18 c 0,37,38
 -37 26 -37 26 -31 38 c 2,39,-1
 260 681 l 2,40,41
 269 702 269 702 319 702 c 2,42,-1
 371 702 l 2,19,20
323 515 m 1,43,44
 311 474 311 474 301 451 c 2,45,-1
 221 273 l 1,46,-1
 375 273 l 1,47,-1
 335 451 l 2,48,49
 329 477 329 477 327 515 c 1,50,-1
 323 515 l 1,43,44
EndSplineSet
Validated: 1
Position2: "'cpsp' Capital Spacing lookup 3 subtable" dx=5 dy=0 dh=10 dv=0
EndChar

StartChar: Abreve
Encoding: 258 258 3
Width: 613
Flags: MW
HStem: -2 21G 141 132<221 375 221 406 164 375> 682 20G<319 371 371 385.5> 752 91<332.5 387 332.5 391>
VStem: -37 624<14 21>
LayerCount: 2
UndoRedoHistory
Layer: 1
Undoes
EndUndoes
Redoes
EndRedoes
EndUndoRedoHistory
Fore
SplineSet
475 892 m 0,0,1
 507 892 507 892 507 868 c 0,2,3
 507 823 507 823 459.5 787.5 c 128,-1,4
 412 752 412 752 348 752 c 0,5,6
 288 752 288 752 250 782.5 c 128,-1,7
 212 813 212 813 212 855 c 0,8,9
 212 892 212 892 251 892 c 0,10,11
 268 892 268 892 282 874 c 0,12,13
 306 843 306 843 358 843 c 0,14,15
 375 843 375 843 387.5 845 c 128,-1,16
 400 847 400 847 410 852.5 c 128,-1,17
 420 858 420 858 424 860 c 128,-1,18
 428 862 428 862 437 870 c 2,19,-1
 446 879 l 2,20,21
 459 892 459 892 475 892 c 0,0,1
371 702 m 2,22,23
 421 702 421 702 426 681 c 2,24,-1
 584 38 l 2,25,26
 587 29 587 29 587 21 c 0,27,28
 587 -2 587 -2 533 -2 c 2,29,-1
 489 -2 l 2,30,31
 440 -2 440 -2 435 19 c 2,32,-1
 406 141 l 1,33,-1
 164 141 l 1,34,-1
 109 19 l 2,35,36
 99 -2 99 -2 61 -2 c 2,37,-1
 21 -2 l 2,38,39
 -37 -2 -37 -2 -37 18 c 0,40,41
 -37 26 -37 26 -31 38 c 2,42,-1
 260 681 l 2,43,44
 269 702 269 702 319 702 c 2,45,-1
 371 702 l 2,22,23
323 515 m 1,46,47
 311 474 311 474 301 451 c 2,48,-1
 221 273 l 1,49,-1
 375 273 l 1,50,-1
 335 451 l 2,51,52
 329 477 329 477 327 515 c 1,53,-1
 323 515 l 1,46,47
EndSplineSet
Validated: 1
Position2: "'cpsp' Capital Spacing lookup 3 subtable" dx=5 dy=0 dh=10 dv=0
EndChar

StartChar: Abreveacute
Encoding: 7854 7854 4
Width: 613
Flags: MW
HStem: -2 21G 141 132<221 375 221 406 164 375> 682 20G<319 371 371 385.5> 751 83<334.5 389 334.5 393>
VStem: -37 624<14 21>
LayerCount: 2
UndoRedoHistory
Layer: 1
Undoes
EndUndoes
Redoes
EndRedoes
EndUndoRedoHistory
Fore
SplineSet
371 702 m 2,0,1
 421 702 421 702 426 681 c 2,2,-1
 584 38 l 2,3,4
 587 29 587 29 587 21 c 0,5,6
 587 -2 587 -2 533 -2 c 2,7,-1
 489 -2 l 2,8,9
 440 -2 440 -2 435 19 c 2,10,-1
 406 141 l 1,11,-1
 164 141 l 1,12,-1
 109 19 l 2,13,14
 99 -2 99 -2 61 -2 c 2,15,-1
 21 -2 l 2,16,17
 -37 -2 -37 -2 -37 18 c 0,18,19
 -37 26 -37 26 -31 38 c 2,20,-1
 260 681 l 2,21,22
 269 702 269 702 319 702 c 2,23,-1
 371 702 l 2,0,1
323 515 m 1,24,25
 311 474 311 474 301 451 c 2,26,-1
 221 273 l 1,27,-1
 375 273 l 1,28,-1
 335 451 l 2,29,30
 329 477 329 477 327 515 c 1,31,-1
 323 515 l 1,24,25
444 1006 m 0,32,33
 482 1006 482 1006 482 983 c 0,34,35
 482 967 482 967 396 882 c 1,36,37
 379 867 379 867 338 867 c 0,38,39
 319 867 319 867 319 880 c 0,40,41
 319 886 319 886 366 979 c 0,42,43
 380 1006 380 1006 444 1006 c 0,32,33
477 883 m 0,44,45
 509 883 509 883 509 859 c 0,46,47
 509 818 509 818 461 784.5 c 128,-1,48
 413 751 413 751 350 751 c 0,49,50
 290 751 290 751 252 780 c 128,-1,51
 214 809 214 809 214 846 c 128,-1,52
 214 883 214 883 253 883 c 0,53,54
 270 883 270 883 284 865 c 0,55,56
 307 834 307 834 360 834 c 0,57,58
 387 834 387 834 405.5 840 c 128,-1,59
 424 846 424 846 430.5 851.5 c 128,-1,60
 437 857 437 857 448 870 c 1,61,62
 461 883 461 883 477 883 c 0,44,45
EndSplineSet
Validated: 1
Position2: "'cpsp' Capital Spacing lookup 3 subtable" dx=5 dy=0 dh=10 dv=0
EndChar

StartChar: Abrevedotbelow
Encoding: 7862 7862 5
Width: 613
Flags: MW
HStem: -204 124<269 297> -2 21G 141 132<221 375 221 406 164 375> 682 20G<319 371 371 385.5> 752 91<332.5 387 332.5 391>
VStem: -37 624<14 21> 220 127<-182.5 -101.5>
LayerCount: 2
UndoRedoHistory
Layer: 1
Undoes
EndUndoes
Redoes
EndRedoes
EndUndoRedoHistory
Fore
SplineSet
371 702 m 2,0,1
 421 702 421 702 426 681 c 2,2,-1
 584 38 l 2,3,4
 587 29 587 29 587 21 c 0,5,6
 587 -2 587 -2 533 -2 c 2,7,-1
 489 -2 l 2,8,9
 440 -2 440 -2 435 19 c 2,10,-1
 406 141 l 1,11,-1
 164 141 l 1,12,-1
 109 19 l 2,13,14
 99 -2 99 -2 61 -2 c 2,15,-1
 21 -2 l 2,16,17
 -37 -2 -37 -2 -37 18 c 0,18,19
 -37 26 -37 26 -31 38 c 2,20,-1
 260 681 l 2,21,22
 269 702 269 702 319 702 c 2,23,-1
 371 702 l 2,0,1
323 515 m 1,24,25
 311 474 311 474 301 451 c 2,26,-1
 221 273 l 1,27,-1
 375 273 l 1,28,-1
 335 451 l 2,29,30
 329 477 329 477 327 515 c 1,31,-1
 323 515 l 1,24,25
475 892 m 0,32,33
 507 892 507 892 507 868 c 0,34,35
 507 823 507 823 459.5 787.5 c 128,-1,36
 412 752 412 752 348 752 c 0,37,38
 288 752 288 752 250 782.5 c 128,-1,39
 212 813 212 813 212 855 c 0,40,41
 212 892 212 892 251 892 c 0,42,43
 268 892 268 892 282 874 c 0,44,45
 306 843 306 843 358 843 c 0,46,47
 375 843 375 843 387.5 845 c 128,-1,48
 400 847 400 847 410 852.5 c 128,-1,49
 420 858 420 858 424 860 c 128,-1,50
 428 862 428 862 437 870 c 2,51,-1
 446 879 l 2,52,53
 459 892 459 892 475 892 c 0,32,33
227 -112 m 2,54,55
 230 -80 230 -80 290 -80 c 0,56,57
 347 -80 347 -80 347 -112 c 1,58,-1
 340 -172 l 1,59,60
 335 -204 335 -204 277 -204 c 0,61,62
 220 -204 220 -204 220 -172 c 1,63,-1
 227 -112 l 2,54,55
EndSplineSet
Validated: 1
Position2: "'cpsp' Capital Spacing lookup 3 subtable" dx=5 dy=0 dh=10 dv=0
EndChar

StartChar: Abrevegrave
Encoding: 7856 7856 6
Width: 613
Flags: MW
HStem: -2 21G 141 132<221 375 221 406 164 375> 682 20G<319 371 371 385.5> 751 83<334.5 389 334.5 393> 868 139<282 387>
VStem: -37 624<14 21>
LayerCount: 2
UndoRedoHistory
Layer: 1
Undoes
EndUndoes
Redoes
EndRedoes
EndUndoRedoHistory
Fore
SplineSet
371 702 m 2,0,1
 421 702 421 702 426 681 c 2,2,-1
 584 38 l 2,3,4
 587 29 587 29 587 21 c 0,5,6
 587 -2 587 -2 533 -2 c 2,7,-1
 489 -2 l 2,8,9
 440 -2 440 -2 435 19 c 2,10,-1
 406 141 l 1,11,-1
 164 141 l 1,12,-1
 109 19 l 2,13,14
 99 -2 99 -2 61 -2 c 2,15,-1
 21 -2 l 2,16,17
 -37 -2 -37 -2 -37 18 c 0,18,19
 -37 26 -37 26 -31 38 c 2,20,-1
 260 681 l 2,21,22
 269 702 269 702 319 702 c 2,23,-1
 371 702 l 2,0,1
323 515 m 1,24,25
 311 474 311 474 301 451 c 2,26,-1
 221 273 l 1,27,-1
 375 273 l 1,28,-1
 335 451 l 2,29,30
 329 477 329 477 327 515 c 1,31,-1
 323 515 l 1,24,25
298 1007 m 0,32,33
 371 1007 371 1007 380 980 c 0,34,35
 408 889 408 889 408 884 c 0,36,37
 408 868 408 868 375 868 c 0,38,39
 335 868 335 868 316 893 c 0,40,41
 301 913 301 913 281 941 c 0,42,43
 249 985 249 985 249 991 c 0,44,45
 249 1007 249 1007 298 1007 c 0,32,33
477 883 m 0,46,47
 509 883 509 883 509 859 c 0,48,49
 509 818 509 818 461 784.5 c 128,-1,50
 413 751 413 751 350 751 c 0,51,52
 290 751 290 751 252 780 c 128,-1,53
 214 809 214 809 214 846 c 128,-1,54
 214 883 214 883 253 883 c 0,55,56
 270 883 270 883 284 865 c 0,57,58
 307 834 307 834 360 834 c 0,59,60
 387 834 387 834 405.5 840 c 128,-1,61
 424 846 424 846 430.5 851.5 c 128,-1,62
 437 857 437 857 448 870 c 1,63,64
 461 883 461 883 477 883 c 0,46,47
EndSplineSet
Validated: 1
Position2: "'cpsp' Capital Spacing lookup 3 subtable" dx=5 dy=0 dh=10 dv=0
EndChar

StartChar: Abrevehookabove
Encoding: 7858 7858 7
Width: 613
Flags: MW
HStem: -2 21G 141 132<221 375 221 406 164 375> 682 20G<319 371 371 385.5> 751 83<334.5 389 334.5 393> 939 70<302 393>
VStem: 379 70<932 944.5>
LayerCount: 2
UndoRedoHistory
Layer: 1
Undoes
EndUndoes
Redoes
EndRedoes
EndUndoRedoHistory
Fore
SplineSet
371 702 m 2,0,1
 421 702 421 702 426 681 c 2,2,-1
 584 38 l 2,3,4
 587 29 587 29 587 21 c 0,5,6
 587 -2 587 -2 533 -2 c 2,7,-1
 489 -2 l 2,8,9
 440 -2 440 -2 435 19 c 2,10,-1
 406 141 l 1,11,-1
 164 141 l 1,12,-1
 109 19 l 2,13,14
 99 -2 99 -2 61 -2 c 2,15,-1
 21 -2 l 2,16,17
 -37 -2 -37 -2 -37 18 c 0,18,19
 -37 26 -37 26 -31 38 c 2,20,-1
 260 681 l 2,21,22
 269 702 269 702 319 702 c 2,23,-1
 371 702 l 2,0,1
323 515 m 1,24,25
 311 474 311 474 301 451 c 2,26,-1
 221 273 l 1,27,-1
 375 273 l 1,28,-1
 335 451 l 2,29,30
 329 477 329 477 327 515 c 1,31,-1
 323 515 l 1,24,25
379 939 m 0,32,33
 379 956 379 956 358 956 c 0,34,35
 340 956 340 956 324 947.5 c 128,-1,36
 308 939 308 939 306 939 c 0,37,38
 300 939 300 939 290.5 954.5 c 128,-1,39
 281 970 281 970 281 981 c 0,40,41
 281 991 281 991 309 1000 c 128,-1,42
 337 1009 337 1009 364 1009 c 0,43,44
 449 1009 449 1009 449 943 c 0,45,46
 449 915 449 915 409 890 c 0,47,48
 375 869 375 869 365 869 c 0,49,50
 324 869 324 869 324 890 c 0,51,52
 324 902 324 902 345 910 c 0,53,54
 359 916 359 916 364.5 919 c 128,-1,55
 370 922 370 922 374.5 927 c 128,-1,56
 379 932 379 932 379 939 c 0,32,33
477 883 m 0,57,58
 509 883 509 883 509 859 c 0,59,60
 509 818 509 818 461 784.5 c 128,-1,61
 413 751 413 751 350 751 c 0,62,63
 290 751 290 751 252 780 c 128,-1,64
 214 809 214 809 214 846 c 128,-1,65
 214 883 214 883 253 883 c 0,66,67
 270 883 270 883 284 865 c 0,68,69
 307 834 307 834 360 834 c 0,70,71
 387 834 387 834 405.5 840 c 128,-1,72
 424 846 424 846 430.5 851.5 c 128,-1,73
 437 857 437 857 448 870 c 1,74,75
 461 883 461 883 477 883 c 0,57,58
EndSplineSet
Validated: 1
Position2: "'cpsp' Capital Spacing lookup 3 subtable" dx=5 dy=0 dh=10 dv=0
EndChar

StartChar: Abrevetilde
Encoding: 7860 7860 8
Width: 613
Flags: MW
HStem: -2 21G 141 132<221 375 221 406 164 375> 682 20G<319 371 371 385.5> 751 83<334.5 389 334.5 393> 903 86<425.5 438.5> 915 100
VStem: -37 624<14 21>
LayerCount: 2
UndoRedoHistory
Layer: 1
Undoes
EndUndoes
Redoes
EndRedoes
EndUndoRedoHistory
Fore
SplineSet
371 702 m 2,0,1
 421 702 421 702 426 681 c 2,2,-1
 584 38 l 2,3,4
 587 29 587 29 587 21 c 0,5,6
 587 -2 587 -2 533 -2 c 2,7,-1
 489 -2 l 2,8,9
 440 -2 440 -2 435 19 c 2,10,-1
 406 141 l 1,11,-1
 164 141 l 1,12,-1
 109 19 l 2,13,14
 99 -2 99 -2 61 -2 c 2,15,-1
 21 -2 l 2,16,17
 -37 -2 -37 -2 -37 18 c 0,18,19
 -37 26 -37 26 -31 38 c 2,20,-1
 260 681 l 2,21,22
 269 702 269 702 319 702 c 2,23,-1
 371 702 l 2,0,1
323 515 m 1,24,25
 311 474 311 474 301 451 c 2,26,-1
 221 273 l 1,27,-1
 375 273 l 1,28,-1
 335 451 l 2,29,30
 329 477 329 477 327 515 c 1,31,-1
 323 515 l 1,24,25
483 1004 m 0,32,33
 493 1010 493 1010 500 1010 c 0,34,35
 513 1010 513 1010 523 996 c 0,36,37
 531 985 531 985 531 976 c 0,38,39
 531 965 531 965 516 944 c 1,40,41
 478 903 478 903 420 903 c 0,42,43
 386 903 386 903 355 915 c 0,44,45
 318 929 318 929 308 929 c 0,46,47
 288 929 288 929 262 915 c 0,48,49
 254 911 254 911 251 911 c 0,50,51
 238 911 238 911 228 928 c 0,52,53
 220 941 220 941 220 952 c 0,54,55
 220 965 220 965 229 974 c 0,56,57
 275 1015 275 1015 322 1015 c 0,58,59
 354 1015 354 1015 385 1002 c 0,60,61
 415 989 415 989 434 989 c 0,62,63
 460 989 460 989 483 1004 c 0,32,33
477 883 m 0,64,65
 509 883 509 883 509 859 c 0,66,67
 509 818 509 818 461 784.5 c 128,-1,68
 413 751 413 751 350 751 c 0,69,70
 290 751 290 751 252 780 c 128,-1,71
 214 809 214 809 214 846 c 128,-1,72
 214 883 214 883 253 883 c 0,73,74
 270 883 270 883 284 865 c 0,75,76
 307 834 307 834 360 834 c 0,77,78
 387 834 387 834 405.5 840 c 128,-1,79
 424 846 424 846 430.5 851.5 c 128,-1,80
 437 857 437 857 448 870 c 1,81,82
 461 883 461 883 477 883 c 0,64,65
EndSplineSet
Validated: 1
Position2: "'cpsp' Capital Spacing lookup 3 subtable" dx=5 dy=0 dh=10 dv=0
EndChar

StartChar: Acircumflex
Encoding: 194 194 9
Width: 613
Flags: MW
HStem: -2 21G 141 132<221 375 221 406 164 375> 682 20G<319 371 371 385.5> 749 146<222 366 228 366 355 441 355 463>
VStem: -37 624<14 21>
LayerCount: 2
UndoRedoHistory
Layer: 1
Undoes
EndUndoes
Redoes
EndRedoes
EndUndoRedoHistory
Fore
SplineSet
366 895 m 2,0,1
 414 895 414 895 425 876 c 2,2,-1
 479 774 l 1,3,4
 482 766 482 766 482 762 c 0,5,6
 482 749 482 749 463 749 c 2,7,-1
 441 749 l 2,8,9
 392 749 392 749 377 773 c 2,10,-1
 352 813 l 1,11,-1
 321 774 l 2,12,13
 302 749 302 749 252 749 c 2,14,-1
 228 749 l 2,15,16
 209 749 209 749 209 759 c 0,17,18
 209 766 209 766 216 774 c 2,19,-1
 292 876 l 2,20,21
 306 895 306 895 355 895 c 2,22,-1
 366 895 l 2,0,1
371 702 m 2,23,24
 421 702 421 702 426 681 c 2,25,-1
 584 38 l 2,26,27
 587 29 587 29 587 21 c 0,28,29
 587 -2 587 -2 533 -2 c 2,30,-1
 489 -2 l 2,31,32
 440 -2 440 -2 435 19 c 2,33,-1
 406 141 l 1,34,-1
 164 141 l 1,35,-1
 109 19 l 2,36,37
 99 -2 99 -2 61 -2 c 2,38,-1
 21 -2 l 2,39,40
 -37 -2 -37 -2 -37 18 c 0,41,42
 -37 26 -37 26 -31 38 c 2,43,-1
 260 681 l 2,44,45
 269 702 269 702 319 702 c 2,46,-1
 371 702 l 2,23,24
323 515 m 1,47,48
 311 474 311 474 301 451 c 2,49,-1
 221 273 l 1,50,-1
 375 273 l 1,51,-1
 335 451 l 2,52,53
 329 477 329 477 327 515 c 1,54,-1
 323 515 l 1,47,48
EndSplineSet
Validated: 1
Position2: "'cpsp' Capital Spacing lookup 3 subtable" dx=5 dy=0 dh=10 dv=0
EndChar

StartChar: Acircumflexacute
Encoding: 7844 7844 10
Width: 613
Flags: MW
HStem: -2 21G 141 132<221 375 221 406 164 375> 682 20G<319 371 371 385.5> 749 146<219 363 225 363 352 423 352 445>
VStem: -37 646
LayerCount: 2
UndoRedoHistory
Layer: 1
Undoes
EndUndoes
Redoes
EndRedoes
EndUndoRedoHistory
Fore
SplineSet
571 963 m 0,0,1
 609 963 609 963 609 940 c 0,2,3
 609 924 609 924 523 839 c 1,4,5
 506 824 506 824 465 824 c 0,6,7
 446 824 446 824 446 837 c 0,8,9
 446 843 446 843 493 936 c 0,10,11
 507 963 507 963 571 963 c 0,0,1
363 895 m 2,12,13
 403 895 403 895 412 876 c 2,14,-1
 461 774 l 2,15,16
 464 766 464 766 464 762 c 0,17,18
 464 749 464 749 445 749 c 2,19,-1
 423 749 l 2,20,21
 364 749 364 749 359 773 c 2,22,-1
 349 813 l 1,23,-1
 318 774 l 2,24,25
 299 749 299 749 249 749 c 2,26,-1
 225 749 l 2,27,28
 206 749 206 749 206 759 c 0,29,30
 206 766 206 766 213 774 c 2,31,-1
 289 876 l 2,32,33
 303 895 303 895 352 895 c 2,34,-1
 363 895 l 2,12,13
371 702 m 2,35,36
 421 702 421 702 426 681 c 2,37,-1
 584 38 l 2,38,39
 587 29 587 29 587 21 c 0,40,41
 587 -2 587 -2 533 -2 c 2,42,-1
 489 -2 l 2,43,44
 440 -2 440 -2 435 19 c 2,45,-1
 406 141 l 1,46,-1
 164 141 l 1,47,-1
 109 19 l 2,48,49
 99 -2 99 -2 61 -2 c 2,50,-1
 21 -2 l 2,51,52
 -37 -2 -37 -2 -37 18 c 0,53,54
 -37 26 -37 26 -31 38 c 2,55,-1
 260 681 l 2,56,57
 269 702 269 702 319 702 c 2,58,-1
 371 702 l 2,35,36
323 515 m 1,59,60
 311 474 311 474 301 451 c 2,61,-1
 221 273 l 1,62,-1
 375 273 l 1,63,-1
 335 451 l 2,64,65
 329 477 329 477 327 515 c 1,66,-1
 323 515 l 1,59,60
EndSplineSet
Validated: 1
Position2: "'cpsp' Capital Spacing lookup 3 subtable" dx=5 dy=0 dh=10 dv=0
EndChar

StartChar: Acircumflexdotbelow
Encoding: 7852 7852 11
Width: 613
Flags: MW
HStem: -204 124<269 297> -2 21G 141 132<221 375 221 406 164 375> 682 20G<319 371 371 385.5> 749 146<222 366 228 366 355 441 355 463>
VStem: -37 624<14 21> 220 127<-182.5 -101.5>
LayerCount: 2
UndoRedoHistory
Layer: 1
Undoes
EndUndoes
Redoes
EndRedoes
EndUndoRedoHistory
Fore
SplineSet
371 702 m 2,0,1
 421 702 421 702 426 681 c 2,2,-1
 584 38 l 2,3,4
 587 29 587 29 587 21 c 0,5,6
 587 -2 587 -2 533 -2 c 2,7,-1
 489 -2 l 2,8,9
 440 -2 440 -2 435 19 c 2,10,-1
 406 141 l 1,11,-1
 164 141 l 1,12,-1
 109 19 l 2,13,14
 99 -2 99 -2 61 -2 c 2,15,-1
 21 -2 l 2,16,17
 -37 -2 -37 -2 -37 18 c 0,18,19
 -37 26 -37 26 -31 38 c 2,20,-1
 260 681 l 2,21,22
 269 702 269 702 319 702 c 2,23,-1
 371 702 l 2,0,1
323 515 m 1,24,25
 311 474 311 474 301 451 c 2,26,-1
 221 273 l 1,27,-1
 375 273 l 1,28,-1
 335 451 l 2,29,30
 329 477 329 477 327 515 c 1,31,-1
 323 515 l 1,24,25
366 895 m 2,32,33
 414 895 414 895 425 876 c 2,34,-1
 479 774 l 1,35,36
 482 766 482 766 482 762 c 0,37,38
 482 749 482 749 463 749 c 2,39,-1
 441 749 l 2,40,41
 392 749 392 749 377 773 c 2,42,-1
 352 813 l 1,43,-1
 321 774 l 2,44,45
 302 749 302 749 252 749 c 2,46,-1
 228 749 l 2,47,48
 209 749 209 749 209 759 c 0,49,50
 209 766 209 766 216 774 c 2,51,-1
 292 876 l 2,52,53
 306 895 306 895 355 895 c 2,54,-1
 366 895 l 2,32,33
227 -112 m 2,55,56
 230 -80 230 -80 290 -80 c 0,57,58
 347 -80 347 -80 347 -112 c 1,59,-1
 340 -172 l 1,60,61
 335 -204 335 -204 277 -204 c 0,62,63
 220 -204 220 -204 220 -172 c 1,64,-1
 227 -112 l 2,55,56
EndSplineSet
Validated: 1
Position2: "'cpsp' Capital Spacing lookup 3 subtable" dx=5 dy=0 dh=10 dv=0
EndChar

StartChar: Acircumflexgrave
Encoding: 7846 7846 12
Width: 613
Flags: MW
HStem: -2 21G 141 132<221 375 221 406 164 375> 682 20G<319 371 371 385.5> 749 146<219 363 225 363 352 423 352 445> 825 139<409 514>
VStem: -37 624<14 21>
LayerCount: 2
UndoRedoHistory
Layer: 1
Undoes
EndUndoes
Redoes
EndRedoes
EndUndoRedoHistory
Fore
SplineSet
371 702 m 2,0,1
 421 702 421 702 426 681 c 2,2,-1
 584 38 l 2,3,4
 587 29 587 29 587 21 c 0,5,6
 587 -2 587 -2 533 -2 c 2,7,-1
 489 -2 l 2,8,9
 440 -2 440 -2 435 19 c 2,10,-1
 406 141 l 1,11,-1
 164 141 l 1,12,-1
 109 19 l 2,13,14
 99 -2 99 -2 61 -2 c 2,15,-1
 21 -2 l 2,16,17
 -37 -2 -37 -2 -37 18 c 0,18,19
 -37 26 -37 26 -31 38 c 2,20,-1
 260 681 l 2,21,22
 269 702 269 702 319 702 c 2,23,-1
 371 702 l 2,0,1
323 515 m 1,24,25
 311 474 311 474 301 451 c 2,26,-1
 221 273 l 1,27,-1
 375 273 l 1,28,-1
 335 451 l 2,29,30
 329 477 329 477 327 515 c 1,31,-1
 323 515 l 1,24,25
425 964 m 0,32,33
 498 964 498 964 507 937 c 0,34,35
 535 846 535 846 535 841 c 0,36,37
 535 825 535 825 502 825 c 0,38,39
 462 825 462 825 443 850 c 0,40,41
 428 870 428 870 408 898 c 0,42,43
 376 942 376 942 376 948 c 0,44,45
 376 964 376 964 425 964 c 0,32,33
363 895 m 2,46,47
 403 895 403 895 412 876 c 2,48,-1
 461 774 l 2,49,50
 464 766 464 766 464 762 c 0,51,52
 464 749 464 749 445 749 c 2,53,-1
 423 749 l 2,54,55
 364 749 364 749 359 773 c 2,56,-1
 349 813 l 1,57,-1
 318 774 l 2,58,59
 299 749 299 749 249 749 c 2,60,-1
 225 749 l 2,61,62
 206 749 206 749 206 759 c 0,63,64
 206 766 206 766 213 774 c 2,65,-1
 289 876 l 2,66,67
 303 895 303 895 352 895 c 2,68,-1
 363 895 l 2,46,47
EndSplineSet
Validated: 1
Position2: "'cpsp' Capital Spacing lookup 3 subtable" dx=5 dy=0 dh=10 dv=0
EndChar

StartChar: Acircumflexhookabove
Encoding: 7848 7848 13
Width: 613
Flags: MW
HStem: -2 21G 141 132<221 375 221 406 164 375> 682 20G<319 371 371 385.5> 749 146<219 363 225 363 352 423 352 445> 896 70<429 520>
VStem: 506 70<889 901.5>
LayerCount: 2
UndoRedoHistory
Layer: 1
Undoes
EndUndoes
Redoes
EndRedoes
EndUndoRedoHistory
Fore
SplineSet
371 702 m 2,0,1
 421 702 421 702 426 681 c 2,2,-1
 584 38 l 2,3,4
 587 29 587 29 587 21 c 0,5,6
 587 -2 587 -2 533 -2 c 2,7,-1
 489 -2 l 2,8,9
 440 -2 440 -2 435 19 c 2,10,-1
 406 141 l 1,11,-1
 164 141 l 1,12,-1
 109 19 l 2,13,14
 99 -2 99 -2 61 -2 c 2,15,-1
 21 -2 l 2,16,17
 -37 -2 -37 -2 -37 18 c 0,18,19
 -37 26 -37 26 -31 38 c 2,20,-1
 260 681 l 2,21,22
 269 702 269 702 319 702 c 2,23,-1
 371 702 l 2,0,1
323 515 m 1,24,25
 311 474 311 474 301 451 c 2,26,-1
 221 273 l 1,27,-1
 375 273 l 1,28,-1
 335 451 l 2,29,30
 329 477 329 477 327 515 c 1,31,-1
 323 515 l 1,24,25
506 896 m 0,32,33
 506 913 506 913 485 913 c 0,34,35
 467 913 467 913 451 904.5 c 128,-1,36
 435 896 435 896 433 896 c 0,37,38
 427 896 427 896 417.5 911.5 c 128,-1,39
 408 927 408 927 408 938 c 0,40,41
 408 948 408 948 436 957 c 128,-1,42
 464 966 464 966 491 966 c 0,43,44
 576 966 576 966 576 900 c 0,45,46
 576 872 576 872 536 847 c 0,47,48
 502 826 502 826 492 826 c 0,49,50
 451 826 451 826 451 847 c 0,51,52
 451 859 451 859 472 867 c 0,53,54
 486 873 486 873 491.5 876 c 128,-1,55
 497 879 497 879 501.5 884 c 128,-1,56
 506 889 506 889 506 896 c 0,32,33
363 895 m 2,57,58
 403 895 403 895 412 876 c 2,59,-1
 461 774 l 2,60,61
 464 766 464 766 464 762 c 0,62,63
 464 749 464 749 445 749 c 2,64,-1
 423 749 l 2,65,66
 364 749 364 749 359 773 c 2,67,-1
 349 813 l 1,68,-1
 318 774 l 2,69,70
 299 749 299 749 249 749 c 2,71,-1
 225 749 l 2,72,73
 206 749 206 749 206 759 c 0,74,75
 206 766 206 766 213 774 c 2,76,-1
 289 876 l 2,77,78
 303 895 303 895 352 895 c 2,79,-1
 363 895 l 2,57,58
EndSplineSet
Validated: 1
Position2: "'cpsp' Capital Spacing lookup 3 subtable" dx=5 dy=0 dh=10 dv=0
EndChar

StartChar: Acircumflextilde
Encoding: 7850 7850 14
Width: 613
Flags: MW
HStem: -2 21G 141 132<221 375 221 406 164 375> 682 20G<319 371 371 385.5> 749 122<232 370 359 445 359 467> 903 86<425.5 438.5> 915 100
VStem: -37 624<14 21>
LayerCount: 2
UndoRedoHistory
Layer: 1
Undoes
EndUndoes
Redoes
EndRedoes
EndUndoRedoHistory
Fore
SplineSet
371 702 m 2,0,1
 421 702 421 702 426 681 c 2,2,-1
 584 38 l 2,3,4
 587 29 587 29 587 21 c 0,5,6
 587 -2 587 -2 533 -2 c 2,7,-1
 489 -2 l 2,8,9
 440 -2 440 -2 435 19 c 2,10,-1
 406 141 l 1,11,-1
 164 141 l 1,12,-1
 109 19 l 2,13,14
 99 -2 99 -2 61 -2 c 2,15,-1
 21 -2 l 2,16,17
 -37 -2 -37 -2 -37 18 c 0,18,19
 -37 26 -37 26 -31 38 c 2,20,-1
 260 681 l 2,21,22
 269 702 269 702 319 702 c 2,23,-1
 371 702 l 2,0,1
323 515 m 1,24,25
 311 474 311 474 301 451 c 2,26,-1
 221 273 l 1,27,-1
 375 273 l 1,28,-1
 335 451 l 2,29,30
 329 477 329 477 327 515 c 1,31,-1
 323 515 l 1,24,25
483 1004 m 0,32,33
 493 1010 493 1010 500 1010 c 0,34,35
 513 1010 513 1010 523 996 c 0,36,37
 531 985 531 985 531 976 c 0,38,39
 531 965 531 965 516 944 c 1,40,41
 478 903 478 903 420 903 c 0,42,43
 386 903 386 903 355 915 c 0,44,45
 318 929 318 929 308 929 c 0,46,47
 288 929 288 929 262 915 c 0,48,49
 254 911 254 911 251 911 c 0,50,51
 238 911 238 911 228 928 c 0,52,53
 220 941 220 941 220 952 c 0,54,55
 220 965 220 965 229 974 c 0,56,57
 275 1015 275 1015 322 1015 c 0,58,59
 354 1015 354 1015 385 1002 c 0,60,61
 415 989 415 989 434 989 c 0,62,63
 460 989 460 989 483 1004 c 0,32,33
370 871 m 2,64,65
 414 871 414 871 429 852 c 1,66,-1
 483 774 l 1,67,68
 486 766 486 766 486 762 c 0,69,70
 486 749 486 749 467 749 c 2,71,-1
 445 749 l 2,72,73
 418 749 418 749 381 773 c 1,74,-1
 356 799 l 1,75,-1
 325 774 l 1,76,77
 318 771 318 771 307.5 765.5 c 128,-1,78
 297 760 297 760 291 757 c 128,-1,79
 285 754 285 754 275.5 751.5 c 128,-1,80
 266 749 266 749 256 749 c 2,81,-1
 232 749 l 2,82,83
 213 749 213 749 213 759 c 0,84,85
 213 766 213 766 220 774 c 2,86,-1
 296 852 l 1,87,88
 316 871 316 871 359 871 c 2,89,-1
 370 871 l 2,64,65
EndSplineSet
Validated: 1
Position2: "'cpsp' Capital Spacing lookup 3 subtable" dx=5 dy=0 dh=10 dv=0
EndChar

StartChar: Adieresis
Encoding: 196 196 15
Width: 613
Flags: MW
HStem: -2 21G 141 132<221 375 221 406 164 375> 682 20G<319 371 371 385.5> 755 124<254 282 434 462>
VStem: -37 624<14 21> 205 127<776.5 857.5> 385 127<776.5 857.5>
LayerCount: 2
UndoRedoHistory
Layer: 1
Undoes
EndUndoes
Redoes
EndRedoes
EndUndoRedoHistory
Fore
SplineSet
371 702 m 2,0,1
 421 702 421 702 426 681 c 2,2,-1
 584 38 l 2,3,4
 587 29 587 29 587 21 c 0,5,6
 587 -2 587 -2 533 -2 c 2,7,-1
 489 -2 l 2,8,9
 440 -2 440 -2 435 19 c 2,10,-1
 406 141 l 1,11,-1
 164 141 l 1,12,-1
 109 19 l 2,13,14
 99 -2 99 -2 61 -2 c 2,15,-1
 21 -2 l 2,16,17
 -37 -2 -37 -2 -37 18 c 0,18,19
 -37 26 -37 26 -31 38 c 2,20,-1
 260 681 l 2,21,22
 269 702 269 702 319 702 c 2,23,-1
 371 702 l 2,0,1
323 515 m 1,24,25
 311 474 311 474 301 451 c 2,26,-1
 221 273 l 1,27,-1
 375 273 l 1,28,-1
 335 451 l 2,29,30
 329 477 329 477 327 515 c 1,31,-1
 323 515 l 1,24,25
212 847 m 2,32,33
 215 879 215 879 275 879 c 0,34,35
 332 879 332 879 332 847 c 1,36,-1
 325 787 l 1,37,38
 320 755 320 755 262 755 c 0,39,40
 205 755 205 755 205 787 c 1,41,-1
 212 847 l 2,32,33
392 847 m 2,42,43
 395 879 395 879 455 879 c 0,44,45
 512 879 512 879 512 847 c 1,46,-1
 505 787 l 1,47,48
 500 755 500 755 442 755 c 0,49,50
 385 755 385 755 385 787 c 1,51,-1
 392 847 l 2,42,43
EndSplineSet
Validated: 1
Position2: "'cpsp' Capital Spacing lookup 3 subtable" dx=5 dy=0 dh=10 dv=0
EndChar

StartChar: Adotbelow
Encoding: 7840 7840 16
Width: 613
Flags: MW
HStem: -204 124<269 297> -2 21G 141 132<221 375 221 406 164 375> 682 20G<319 371 371 385.5>
VStem: -37 624<14 21> 220 127<-182.5 -101.5>
LayerCount: 2
UndoRedoHistory
Layer: 1
Undoes
EndUndoes
Redoes
EndRedoes
EndUndoRedoHistory
Fore
SplineSet
371 702 m 2,0,1
 421 702 421 702 426 681 c 2,2,-1
 584 38 l 2,3,4
 587 29 587 29 587 21 c 0,5,6
 587 -2 587 -2 533 -2 c 2,7,-1
 489 -2 l 2,8,9
 440 -2 440 -2 435 19 c 2,10,-1
 406 141 l 1,11,-1
 164 141 l 1,12,-1
 109 19 l 2,13,14
 99 -2 99 -2 61 -2 c 2,15,-1
 21 -2 l 2,16,17
 -37 -2 -37 -2 -37 18 c 0,18,19
 -37 26 -37 26 -31 38 c 2,20,-1
 260 681 l 2,21,22
 269 702 269 702 319 702 c 2,23,-1
 371 702 l 2,0,1
323 515 m 1,24,25
 311 474 311 474 301 451 c 2,26,-1
 221 273 l 1,27,-1
 375 273 l 1,28,-1
 335 451 l 2,29,30
 329 477 329 477 327 515 c 1,31,-1
 323 515 l 1,24,25
227 -112 m 2,32,33
 230 -80 230 -80 290 -80 c 0,34,35
 347 -80 347 -80 347 -112 c 1,36,-1
 340 -172 l 1,37,38
 335 -204 335 -204 277 -204 c 0,39,40
 220 -204 220 -204 220 -172 c 1,41,-1
 227 -112 l 2,32,33
EndSplineSet
Validated: 1
Position2: "'cpsp' Capital Spacing lookup 3 subtable" dx=5 dy=0 dh=10 dv=0
EndChar

StartChar: Agrave
Encoding: 192 192 17
Width: 613
Flags: MW
HStem: -2 21G 141 132<221 375 221 406 164 375> 682 20G<319 371 371 385.5> 752 159<254 389>
VStem: -37 624<14 21>
LayerCount: 2
UndoRedoHistory
Layer: 1
Undoes
EndUndoes
Redoes
EndRedoes
EndUndoRedoHistory
Fore
SplineSet
275 911 m 0,0,1
 344 911 344 911 357 884 c 0,2,3
 367 863 367 863 376.5 843 c 128,-1,4
 386 823 386 823 391.5 812 c 128,-1,5
 397 801 397 801 401.5 791 c 128,-1,6
 406 781 406 781 408 776 c 128,-1,7
 410 771 410 771 410 768 c 0,8,9
 410 752 410 752 377 752 c 0,10,11
 326 752 326 752 305 777 c 0,12,13
 282 806 282 806 251 842 c 0,14,15
 213 888 213 888 213 895 c 0,16,17
 213 911 213 911 275 911 c 0,0,1
371 702 m 2,18,19
 421 702 421 702 426 681 c 2,20,-1
 584 38 l 2,21,22
 587 29 587 29 587 21 c 0,23,24
 587 -2 587 -2 533 -2 c 2,25,-1
 489 -2 l 2,26,27
 440 -2 440 -2 435 19 c 2,28,-1
 406 141 l 1,29,-1
 164 141 l 1,30,-1
 109 19 l 2,31,32
 99 -2 99 -2 61 -2 c 2,33,-1
 21 -2 l 2,34,35
 -37 -2 -37 -2 -37 18 c 0,36,37
 -37 26 -37 26 -31 38 c 2,38,-1
 260 681 l 2,39,40
 269 702 269 702 319 702 c 2,41,-1
 371 702 l 2,18,19
323 515 m 1,42,43
 311 474 311 474 301 451 c 2,44,-1
 221 273 l 1,45,-1
 375 273 l 1,46,-1
 335 451 l 2,47,48
 329 477 329 477 327 515 c 1,49,-1
 323 515 l 1,42,43
EndSplineSet
Validated: 1
Position2: "'cpsp' Capital Spacing lookup 3 subtable" dx=5 dy=0 dh=10 dv=0
EndChar

StartChar: Ahookabove
Encoding: 7842 7842 18
Width: 613
Flags: MW
HStem: -2 21G 141 132<221 375 221 406 164 375> 682 20G<319 371 371 385.5> 867 61<352.5 365.5>
VStem: 388 87<828 852>
LayerCount: 2
UndoRedoHistory
Layer: 1
Undoes
EndUndoes
Redoes
EndRedoes
EndUndoRedoHistory
Fore
SplineSet
388 845 m 0,0,1
 388 867 388 867 356 867 c 0,2,3
 343 867 343 867 329 861 c 128,-1,4
 315 855 315 855 312 855 c 0,5,6
 306 855 306 855 296.5 870.5 c 128,-1,7
 287 886 287 886 287 897 c 0,8,9
 287 907 287 907 315.5 917.5 c 128,-1,10
 344 928 344 928 370 928 c 0,11,12
 419 928 419 928 447 906.5 c 128,-1,13
 475 885 475 885 475 851 c 128,-1,14
 475 817 475 817 433 782 c 128,-1,15
 391 747 391 747 373 747 c 0,16,17
 346 747 346 747 331 753.5 c 128,-1,18
 316 760 316 760 316 768 c 0,19,20
 316 778 316 778 352 802 c 128,-1,21
 388 826 388 826 388 845 c 0,0,1
371 702 m 2,22,23
 421 702 421 702 426 681 c 2,24,-1
 584 38 l 2,25,26
 587 29 587 29 587 21 c 0,27,28
 587 -2 587 -2 533 -2 c 2,29,-1
 489 -2 l 2,30,31
 440 -2 440 -2 435 19 c 2,32,-1
 406 141 l 1,33,-1
 164 141 l 1,34,-1
 109 19 l 2,35,36
 99 -2 99 -2 61 -2 c 2,37,-1
 21 -2 l 2,38,39
 -37 -2 -37 -2 -37 18 c 0,40,41
 -37 26 -37 26 -31 38 c 2,42,-1
 260 681 l 2,43,44
 269 702 269 702 319 702 c 2,45,-1
 371 702 l 2,22,23
323 515 m 1,46,47
 311 474 311 474 301 451 c 2,48,-1
 221 273 l 1,49,-1
 375 273 l 1,50,-1
 335 451 l 2,51,52
 329 477 329 477 327 515 c 1,53,-1
 323 515 l 1,46,47
EndSplineSet
Validated: 1
Position2: "'cpsp' Capital Spacing lookup 3 subtable" dx=5 dy=0 dh=10 dv=0
EndChar

StartChar: Amacron
Encoding: 256 256 19
Width: 613
Flags: MW
HStem: -2 21G 141 132<221 375 221 406 164 375> 682 20G<319 371 371 385.5> 774 95<239 475 259 464>
VStem: -37 624<14 21>
LayerCount: 2
UndoRedoHistory
Layer: 1
Undoes
EndUndoes
Redoes
EndRedoes
EndUndoRedoHistory
Fore
SplineSet
475 869 m 2,0,1
 501 869 501 869 501 839 c 0,2,3
 501 774 501 774 464 774 c 2,4,-1
 248 774 l 2,5,6
 222 774 222 774 222 804 c 0,7,8
 222 869 222 869 259 869 c 2,9,-1
 475 869 l 2,0,1
371 702 m 2,10,11
 421 702 421 702 426 681 c 2,12,-1
 584 38 l 2,13,14
 587 29 587 29 587 21 c 0,15,16
 587 -2 587 -2 533 -2 c 2,17,-1
 489 -2 l 2,18,19
 440 -2 440 -2 435 19 c 2,20,-1
 406 141 l 1,21,-1
 164 141 l 1,22,-1
 109 19 l 2,23,24
 99 -2 99 -2 61 -2 c 2,25,-1
 21 -2 l 2,26,27
 -37 -2 -37 -2 -37 18 c 0,28,29
 -37 26 -37 26 -31 38 c 2,30,-1
 260 681 l 2,31,32
 269 702 269 702 319 702 c 2,33,-1
 371 702 l 2,10,11
323 515 m 1,34,35
 311 474 311 474 301 451 c 2,36,-1
 221 273 l 1,37,-1
 375 273 l 1,38,-1
 335 451 l 2,39,40
 329 477 329 477 327 515 c 1,41,-1
 323 515 l 1,34,35
EndSplineSet
Validated: 1
Position2: "'cpsp' Capital Spacing lookup 3 subtable" dx=5 dy=0 dh=10 dv=0
EndChar

StartChar: Aogonek
Encoding: 260 260 20
Width: 613
Flags: MW
HStem: -183 70<581 593> -2 21G -1 21G<552 552> 141 132<221 375 221 406 164 375> 682 20G<319 371 371 385.5>
VStem: 465 69<-90 -81.5>
LayerCount: 2
UndoRedoHistory
Layer: 1
Undoes
EndUndoes
Redoes
EndRedoes
EndUndoRedoHistory
Fore
SplineSet
584 38 m 2,0,1
 587 29 587 29 587 21 c 0,2,3
 587 4 587 4 552 -1 c 1,4,-1
 552 -3 l 2,5,6
 552 -9 552 -9 543 -29.5 c 128,-1,7
 534 -50 534 -50 534 -70 c 0,8,9
 534 -113 534 -113 592 -113 c 0,10,11
 610 -113 610 -113 629 -106 c 128,-1,12
 648 -99 648 -99 650 -99 c 0,13,14
 661 -99 661 -99 661 -129 c 0,15,16
 661 -158 661 -158 635 -170.5 c 128,-1,17
 609 -183 609 -183 573 -183 c 0,18,19
 511 -183 511 -183 488 -156 c 128,-1,20
 465 -129 465 -129 465 -94 c 0,21,22
 465 -34 465 -34 497 -2 c 1,23,-1
 489 -2 l 2,24,25
 440 -2 440 -2 435 19 c 2,26,-1
 406 141 l 1,27,-1
 164 141 l 1,28,-1
 109 19 l 2,29,30
 99 -2 99 -2 61 -2 c 2,31,-1
 21 -2 l 2,32,33
 -37 -2 -37 -2 -37 18 c 0,34,35
 -37 26 -37 26 -31 38 c 2,36,-1
 260 681 l 2,37,38
 269 702 269 702 319 702 c 2,39,-1
 371 702 l 2,40,41
 421 702 421 702 426 681 c 2,42,-1
 584 38 l 2,0,1
375 273 m 1,43,-1
 335 451 l 2,44,45
 329 477 329 477 327 515 c 1,46,-1
 323 515 l 1,47,48
 311 474 311 474 301 451 c 2,49,-1
 221 273 l 1,50,-1
 375 273 l 1,43,-1
EndSplineSet
Validated: 1
Position2: "'cpsp' Capital Spacing lookup 3 subtable" dx=5 dy=0 dh=10 dv=0
EndChar

StartChar: Aring
Encoding: 197 197 21
Width: 613
Flags: MW
HStem: -2 21G 141 132<221 375 221 406 164 375> 682 20G<319 371 371 385.5> 727 62<345.5 365.5 345.5 383> 862 64<351.5 371.5>
VStem: 258 64<812 832 812 846.5> 395 63<817.5 837.5>
LayerCount: 2
UndoRedoHistory
Layer: 1
Undoes
EndUndoes
Redoes
EndRedoes
EndUndoRedoHistory
Fore
SplineSet
369 926 m 0,0,1
 408 926 408 926 433 900.5 c 128,-1,2
 458 875 458 875 458 837 c 0,3,4
 458 790 458 790 428.5 758.5 c 128,-1,5
 399 727 399 727 348 727 c 0,6,7
 308 727 308 727 283 752.5 c 128,-1,8
 258 778 258 778 258 816 c 0,9,10
 258 863 258 863 288.5 894.5 c 128,-1,11
 319 926 319 926 369 926 c 0,0,1
362 862 m 0,12,13
 346 862 346 862 334 849.5 c 128,-1,14
 322 837 322 837 322 821 c 0,15,16
 322 807 322 807 331.5 798 c 128,-1,17
 341 789 341 789 355 789 c 0,18,19
 371 789 371 789 383 800.5 c 128,-1,20
 395 812 395 812 395 828 c 0,21,22
 395 842 395 842 385.5 852 c 128,-1,23
 376 862 376 862 362 862 c 0,12,13
371 702 m 2,24,25
 421 702 421 702 426 681 c 2,26,-1
 584 38 l 2,27,28
 587 29 587 29 587 21 c 0,29,30
 587 -2 587 -2 533 -2 c 2,31,-1
 489 -2 l 2,32,33
 440 -2 440 -2 435 19 c 2,34,-1
 406 141 l 1,35,-1
 164 141 l 1,36,-1
 109 19 l 2,37,38
 99 -2 99 -2 61 -2 c 2,39,-1
 21 -2 l 2,40,41
 -37 -2 -37 -2 -37 18 c 0,42,43
 -37 26 -37 26 -31 38 c 2,44,-1
 260 681 l 2,45,46
 269 702 269 702 319 702 c 2,47,-1
 371 702 l 2,24,25
323 515 m 1,48,49
 311 474 311 474 301 451 c 2,50,-1
 221 273 l 1,51,-1
 375 273 l 1,52,-1
 335 451 l 2,53,54
 329 477 329 477 327 515 c 1,55,-1
 323 515 l 1,48,49
EndSplineSet
Validated: 1
Position2: "'cpsp' Capital Spacing lookup 3 subtable" dx=5 dy=0 dh=10 dv=0
EndChar

StartChar: Aringacute
Encoding: 506 506 22
Width: 613
Flags: MW
HStem: -2 21G 141 132<221 375 221 406 164 375> 732 64<338.5 358.5> 812 119<330 468.5>
VStem: 245 64<682 702 682 716.5> 382 63<697 707.5>
LayerCount: 2
UndoRedoHistory
Layer: 1
Undoes
EndUndoes
Redoes
EndRedoes
EndUndoRedoHistory
Fore
SplineSet
584 38 m 2,0,1
 587 29 587 29 587 21 c 0,2,3
 587 -2 587 -2 533 -2 c 2,4,-1
 489 -2 l 2,5,6
 440 -2 440 -2 435 19 c 2,7,-1
 406 141 l 1,8,-1
 164 141 l 1,9,-1
 109 19 l 2,10,11
 99 -2 99 -2 61 -2 c 2,12,-1
 21 -2 l 2,13,14
 -37 -2 -37 -2 -37 18 c 0,15,16
 -37 26 -37 26 -31 38 c 2,17,-1
 249 657 l 1,18,19
 245 669 245 669 245 686 c 0,20,21
 245 733 245 733 275.5 764.5 c 128,-1,22
 306 796 306 796 356 796 c 0,23,24
 395 796 395 796 420 770.5 c 128,-1,25
 445 745 445 745 445 707 c 0,26,27
 445 677 445 677 433 653 c 1,28,-1
 584 38 l 2,0,1
349 732 m 0,29,30
 333 732 333 732 321 719.5 c 128,-1,31
 309 707 309 707 309 691 c 0,32,33
 309 677 309 677 318.5 668 c 128,-1,34
 328 659 328 659 342 659 c 0,35,36
 358 659 358 659 370 670.5 c 128,-1,37
 382 682 382 682 382 698 c 0,38,39
 382 712 382 712 372.5 722 c 128,-1,40
 363 732 363 732 349 732 c 0,29,30
375 273 m 1,41,-1
 335 451 l 2,42,43
 329 477 329 477 327 515 c 1,44,-1
 323 515 l 1,45,46
 311 474 311 474 301 451 c 2,47,-1
 221 273 l 1,48,-1
 375 273 l 1,41,-1
342 812 m 0,49,50
 324 812 324 812 317.5 815.5 c 128,-1,51
 311 819 311 819 312 827 c 1,52,53
 334 867 334 867 361 904 c 0,54,55
 380 931 380 931 449 931 c 0,56,57
 508 931 508 931 508 918 c 0,58,59
 508 911 508 911 464 874 c 0,60,61
 438 853 438 853 419 837 c 1,62,63
 394 812 394 812 342 812 c 0,49,50
EndSplineSet
Validated: 1
Position2: "'cpsp' Capital Spacing lookup 3 subtable" dx=5 dy=0 dh=10 dv=0
EndChar

StartChar: Atilde
Encoding: 195 195 23
Width: 613
Flags: MW
HStem: -2 21G 141 132<221 375 221 406 164 375> 682 20G<319 371 371 385.5> 758 86<412.5 426.5> 770 100
VStem: -37 624<14 21>
LayerCount: 2
UndoRedoHistory
Layer: 1
Undoes
EndUndoes
Redoes
EndRedoes
EndUndoRedoHistory
Fore
SplineSet
476 859 m 0,0,1
 488 865 488 865 495 865 c 0,2,3
 510 865 510 865 520 851 c 0,4,5
 529 838 529 838 529 831 c 0,6,7
 529 819 529 819 512 799 c 1,8,9
 471 758 471 758 406 758 c 0,10,11
 369 758 369 758 335 770 c 0,12,13
 293 784 293 784 283 784 c 0,14,15
 261 784 261 784 233 770 c 0,16,17
 225 766 225 766 220 766 c 0,18,19
 207 766 207 766 195 783 c 0,20,21
 187 796 187 796 187 807 c 0,22,23
 187 820 187 820 196 829 c 1,24,25
 248 870 248 870 299 870 c 0,26,27
 334 870 334 870 368 857 c 0,28,29
 401 844 401 844 422 844 c 0,30,31
 450 844 450 844 476 859 c 0,0,1
371 702 m 2,32,33
 421 702 421 702 426 681 c 2,34,-1
 584 38 l 2,35,36
 587 29 587 29 587 21 c 0,37,38
 587 -2 587 -2 533 -2 c 2,39,-1
 489 -2 l 2,40,41
 440 -2 440 -2 435 19 c 2,42,-1
 406 141 l 1,43,-1
 164 141 l 1,44,-1
 109 19 l 2,45,46
 99 -2 99 -2 61 -2 c 2,47,-1
 21 -2 l 2,48,49
 -37 -2 -37 -2 -37 18 c 0,50,51
 -37 26 -37 26 -31 38 c 2,52,-1
 260 681 l 2,53,54
 269 702 269 702 319 702 c 2,55,-1
 371 702 l 2,32,33
323 515 m 1,56,57
 311 474 311 474 301 451 c 2,58,-1
 221 273 l 1,59,-1
 375 273 l 1,60,-1
 335 451 l 2,61,62
 329 477 329 477 327 515 c 1,63,-1
 323 515 l 1,56,57
EndSplineSet
Validated: 1
Position2: "'cpsp' Capital Spacing lookup 3 subtable" dx=5 dy=0 dh=10 dv=0
EndChar

StartChar: AE
Encoding: 198 198 24
Width: 915
Flags: MW
HStem: 0 131<456 813 579 801> 141 132<262 416 262 426 183 416> 293 131<565 804 565 565> 569 131<540 860 540 540>
VStem: 406 140
LayerCount: 2
UndoRedoHistory
Layer: 1
Undoes
EndUndoes
Redoes
EndRedoes
EndUndoRedoHistory
Fore
SplineSet
872 700 m 2,0,1
 898 700 898 700 898 660 c 0,2,3
 898 569 898 569 860 569 c 2,4,-1
 540 569 l 1,5,-1
 552 424 l 1,6,-1
 816 424 l 2,7,8
 842 424 842 424 842 384 c 0,9,10
 842 293 842 293 804 293 c 2,11,-1
 565 293 l 1,12,-1
 579 131 l 1,13,-1
 813 131 l 2,14,15
 839 131 839 131 839 91 c 0,16,17
 839 0 839 0 801 0 c 2,18,-1
 467 0 l 2,19,20
 451 0 451 0 444 7 c 128,-1,21
 437 14 437 14 435 30 c 2,22,-1
 426 141 l 1,23,-1
 183 141 l 1,24,-1
 110 19 l 1,25,26
 96 -2 96 -2 62 -2 c 2,27,-1
 25 -2 l 2,28,29
 -35 -2 -35 -2 -35 20 c 0,30,31
 -35 27 -35 27 -27 38 c 1,32,-1
 360 673 l 2,33,34
 377 700 377 700 406 700 c 2,35,-1
 872 700 l 2,0,1
406 537 m 1,36,-1
 370 455 l 1,37,-1
 262 273 l 1,38,-1
 416 273 l 1,39,-1
 402 454 l 1,40,-1
 410 537 l 1,41,-1
 406 537 l 1,36,-1
EndSplineSet
Validated: 1
Position2: "'cpsp' Capital Spacing lookup 3 subtable" dx=5 dy=0 dh=10 dv=0
EndChar

StartChar: AEacute
Encoding: 508 508 25
Width: 915
Flags: MW
HStem: 0 131<456 813 579 801> 141 132<262 416 262 426 183 416> 293 131<565 804 565 565> 569 131<540 860 540 540> 752 159<419 585>
VStem: 406 140
LayerCount: 2
UndoRedoHistory
Layer: 1
Undoes
EndUndoes
Redoes
EndRedoes
EndUndoRedoHistory
Fore
SplineSet
566 911 m 0,0,1
 624 911 624 911 624 898 c 0,2,3
 624 891 624 891 619.5 885.5 c 128,-1,4
 615 880 615 880 584 851 c 0,5,6
 572 839 572 839 564 831.5 c 128,-1,7
 556 824 556 824 540 808.5 c 128,-1,8
 524 793 524 793 508 777 c 0,9,10
 483 752 483 752 430 752 c 0,11,12
 401 752 401 752 401 765 c 0,13,14
 401 768 401 768 403 772.5 c 128,-1,15
 405 777 405 777 411.5 786.5 c 128,-1,16
 418 796 418 796 425.5 807 c 128,-1,17
 433 818 433 818 448 839.5 c 128,-1,18
 463 861 463 861 478 884 c 0,19,20
 496 911 496 911 566 911 c 0,0,1
872 700 m 2,21,22
 898 700 898 700 898 660 c 0,23,24
 898 569 898 569 860 569 c 2,25,-1
 540 569 l 1,26,-1
 552 424 l 1,27,-1
 816 424 l 2,28,29
 842 424 842 424 842 384 c 0,30,31
 842 293 842 293 804 293 c 2,32,-1
 565 293 l 1,33,-1
 579 131 l 1,34,-1
 813 131 l 2,35,36
 839 131 839 131 839 91 c 0,37,38
 839 0 839 0 801 0 c 2,39,-1
 467 0 l 2,40,41
 451 0 451 0 444 7 c 128,-1,42
 437 14 437 14 435 30 c 2,43,-1
 426 141 l 1,44,-1
 183 141 l 1,45,-1
 110 19 l 1,46,47
 96 -2 96 -2 62 -2 c 2,48,-1
 25 -2 l 2,49,50
 -35 -2 -35 -2 -35 20 c 0,51,52
 -35 27 -35 27 -27 38 c 1,53,-1
 360 673 l 2,54,55
 377 700 377 700 406 700 c 2,56,-1
 872 700 l 2,21,22
370 455 m 1,57,-1
 262 273 l 1,58,-1
 416 273 l 1,59,-1
 402 454 l 1,60,-1
 410 537 l 1,61,-1
 406 537 l 1,62,-1
 370 455 l 1,57,-1
EndSplineSet
Validated: 1
Position2: "'cpsp' Capital Spacing lookup 3 subtable" dx=5 dy=0 dh=10 dv=0
EndChar

StartChar: B
Encoding: 66 66 26
Width: 593
Flags: MW
HStem: 0 131<62.5 301 203 288> 290 131<220 303 234 302> 570 130<250 250 250 321>
VStem: 402 158<192 244> 404 162<506.5 528>
LayerCount: 2
UndoRedoHistory
Layer: 1
Undoes
EndUndoes
Redoes
EndRedoes
EndUndoRedoHistory
Fore
SplineSet
347 700 m 2,0,1
 460 700 460 700 513 659 c 128,-1,2
 566 618 566 618 566 546 c 0,3,4
 566 488 566 488 531 440.5 c 128,-1,5
 496 393 496 393 441 371 c 1,6,-1
 441 367 l 1,7,8
 495 356 495 356 527.5 314.5 c 128,-1,9
 560 273 560 273 560 220 c 0,10,11
 560 115 560 115 488 57.5 c 128,-1,12
 416 0 416 0 288 0 c 2,13,-1
 76 0 l 2,14,15
 56 0 56 0 48 7 c 128,-1,16
 40 14 40 14 40 32 c 0,17,18
 40 36 40 36 48 115 c 0,19,20
 73 349 73 349 105 660 c 0,21,22
 109 700 109 700 149 700 c 2,23,-1
 347 700 l 2,0,1
250 570 m 1,24,-1
 234 421 l 1,25,-1
 303 421 l 2,26,27
 350 421 350 421 377 445.5 c 128,-1,28
 404 470 404 470 404 507 c 0,29,30
 404 570 404 570 321 570 c 2,31,-1
 250 570 l 1,24,-1
220 290 m 1,32,-1
 203 131 l 1,33,-1
 301 131 l 2,34,35
 347 131 347 131 374.5 154.5 c 128,-1,36
 402 178 402 178 402 221 c 0,37,38
 402 290 402 290 302 290 c 2,39,-1
 220 290 l 1,32,-1
EndSplineSet
Validated: 1
Position2: "'cpsp' Capital Spacing lookup 3 subtable" dx=5 dy=0 dh=10 dv=0
EndChar

StartChar: C
Encoding: 67 67 27
Width: 619
Flags: MW
HStem: -8 131<300.5 361.5> 576 132<336 447.5>
VStem: 42 159<240.5 390.5 240.5 391>
LayerCount: 2
UndoRedoHistory
Layer: 1
Undoes
EndUndoes
Redoes
EndRedoes
EndUndoRedoHistory
Fore
SplineSet
417 708 m 0,0,1
 488 708 488 708 553.5 688.5 c 128,-1,2
 619 669 619 669 619 640 c 0,3,4
 619 619 619 619 590.5 581.5 c 128,-1,5
 562 544 562 544 544 544 c 0,6,7
 541 544 541 544 524.5 552 c 128,-1,8
 508 560 508 560 475 568 c 128,-1,9
 442 576 442 576 400 576 c 0,10,11
 303 576 303 576 252 506 c 128,-1,12
 201 436 201 436 201 298 c 0,13,14
 201 123 201 123 351 123 c 0,15,16
 401 123 401 123 447.5 136.5 c 128,-1,17
 494 150 494 150 521.5 164 c 128,-1,18
 549 178 549 178 552 178 c 0,19,20
 564 178 564 178 564 163 c 0,21,22
 564 121 564 121 554 68 c 0,23,24
 546 28 546 28 472 10 c 128,-1,25
 398 -8 398 -8 337 -8 c 0,26,27
 187 -8 187 -8 114.5 61.5 c 128,-1,28
 42 131 42 131 42 276 c 0,29,30
 42 367 42 367 61.5 441.5 c 128,-1,31
 81 516 81 516 122.5 577.5 c 128,-1,32
 164 639 164 639 239 673.5 c 128,-1,33
 314 708 314 708 417 708 c 0,0,1
EndSplineSet
Validated: 1
Position2: "'cpsp' Capital Spacing lookup 3 subtable" dx=5 dy=0 dh=10 dv=0
EndChar

StartChar: Cacute
Encoding: 262 262 28
Width: 619
Flags: MW
HStem: -8 131<300.5 361.5> 576 132<336 447.5> 752 159<360 526>
VStem: 42 159<240.5 390.5 240.5 391>
LayerCount: 2
UndoRedoHistory
Layer: 1
Undoes
EndUndoes
Redoes
EndRedoes
EndUndoRedoHistory
Fore
SplineSet
507 911 m 0,0,1
 565 911 565 911 565 898 c 0,2,3
 565 891 565 891 560.5 885.5 c 128,-1,4
 556 880 556 880 525 851 c 0,5,6
 484 811 484 811 449 777 c 0,7,8
 424 752 424 752 371 752 c 0,9,10
 342 752 342 752 342 765 c 0,11,12
 342 768 342 768 344 772.5 c 128,-1,13
 346 777 346 777 352.5 786.5 c 128,-1,14
 359 796 359 796 366.5 807 c 128,-1,15
 374 818 374 818 389 839.5 c 128,-1,16
 404 861 404 861 419 884 c 0,17,18
 437 911 437 911 507 911 c 0,0,1
417 708 m 0,19,20
 488 708 488 708 553.5 688.5 c 128,-1,21
 619 669 619 669 619 640 c 0,22,23
 619 619 619 619 590.5 581.5 c 128,-1,24
 562 544 562 544 544 544 c 0,25,26
 541 544 541 544 524.5 552 c 128,-1,27
 508 560 508 560 475 568 c 128,-1,28
 442 576 442 576 400 576 c 0,29,30
 303 576 303 576 252 506 c 128,-1,31
 201 436 201 436 201 298 c 0,32,33
 201 123 201 123 351 123 c 0,34,35
 401 123 401 123 447.5 136.5 c 128,-1,36
 494 150 494 150 521.5 164 c 128,-1,37
 549 178 549 178 552 178 c 0,38,39
 564 178 564 178 564 163 c 0,40,41
 564 121 564 121 554 68 c 0,42,43
 546 28 546 28 472 10 c 128,-1,44
 398 -8 398 -8 337 -8 c 0,45,46
 187 -8 187 -8 114.5 61.5 c 128,-1,47
 42 131 42 131 42 276 c 0,48,49
 42 367 42 367 61.5 441.5 c 128,-1,50
 81 516 81 516 122.5 577.5 c 128,-1,51
 164 639 164 639 239 673.5 c 128,-1,52
 314 708 314 708 417 708 c 0,19,20
EndSplineSet
Validated: 1
Substitution2: "'locl' Localized Forms in Latin lookup 12 subtable" Cacute.loclPLK
Substitution2: "'aalt' Access All Alternates lookup 0 subtable" Cacute.loclPLK
Position2: "'cpsp' Capital Spacing lookup 3 subtable" dx=5 dy=0 dh=10 dv=0
EndChar

StartChar: Ccaron
Encoding: 268 268 29
Width: 619
Flags: MW
HStem: -8 131<300.5 361.5> 576 132<336 447.5> 749 146<298 395 298 406>
VStem: 42 159<240.5 390.5 240.5 391>
LayerCount: 2
UndoRedoHistory
Layer: 1
Undoes
EndUndoes
Redoes
EndRedoes
EndUndoRedoHistory
Fore
SplineSet
533 895 m 2,0,1
 552 895 552 895 552 885 c 0,2,3
 552 878 552 878 545 870 c 2,4,-1
 469 768 l 2,5,6
 455 749 455 749 406 749 c 2,7,-1
 395 749 l 2,8,9
 347 749 347 749 336 768 c 2,10,-1
 282 870 l 1,11,12
 279 878 279 878 279 882 c 0,13,14
 279 895 279 895 298 895 c 2,15,-1
 320 895 l 2,16,17
 368 895 368 895 384 871 c 2,18,-1
 409 831 l 1,19,-1
 440 870 l 2,20,21
 458 893 458 893 509 895 c 1,22,-1
 533 895 l 2,0,1
417 708 m 0,23,24
 488 708 488 708 553.5 688.5 c 128,-1,25
 619 669 619 669 619 640 c 0,26,27
 619 619 619 619 590.5 581.5 c 128,-1,28
 562 544 562 544 544 544 c 0,29,30
 541 544 541 544 524.5 552 c 128,-1,31
 508 560 508 560 475 568 c 128,-1,32
 442 576 442 576 400 576 c 0,33,34
 303 576 303 576 252 506 c 128,-1,35
 201 436 201 436 201 298 c 0,36,37
 201 123 201 123 351 123 c 0,38,39
 401 123 401 123 447.5 136.5 c 128,-1,40
 494 150 494 150 521.5 164 c 128,-1,41
 549 178 549 178 552 178 c 0,42,43
 564 178 564 178 564 163 c 0,44,45
 564 121 564 121 554 68 c 0,46,47
 546 28 546 28 472 10 c 128,-1,48
 398 -8 398 -8 337 -8 c 0,49,50
 187 -8 187 -8 114.5 61.5 c 128,-1,51
 42 131 42 131 42 276 c 0,52,53
 42 367 42 367 61.5 441.5 c 128,-1,54
 81 516 81 516 122.5 577.5 c 128,-1,55
 164 639 164 639 239 673.5 c 128,-1,56
 314 708 314 708 417 708 c 0,23,24
EndSplineSet
Validated: 1
Position2: "'cpsp' Capital Spacing lookup 3 subtable" dx=5 dy=0 dh=10 dv=0
EndChar

StartChar: Ccedilla
Encoding: 199 199 30
Width: 619
Flags: MW
HStem: -212 73<256.5 280 248 311> -8 131<341 341> -5 21G 576 132<336 447.5>
VStem: 42 159<240.5 390.5 240.5 391> 296 104
LayerCount: 2
UndoRedoHistory
Layer: 1
Undoes
EndUndoes
Redoes
EndRedoes
EndUndoRedoHistory
Fore
SplineSet
330 -35 m 1,0,1
 358 -40 358 -40 379 -59 c 128,-1,2
 400 -78 400 -78 400 -110 c 0,3,4
 400 -160 400 -160 366 -186 c 128,-1,5
 332 -212 332 -212 271 -212 c 0,6,7
 257 -212 257 -212 242.5 -210.5 c 128,-1,8
 228 -209 228 -209 209.5 -204 c 128,-1,9
 191 -199 191 -199 179.5 -187.5 c 128,-1,10
 168 -176 168 -176 168 -160 c 0,11,12
 168 -112 168 -112 182 -112 c 0,13,14
 184 -112 184 -112 214 -125.5 c 128,-1,15
 244 -139 244 -139 271 -139 c 0,16,17
 294 -139 294 -139 296 -122 c 1,18,19
 296 -110 296 -110 272 -98 c 128,-1,20
 248 -86 248 -86 248 -74 c 0,21,22
 248 -67 248 -67 275 -5 c 1,23,24
 156 9 156 9 99 77.5 c 128,-1,25
 42 146 42 146 42 276 c 0,26,27
 42 367 42 367 61.5 441.5 c 128,-1,28
 81 516 81 516 122.5 577.5 c 128,-1,29
 164 639 164 639 239 673.5 c 128,-1,30
 314 708 314 708 417 708 c 0,31,32
 488 708 488 708 553.5 688.5 c 128,-1,33
 619 669 619 669 619 640 c 0,34,35
 619 619 619 619 590.5 581.5 c 128,-1,36
 562 544 562 544 544 544 c 0,37,38
 541 544 541 544 524.5 552 c 128,-1,39
 508 560 508 560 475 568 c 128,-1,40
 442 576 442 576 400 576 c 0,41,42
 303 576 303 576 252 506 c 128,-1,43
 201 436 201 436 201 298 c 0,44,45
 201 123 201 123 351 123 c 0,46,47
 401 123 401 123 447.5 136.5 c 128,-1,48
 494 150 494 150 521.5 164 c 128,-1,49
 549 178 549 178 552 178 c 0,50,51
 564 178 564 178 564 163 c 0,52,53
 564 121 564 121 554 68 c 0,54,55
 546 29 546 29 475.5 11 c 128,-1,56
 405 -7 405 -7 341 -8 c 1,57,-1
 330 -35 l 1,0,1
EndSplineSet
Validated: 1
Position2: "'cpsp' Capital Spacing lookup 3 subtable" dx=5 dy=0 dh=10 dv=0
EndChar

StartChar: Ccircumflex
Encoding: 264 264 31
Width: 619
Flags: MW
HStem: -8 131<300.5 361.5> 576 132<336 447.5> 749 146<276 420 282 420 409 495 409 517>
VStem: 42 159<240.5 390.5 240.5 391>
LayerCount: 2
UndoRedoHistory
Layer: 1
Undoes
EndUndoes
Redoes
EndRedoes
EndUndoRedoHistory
Fore
SplineSet
420 895 m 2,0,1
 468 895 468 895 479 876 c 2,2,-1
 533 774 l 1,3,4
 536 766 536 766 536 762 c 0,5,6
 536 749 536 749 517 749 c 2,7,-1
 495 749 l 2,8,9
 446 749 446 749 431 773 c 2,10,-1
 406 813 l 1,11,-1
 375 774 l 2,12,13
 356 749 356 749 306 749 c 2,14,-1
 282 749 l 2,15,16
 263 749 263 749 263 759 c 0,17,18
 263 766 263 766 270 774 c 2,19,-1
 346 876 l 2,20,21
 360 895 360 895 409 895 c 2,22,-1
 420 895 l 2,0,1
417 708 m 0,23,24
 488 708 488 708 553.5 688.5 c 128,-1,25
 619 669 619 669 619 640 c 0,26,27
 619 619 619 619 590.5 581.5 c 128,-1,28
 562 544 562 544 544 544 c 0,29,30
 541 544 541 544 524.5 552 c 128,-1,31
 508 560 508 560 475 568 c 128,-1,32
 442 576 442 576 400 576 c 0,33,34
 303 576 303 576 252 506 c 128,-1,35
 201 436 201 436 201 298 c 0,36,37
 201 123 201 123 351 123 c 0,38,39
 401 123 401 123 447.5 136.5 c 128,-1,40
 494 150 494 150 521.5 164 c 128,-1,41
 549 178 549 178 552 178 c 0,42,43
 564 178 564 178 564 163 c 0,44,45
 564 121 564 121 554 68 c 0,46,47
 546 28 546 28 472 10 c 128,-1,48
 398 -8 398 -8 337 -8 c 0,49,50
 187 -8 187 -8 114.5 61.5 c 128,-1,51
 42 131 42 131 42 276 c 0,52,53
 42 367 42 367 61.5 441.5 c 128,-1,54
 81 516 81 516 122.5 577.5 c 128,-1,55
 164 639 164 639 239 673.5 c 128,-1,56
 314 708 314 708 417 708 c 0,23,24
EndSplineSet
Validated: 1
Position2: "'cpsp' Capital Spacing lookup 3 subtable" dx=5 dy=0 dh=10 dv=0
EndChar

StartChar: Cdotaccent
Encoding: 266 266 32
Width: 619
Flags: MW
HStem: -8 131<300.5 361.5> 576 132<336 447.5> 755 124<384 412>
VStem: 42 159<240.5 390.5 240.5 391> 335 127<776.5 857.5>
LayerCount: 2
UndoRedoHistory
Layer: 1
Undoes
EndUndoes
Redoes
EndRedoes
EndUndoRedoHistory
Fore
SplineSet
342 847 m 2,0,1
 345 879 345 879 405 879 c 0,2,3
 462 879 462 879 462 847 c 1,4,-1
 455 787 l 1,5,6
 450 755 450 755 392 755 c 0,7,8
 335 755 335 755 335 787 c 1,9,-1
 342 847 l 2,0,1
417 708 m 0,10,11
 488 708 488 708 553.5 688.5 c 128,-1,12
 619 669 619 669 619 640 c 0,13,14
 619 619 619 619 590.5 581.5 c 128,-1,15
 562 544 562 544 544 544 c 0,16,17
 541 544 541 544 524.5 552 c 128,-1,18
 508 560 508 560 475 568 c 128,-1,19
 442 576 442 576 400 576 c 0,20,21
 303 576 303 576 252 506 c 128,-1,22
 201 436 201 436 201 298 c 0,23,24
 201 123 201 123 351 123 c 0,25,26
 401 123 401 123 447.5 136.5 c 128,-1,27
 494 150 494 150 521.5 164 c 128,-1,28
 549 178 549 178 552 178 c 0,29,30
 564 178 564 178 564 163 c 0,31,32
 564 121 564 121 554 68 c 0,33,34
 546 28 546 28 472 10 c 128,-1,35
 398 -8 398 -8 337 -8 c 0,36,37
 187 -8 187 -8 114.5 61.5 c 128,-1,38
 42 131 42 131 42 276 c 0,39,40
 42 367 42 367 61.5 441.5 c 128,-1,41
 81 516 81 516 122.5 577.5 c 128,-1,42
 164 639 164 639 239 673.5 c 128,-1,43
 314 708 314 708 417 708 c 0,10,11
EndSplineSet
Validated: 1
Position2: "'cpsp' Capital Spacing lookup 3 subtable" dx=5 dy=0 dh=10 dv=0
EndChar

StartChar: D
Encoding: 68 68 33
Width: 695
Flags: MW
HStem: 0 131<62.5 313 204 300> 569 131<251 251 251 360>
VStem: 501 159<311 453>
LayerCount: 2
UndoRedoHistory
Layer: 1
Undoes
EndUndoes
Redoes
EndRedoes
EndUndoRedoHistory
Fore
SplineSet
373 700 m 2,0,1
 513 700 513 700 586.5 625.5 c 128,-1,2
 660 551 660 551 660 411 c 0,3,4
 660 215 660 215 563.5 107.5 c 128,-1,5
 467 0 467 0 300 0 c 2,6,-1
 76 0 l 2,7,8
 56 0 56 0 48 7.5 c 128,-1,9
 40 15 40 15 40 33 c 0,10,11
 40 42 40 42 105 660 c 0,12,13
 109 700 109 700 149 700 c 2,14,-1
 373 700 l 2,0,1
251 569 m 1,15,-1
 204 131 l 1,16,-1
 313 131 l 2,17,18
 400 131 400 131 450.5 200.5 c 128,-1,19
 501 270 501 270 501 397 c 0,20,21
 501 569 501 569 360 569 c 2,22,-1
 251 569 l 1,15,-1
EndSplineSet
Validated: 1
Position2: "'cpsp' Capital Spacing lookup 3 subtable" dx=5 dy=0 dh=10 dv=0
EndChar

StartChar: DZ
Encoding: 497 497 34
Width: 1311
Flags: MW
HStem: 0 131<62.5 313 204 300 914 1207> 569 131<251 360 251 251 814 1080>
VStem: 501 159<311 453>
LayerCount: 2
UndoRedoHistory
Layer: 1
Undoes
EndUndoes
Redoes
EndRedoes
EndUndoRedoHistory
Fore
SplineSet
373 700 m 2,0,1
 513 700 513 700 586.5 625.5 c 128,-1,2
 660 551 660 551 660 411 c 0,3,4
 660 215 660 215 563.5 107.5 c 128,-1,5
 467 0 467 0 300 0 c 2,6,-1
 76 0 l 2,7,8
 56 0 56 0 48 7.5 c 128,-1,9
 40 15 40 15 40 33 c 0,10,11
 40 42 40 42 105 660 c 0,12,13
 109 700 109 700 149 700 c 2,14,-1
 373 700 l 2,0,1
1267 700 m 2,15,16
 1280 700 1280 700 1289.5 669 c 128,-1,17
 1299 638 1299 638 1299 613 c 0,18,19
 1299 601 1299 601 1296 598 c 2,20,-1
 914 131 l 1,21,-1
 1219 131 l 2,22,23
 1245 131 1245 131 1245 91 c 0,24,25
 1245 0 1245 0 1207 0 c 2,26,-1
 728 0 l 2,27,28
 715 0 715 0 705.5 31 c 128,-1,29
 696 62 696 62 696 87 c 0,30,31
 696 99 696 99 699 102 c 2,32,-1
 1080 569 l 1,33,-1
 802 569 l 2,34,35
 776 569 776 569 776 609 c 0,36,37
 776 700 776 700 814 700 c 2,38,-1
 1267 700 l 2,15,16
204 131 m 1,39,-1
 313 131 l 2,40,41
 400 131 400 131 450.5 200.5 c 128,-1,42
 501 270 501 270 501 397 c 0,43,44
 501 569 501 569 360 569 c 2,45,-1
 251 569 l 1,46,-1
 204 131 l 1,39,-1
EndSplineSet
Validated: 1
Position2: "'cpsp' Capital Spacing lookup 3 subtable" dx=5 dy=0 dh=10 dv=0
EndChar

StartChar: DZcaron
Encoding: 452 452 35
Width: 1311
Flags: MW
HStem: 0 131<62.5 313 204 300 914 1207> 569 131<251 360 251 251 814 1080> 749 146<926 1023 926 1034>
VStem: 501 159<311 453>
LayerCount: 2
UndoRedoHistory
Layer: 1
Undoes
EndUndoes
Redoes
EndRedoes
EndUndoRedoHistory
Fore
SplineSet
373 700 m 2,0,1
 513 700 513 700 586.5 625.5 c 128,-1,2
 660 551 660 551 660 411 c 0,3,4
 660 215 660 215 563.5 107.5 c 128,-1,5
 467 0 467 0 300 0 c 2,6,-1
 76 0 l 2,7,8
 56 0 56 0 48 7.5 c 128,-1,9
 40 15 40 15 40 33 c 0,10,11
 40 42 40 42 105 660 c 0,12,13
 109 700 109 700 149 700 c 2,14,-1
 373 700 l 2,0,1
204 131 m 1,15,-1
 313 131 l 2,16,17
 400 131 400 131 450.5 200.5 c 128,-1,18
 501 270 501 270 501 397 c 0,19,20
 501 569 501 569 360 569 c 2,21,-1
 251 569 l 1,22,-1
 204 131 l 1,15,-1
1161 895 m 2,23,24
 1180 895 1180 895 1180 885 c 0,25,26
 1180 878 1180 878 1173 870 c 2,27,-1
 1097 768 l 2,28,29
 1083 749 1083 749 1034 749 c 2,30,-1
 1023 749 l 2,31,32
 975 749 975 749 964 768 c 2,33,-1
 910 870 l 1,34,35
 907 878 907 878 907 882 c 0,36,37
 907 895 907 895 926 895 c 2,38,-1
 948 895 l 2,39,40
 996 895 996 895 1012 871 c 2,41,-1
 1037 831 l 1,42,-1
 1068 870 l 2,43,44
 1086 893 1086 893 1137 895 c 1,45,-1
 1161 895 l 2,23,24
1267 700 m 2,46,47
 1280 700 1280 700 1289.5 669 c 128,-1,48
 1299 638 1299 638 1299 613 c 0,49,50
 1299 601 1299 601 1296 598 c 2,51,-1
 914 131 l 1,52,-1
 1219 131 l 2,53,54
 1245 131 1245 131 1245 91 c 0,55,56
 1245 0 1245 0 1207 0 c 2,57,-1
 728 0 l 2,58,59
 715 0 715 0 705.5 31 c 128,-1,60
 696 62 696 62 696 87 c 0,61,62
 696 99 696 99 699 102 c 2,63,-1
 1080 569 l 1,64,-1
 802 569 l 2,65,66
 776 569 776 569 776 609 c 0,67,68
 776 700 776 700 814 700 c 2,69,-1
 1267 700 l 2,46,47
EndSplineSet
Validated: 1
Position2: "'cpsp' Capital Spacing lookup 3 subtable" dx=5 dy=0 dh=10 dv=0
EndChar

StartChar: Eth
Encoding: 208 208 36
Width: 696
Flags: MW
HStem: 0 131<62.5 313 204 300> 290 131<26 80 47 66 235 280> 569 131<251 360 251 251>
VStem: 501 159<311 453>
LayerCount: 2
UndoRedoHistory
Layer: 1
Undoes
EndUndoes
Redoes
EndRedoes
EndUndoRedoHistory
Fore
SplineSet
373 700 m 2,0,1
 513 700 513 700 586.5 625.5 c 128,-1,2
 660 551 660 551 660 411 c 0,3,4
 660 215 660 215 563.5 107.5 c 128,-1,5
 467 0 467 0 300 0 c 2,6,-1
 76 0 l 2,7,8
 56 0 56 0 48 7.5 c 128,-1,9
 40 15 40 15 40 33 c 0,10,11
 40 36 40 36 66 290 c 1,12,-1
 35 290 l 2,13,14
 9 290 9 290 9 330 c 0,15,16
 9 421 9 421 47 421 c 2,17,-1
 80 421 l 1,18,-1
 105 660 l 2,19,20
 109 700 109 700 149 700 c 2,21,-1
 373 700 l 2,0,1
313 131 m 2,22,23
 400 131 400 131 450.5 200.5 c 128,-1,24
 501 270 501 270 501 397 c 0,25,26
 501 569 501 569 360 569 c 2,27,-1
 251 569 l 1,28,-1
 235 421 l 1,29,-1
 292 421 l 2,30,31
 318 421 318 421 318 381 c 0,32,33
 318 290 318 290 280 290 c 2,34,-1
 221 290 l 1,35,-1
 204 131 l 1,36,-1
 313 131 l 2,22,23
EndSplineSet
Validated: 1
Position2: "'cpsp' Capital Spacing lookup 3 subtable" dx=5 dy=0 dh=10 dv=0
EndChar

StartChar: Dcaron
Encoding: 270 270 37
Width: 695
Flags: MW
HStem: 0 131<62.5 313 204 300> 569 131<251 360 251 251> 749 146<247 344 247 355>
VStem: 501 159<311 453>
LayerCount: 2
UndoRedoHistory
Layer: 1
Undoes
EndUndoes
Redoes
EndRedoes
EndUndoRedoHistory
Fore
SplineSet
482 895 m 2,0,1
 501 895 501 895 501 885 c 0,2,3
 501 878 501 878 494 870 c 2,4,-1
 418 768 l 2,5,6
 404 749 404 749 355 749 c 2,7,-1
 344 749 l 2,8,9
 296 749 296 749 285 768 c 2,10,-1
 231 870 l 1,11,12
 228 878 228 878 228 882 c 0,13,14
 228 895 228 895 247 895 c 2,15,-1
 269 895 l 2,16,17
 317 895 317 895 333 871 c 2,18,-1
 358 831 l 1,19,-1
 389 870 l 2,20,21
 407 893 407 893 458 895 c 1,22,-1
 482 895 l 2,0,1
373 700 m 2,23,24
 513 700 513 700 586.5 625.5 c 128,-1,25
 660 551 660 551 660 411 c 0,26,27
 660 215 660 215 563.5 107.5 c 128,-1,28
 467 0 467 0 300 0 c 2,29,-1
 76 0 l 2,30,31
 56 0 56 0 48 7.5 c 128,-1,32
 40 15 40 15 40 33 c 0,33,34
 40 42 40 42 105 660 c 0,35,36
 109 700 109 700 149 700 c 2,37,-1
 373 700 l 2,23,24
204 131 m 1,38,-1
 313 131 l 2,39,40
 400 131 400 131 450.5 200.5 c 128,-1,41
 501 270 501 270 501 397 c 0,42,43
 501 569 501 569 360 569 c 2,44,-1
 251 569 l 1,45,-1
 204 131 l 1,38,-1
EndSplineSet
Validated: 1
Position2: "'cpsp' Capital Spacing lookup 3 subtable" dx=5 dy=0 dh=10 dv=0
EndChar

StartChar: Dcroat
Encoding: 272 272 38
Width: 696
Flags: MW
HStem: 0 131<62.5 313 204 300> 290 131<26 80 47 66 235 280> 569 131<251 360 251 251>
VStem: 501 159<311 453>
LayerCount: 2
UndoRedoHistory
Layer: 1
Undoes
EndUndoes
Redoes
EndRedoes
EndUndoRedoHistory
Fore
SplineSet
373 700 m 2,0,1
 513 700 513 700 586.5 625.5 c 128,-1,2
 660 551 660 551 660 411 c 0,3,4
 660 215 660 215 563.5 107.5 c 128,-1,5
 467 0 467 0 300 0 c 2,6,-1
 76 0 l 2,7,8
 56 0 56 0 48 7.5 c 128,-1,9
 40 15 40 15 40 33 c 0,10,11
 40 36 40 36 66 290 c 1,12,-1
 35 290 l 2,13,14
 9 290 9 290 9 330 c 0,15,16
 9 421 9 421 47 421 c 2,17,-1
 80 421 l 1,18,-1
 105 660 l 2,19,20
 109 700 109 700 149 700 c 2,21,-1
 373 700 l 2,0,1
313 131 m 2,22,23
 400 131 400 131 450.5 200.5 c 128,-1,24
 501 270 501 270 501 397 c 0,25,26
 501 569 501 569 360 569 c 2,27,-1
 251 569 l 1,28,-1
 235 421 l 1,29,-1
 292 421 l 2,30,31
 318 421 318 421 318 381 c 0,32,33
 318 290 318 290 280 290 c 2,34,-1
 221 290 l 1,35,-1
 204 131 l 1,36,-1
 313 131 l 2,22,23
EndSplineSet
Validated: 1
Position2: "'cpsp' Capital Spacing lookup 3 subtable" dx=5 dy=0 dh=10 dv=0
EndChar

StartChar: Ddotbelow
Encoding: 7692 7692 39
Width: 695
Flags: MW
HStem: -204 124<259 287> 0 131<62.5 313 204 300> 569 131<251 360 251 251>
VStem: 210 127<-182.5 -101.5> 501 159<311 453>
LayerCount: 2
UndoRedoHistory
Layer: 1
Undoes
EndUndoes
Redoes
EndRedoes
EndUndoRedoHistory
Fore
SplineSet
373 700 m 2,0,1
 513 700 513 700 586.5 625.5 c 128,-1,2
 660 551 660 551 660 411 c 0,3,4
 660 215 660 215 563.5 107.5 c 128,-1,5
 467 0 467 0 300 0 c 2,6,-1
 76 0 l 2,7,8
 56 0 56 0 48 7.5 c 128,-1,9
 40 15 40 15 40 33 c 0,10,11
 40 42 40 42 105 660 c 0,12,13
 109 700 109 700 149 700 c 2,14,-1
 373 700 l 2,0,1
204 131 m 1,15,-1
 313 131 l 2,16,17
 400 131 400 131 450.5 200.5 c 128,-1,18
 501 270 501 270 501 397 c 0,19,20
 501 569 501 569 360 569 c 2,21,-1
 251 569 l 1,22,-1
 204 131 l 1,15,-1
217 -112 m 2,23,24
 220 -80 220 -80 280 -80 c 0,25,26
 337 -80 337 -80 337 -112 c 1,27,-1
 330 -172 l 1,28,29
 325 -204 325 -204 267 -204 c 0,30,31
 210 -204 210 -204 210 -172 c 1,32,-1
 217 -112 l 2,23,24
EndSplineSet
Validated: 1
Position2: "'cpsp' Capital Spacing lookup 3 subtable" dx=5 dy=0 dh=10 dv=0
EndChar

StartChar: Dz
Encoding: 498 498 40
Width: 1184
Flags: MW
HStem: 0 117<902 1097> 0 131<62.5 313 204 300> 406 117<770 1143 791 967> 569 131<251 360 251 251>
VStem: 501 159<311 453>
LayerCount: 2
UndoRedoHistory
Layer: 1
Undoes
EndUndoes
Redoes
EndRedoes
EndUndoRedoHistory
Fore
SplineSet
373 700 m 2,0,1
 513 700 513 700 586.5 625.5 c 128,-1,2
 660 551 660 551 660 411 c 0,3,4
 660 215 660 215 563.5 107.5 c 128,-1,5
 467 0 467 0 300 0 c 2,6,-1
 76 0 l 2,7,8
 56 0 56 0 48 7.5 c 128,-1,9
 40 15 40 15 40 33 c 0,10,11
 40 42 40 42 105 660 c 0,12,13
 109 700 109 700 149 700 c 2,14,-1
 373 700 l 2,0,1
204 131 m 1,15,-1
 313 131 l 2,16,17
 400 131 400 131 450.5 200.5 c 128,-1,18
 501 270 501 270 501 397 c 0,19,20
 501 569 501 569 360 569 c 2,21,-1
 251 569 l 1,22,-1
 204 131 l 1,15,-1
1143 523 m 2,23,24
 1152 523 1152 523 1159.5 497.5 c 128,-1,25
 1167 472 1167 472 1167 450 c 0,26,27
 1167 435 1167 435 1163 431 c 2,28,-1
 902 117 l 1,29,-1
 1109 117 l 2,30,31
 1135 117 1135 117 1135 81 c 0,32,33
 1135 0 1135 0 1097 0 c 2,34,-1
 726 0 l 2,35,36
 717 0 717 0 709.5 25.5 c 128,-1,37
 702 51 702 51 702 73 c 0,38,39
 702 88 702 88 706 92 c 2,40,-1
 967 406 l 1,41,-1
 779 406 l 2,42,43
 753 406 753 406 753 442 c 0,44,45
 753 523 753 523 791 523 c 2,46,-1
 1143 523 l 2,23,24
EndSplineSet
Validated: 1
Position2: "'cpsp' Capital Spacing lookup 3 subtable" dx=5 dy=0 dh=10 dv=0
EndChar

StartChar: Dzcaron
Encoding: 453 453 41
Width: 1184
Flags: MW
HStem: 0 117<902 1097> 0 131<62.5 313 204 300> 406 117<770 1143 791 967> 569 131<251 360 251 251> 572 146<879 976 879 987>
VStem: 501 159<311 453>
LayerCount: 2
UndoRedoHistory
Layer: 1
Undoes
EndUndoes
Redoes
EndRedoes
EndUndoRedoHistory
Fore
SplineSet
373 700 m 2,0,1
 513 700 513 700 586.5 625.5 c 128,-1,2
 660 551 660 551 660 411 c 0,3,4
 660 215 660 215 563.5 107.5 c 128,-1,5
 467 0 467 0 300 0 c 2,6,-1
 76 0 l 2,7,8
 56 0 56 0 48 7.5 c 128,-1,9
 40 15 40 15 40 33 c 0,10,11
 40 42 40 42 105 660 c 0,12,13
 109 700 109 700 149 700 c 2,14,-1
 373 700 l 2,0,1
204 131 m 1,15,-1
 313 131 l 2,16,17
 400 131 400 131 450.5 200.5 c 128,-1,18
 501 270 501 270 501 397 c 0,19,20
 501 569 501 569 360 569 c 2,21,-1
 251 569 l 1,22,-1
 204 131 l 1,15,-1
1143 523 m 2,23,24
 1152 523 1152 523 1159.5 497.5 c 128,-1,25
 1167 472 1167 472 1167 450 c 0,26,27
 1167 435 1167 435 1163 431 c 2,28,-1
 902 117 l 1,29,-1
 1109 117 l 2,30,31
 1135 117 1135 117 1135 81 c 0,32,33
 1135 0 1135 0 1097 0 c 2,34,-1
 726 0 l 2,35,36
 717 0 717 0 709.5 25.5 c 128,-1,37
 702 51 702 51 702 73 c 0,38,39
 702 88 702 88 706 92 c 2,40,-1
 967 406 l 1,41,-1
 779 406 l 2,42,43
 753 406 753 406 753 442 c 0,44,45
 753 523 753 523 791 523 c 2,46,-1
 1143 523 l 2,23,24
1114 718 m 2,47,48
 1133 718 1133 718 1133 708 c 0,49,50
 1133 701 1133 701 1126 693 c 2,51,-1
 1050 591 l 2,52,53
 1036 572 1036 572 987 572 c 2,54,-1
 976 572 l 2,55,56
 928 572 928 572 917 591 c 2,57,-1
 863 693 l 1,58,59
 860 701 860 701 860 705 c 0,60,61
 860 718 860 718 879 718 c 2,62,-1
 901 718 l 2,63,64
 949 718 949 718 965 694 c 2,65,-1
 990 654 l 1,66,-1
 1021 693 l 2,67,68
 1039 716 1039 716 1090 718 c 1,69,-1
 1114 718 l 2,47,48
EndSplineSet
Validated: 1
Position2: "'cpsp' Capital Spacing lookup 3 subtable" dx=5 dy=0 dh=10 dv=0
EndChar

StartChar: E
Encoding: 69 69 42
Width: 546
Flags: MW
HStem: 0 131<62.5 456 204 444> 293 131<235 447 222 459> 569 131<251 503 251 251> 660 40
VStem: 40 501
LayerCount: 2
UndoRedoHistory
Layer: 1
Undoes
EndUndoes
Redoes
EndRedoes
EndUndoRedoHistory
Fore
SplineSet
515 700 m 2,0,1
 541 700 541 700 541 660 c 0,2,3
 541 569 541 569 503 569 c 2,4,-1
 251 569 l 1,5,-1
 235 424 l 1,6,-1
 459 424 l 2,7,8
 485 424 485 424 485 384 c 0,9,10
 485 293 485 293 447 293 c 2,11,-1
 222 293 l 1,12,-1
 204 131 l 1,13,-1
 456 131 l 2,14,15
 482 131 482 131 482 91 c 0,16,17
 482 0 482 0 444 0 c 2,18,-1
 76 0 l 2,19,20
 56 0 56 0 48 7 c 128,-1,21
 40 14 40 14 40 32 c 1,22,-1
 105 660 l 2,23,24
 109 700 109 700 149 700 c 2,25,-1
 515 700 l 2,0,1
EndSplineSet
Validated: 1
Position2: "'cpsp' Capital Spacing lookup 3 subtable" dx=5 dy=0 dh=10 dv=0
EndChar

StartChar: Eacute
Encoding: 201 201 43
Width: 546
Flags: MW
HStem: 0 131<62.5 456 204 444> 293 131<235 447 222 459> 569 131<251 503 251 251> 660 40 752 159<289 455>
VStem: 40 501
LayerCount: 2
UndoRedoHistory
Layer: 1
Undoes
EndUndoes
Redoes
EndRedoes
EndUndoRedoHistory
Fore
SplineSet
436 911 m 0,0,1
 494 911 494 911 494 898 c 0,2,3
 494 891 494 891 489.5 885.5 c 128,-1,4
 485 880 485 880 454 851 c 0,5,6
 413 811 413 811 378 777 c 0,7,8
 353 752 353 752 300 752 c 0,9,10
 271 752 271 752 271 765 c 0,11,12
 271 768 271 768 273 772.5 c 128,-1,13
 275 777 275 777 281.5 786.5 c 128,-1,14
 288 796 288 796 295.5 807 c 128,-1,15
 303 818 303 818 318 839.5 c 128,-1,16
 333 861 333 861 348 884 c 0,17,18
 366 911 366 911 436 911 c 0,0,1
515 700 m 2,19,20
 541 700 541 700 541 660 c 0,21,22
 541 569 541 569 503 569 c 2,23,-1
 251 569 l 1,24,-1
 235 424 l 1,25,-1
 459 424 l 2,26,27
 485 424 485 424 485 384 c 0,28,29
 485 293 485 293 447 293 c 2,30,-1
 222 293 l 1,31,-1
 204 131 l 1,32,-1
 456 131 l 2,33,34
 482 131 482 131 482 91 c 0,35,36
 482 0 482 0 444 0 c 2,37,-1
 76 0 l 2,38,39
 56 0 56 0 48 7 c 128,-1,40
 40 14 40 14 40 32 c 1,41,-1
 105 660 l 2,42,43
 109 700 109 700 149 700 c 2,44,-1
 515 700 l 2,19,20
EndSplineSet
Validated: 1
Position2: "'cpsp' Capital Spacing lookup 3 subtable" dx=5 dy=0 dh=10 dv=0
EndChar

StartChar: Ebreve
Encoding: 276 276 44
Width: 546
Flags: MW
HStem: 0 131<62.5 456 204 444> 293 131<235 447 222 459> 569 131<251 503 251 251> 660 40 752 91<315.5 370 315.5 374>
VStem: 40 501
LayerCount: 2
UndoRedoHistory
Layer: 1
Undoes
EndUndoes
Redoes
EndRedoes
EndUndoRedoHistory
Fore
SplineSet
458 892 m 0,0,1
 490 892 490 892 490 868 c 0,2,3
 490 823 490 823 442.5 787.5 c 128,-1,4
 395 752 395 752 331 752 c 0,5,6
 271 752 271 752 233 782.5 c 128,-1,7
 195 813 195 813 195 855 c 0,8,9
 195 892 195 892 234 892 c 0,10,11
 251 892 251 892 265 874 c 0,12,13
 289 843 289 843 341 843 c 0,14,15
 358 843 358 843 370.5 845 c 128,-1,16
 383 847 383 847 393 852.5 c 128,-1,17
 403 858 403 858 407 860 c 128,-1,18
 411 862 411 862 420 870 c 2,19,-1
 429 879 l 2,20,21
 442 892 442 892 458 892 c 0,0,1
515 700 m 2,22,23
 541 700 541 700 541 660 c 0,24,25
 541 569 541 569 503 569 c 2,26,-1
 251 569 l 1,27,-1
 235 424 l 1,28,-1
 459 424 l 2,29,30
 485 424 485 424 485 384 c 0,31,32
 485 293 485 293 447 293 c 2,33,-1
 222 293 l 1,34,-1
 204 131 l 1,35,-1
 456 131 l 2,36,37
 482 131 482 131 482 91 c 0,38,39
 482 0 482 0 444 0 c 2,40,-1
 76 0 l 2,41,42
 56 0 56 0 48 7 c 128,-1,43
 40 14 40 14 40 32 c 1,44,-1
 105 660 l 2,45,46
 109 700 109 700 149 700 c 2,47,-1
 515 700 l 2,22,23
EndSplineSet
Validated: 1
Position2: "'cpsp' Capital Spacing lookup 3 subtable" dx=5 dy=0 dh=10 dv=0
EndChar

StartChar: Ecaron
Encoding: 282 282 45
Width: 546
Flags: MW
HStem: 0 131<62.5 456 204 444> 293 131<235 447 222 459> 569 131<251 503 251 251> 660 40 749 146<227 324 227 335>
VStem: 40 501
LayerCount: 2
UndoRedoHistory
Layer: 1
Undoes
EndUndoes
Redoes
EndRedoes
EndUndoRedoHistory
Fore
SplineSet
462 895 m 2,0,1
 481 895 481 895 481 885 c 0,2,3
 481 878 481 878 474 870 c 2,4,-1
 398 768 l 2,5,6
 384 749 384 749 335 749 c 2,7,-1
 324 749 l 2,8,9
 276 749 276 749 265 768 c 2,10,-1
 211 870 l 1,11,12
 208 878 208 878 208 882 c 0,13,14
 208 895 208 895 227 895 c 2,15,-1
 249 895 l 2,16,17
 297 895 297 895 313 871 c 2,18,-1
 338 831 l 1,19,-1
 369 870 l 2,20,21
 387 893 387 893 438 895 c 1,22,-1
 462 895 l 2,0,1
515 700 m 2,23,24
 541 700 541 700 541 660 c 0,25,26
 541 569 541 569 503 569 c 2,27,-1
 251 569 l 1,28,-1
 235 424 l 1,29,-1
 459 424 l 2,30,31
 485 424 485 424 485 384 c 0,32,33
 485 293 485 293 447 293 c 2,34,-1
 222 293 l 1,35,-1
 204 131 l 1,36,-1
 456 131 l 2,37,38
 482 131 482 131 482 91 c 0,39,40
 482 0 482 0 444 0 c 2,41,-1
 76 0 l 2,42,43
 56 0 56 0 48 7 c 128,-1,44
 40 14 40 14 40 32 c 1,45,-1
 105 660 l 2,46,47
 109 700 109 700 149 700 c 2,48,-1
 515 700 l 2,23,24
EndSplineSet
Validated: 1
Position2: "'cpsp' Capital Spacing lookup 3 subtable" dx=5 dy=0 dh=10 dv=0
EndChar

StartChar: Ecircumflex
Encoding: 202 202 46
Width: 546
Flags: MW
HStem: 0 131<62.5 456 204 444> 293 131<235 447 222 459> 569 131<251 503 251 251> 660 40 749 146<205 349 211 349 338 424 338 446>
VStem: 40 501
LayerCount: 2
UndoRedoHistory
Layer: 1
Undoes
EndUndoes
Redoes
EndRedoes
EndUndoRedoHistory
Fore
SplineSet
349 895 m 2,0,1
 397 895 397 895 408 876 c 2,2,-1
 462 774 l 1,3,4
 465 766 465 766 465 762 c 0,5,6
 465 749 465 749 446 749 c 2,7,-1
 424 749 l 2,8,9
 375 749 375 749 360 773 c 2,10,-1
 335 813 l 1,11,-1
 304 774 l 2,12,13
 285 749 285 749 235 749 c 2,14,-1
 211 749 l 2,15,16
 192 749 192 749 192 759 c 0,17,18
 192 766 192 766 199 774 c 2,19,-1
 275 876 l 2,20,21
 289 895 289 895 338 895 c 2,22,-1
 349 895 l 2,0,1
515 700 m 2,23,24
 541 700 541 700 541 660 c 0,25,26
 541 569 541 569 503 569 c 2,27,-1
 251 569 l 1,28,-1
 235 424 l 1,29,-1
 459 424 l 2,30,31
 485 424 485 424 485 384 c 0,32,33
 485 293 485 293 447 293 c 2,34,-1
 222 293 l 1,35,-1
 204 131 l 1,36,-1
 456 131 l 2,37,38
 482 131 482 131 482 91 c 0,39,40
 482 0 482 0 444 0 c 2,41,-1
 76 0 l 2,42,43
 56 0 56 0 48 7 c 128,-1,44
 40 14 40 14 40 32 c 1,45,-1
 105 660 l 2,46,47
 109 700 109 700 149 700 c 2,48,-1
 515 700 l 2,23,24
EndSplineSet
Validated: 1
Position2: "'cpsp' Capital Spacing lookup 3 subtable" dx=5 dy=0 dh=10 dv=0
EndChar

StartChar: Ecircumflexacute
Encoding: 7870 7870 47
Width: 546
Flags: MW
HStem: 0 131<62.5 456 204 444> 293 131<235 447 222 459> 569 131<251 503 251 251> 660 40 749 146<202 346 208 346 335 406 335 428>
VStem: 40 552
LayerCount: 2
UndoRedoHistory
Layer: 1
Undoes
EndUndoes
Redoes
EndRedoes
EndUndoRedoHistory
Fore
SplineSet
554 963 m 0,0,1
 592 963 592 963 592 940 c 0,2,3
 592 924 592 924 506 839 c 1,4,5
 489 824 489 824 448 824 c 0,6,7
 429 824 429 824 429 837 c 0,8,9
 429 843 429 843 476 936 c 0,10,11
 490 963 490 963 554 963 c 0,0,1
346 895 m 2,12,13
 386 895 386 895 395 876 c 2,14,-1
 444 774 l 2,15,16
 447 766 447 766 447 762 c 0,17,18
 447 749 447 749 428 749 c 2,19,-1
 406 749 l 2,20,21
 347 749 347 749 342 773 c 2,22,-1
 332 813 l 1,23,-1
 301 774 l 2,24,25
 282 749 282 749 232 749 c 2,26,-1
 208 749 l 2,27,28
 189 749 189 749 189 759 c 0,29,30
 189 766 189 766 196 774 c 2,31,-1
 272 876 l 2,32,33
 286 895 286 895 335 895 c 2,34,-1
 346 895 l 2,12,13
515 700 m 2,35,36
 541 700 541 700 541 660 c 0,37,38
 541 569 541 569 503 569 c 2,39,-1
 251 569 l 1,40,-1
 235 424 l 1,41,-1
 459 424 l 2,42,43
 485 424 485 424 485 384 c 0,44,45
 485 293 485 293 447 293 c 2,46,-1
 222 293 l 1,47,-1
 204 131 l 1,48,-1
 456 131 l 2,49,50
 482 131 482 131 482 91 c 0,51,52
 482 0 482 0 444 0 c 2,53,-1
 76 0 l 2,54,55
 56 0 56 0 48 7 c 128,-1,56
 40 14 40 14 40 32 c 1,57,-1
 105 660 l 2,58,59
 109 700 109 700 149 700 c 2,60,-1
 515 700 l 2,35,36
EndSplineSet
Validated: 1
Position2: "'cpsp' Capital Spacing lookup 3 subtable" dx=5 dy=0 dh=10 dv=0
EndChar

StartChar: Ecircumflexdotbelow
Encoding: 7878 7878 48
Width: 546
Flags: MW
HStem: -204 124<221 249> 0 131<62.5 456 204 444> 293 131<235 447 222 459> 569 131<251 503 251 251> 660 40 749 146<205 349 211 349 338 424 338 446>
VStem: 40 501 172 127<-182.5 -101.5>
LayerCount: 2
UndoRedoHistory
Layer: 1
Undoes
EndUndoes
Redoes
EndRedoes
EndUndoRedoHistory
Fore
SplineSet
349 895 m 2,0,1
 397 895 397 895 408 876 c 2,2,-1
 462 774 l 1,3,4
 465 766 465 766 465 762 c 0,5,6
 465 749 465 749 446 749 c 2,7,-1
 424 749 l 2,8,9
 375 749 375 749 360 773 c 2,10,-1
 335 813 l 1,11,-1
 304 774 l 2,12,13
 285 749 285 749 235 749 c 2,14,-1
 211 749 l 2,15,16
 192 749 192 749 192 759 c 0,17,18
 192 766 192 766 199 774 c 2,19,-1
 275 876 l 2,20,21
 289 895 289 895 338 895 c 2,22,-1
 349 895 l 2,0,1
515 700 m 2,23,24
 541 700 541 700 541 660 c 0,25,26
 541 569 541 569 503 569 c 2,27,-1
 251 569 l 1,28,-1
 235 424 l 1,29,-1
 459 424 l 2,30,31
 485 424 485 424 485 384 c 0,32,33
 485 293 485 293 447 293 c 2,34,-1
 222 293 l 1,35,-1
 204 131 l 1,36,-1
 456 131 l 2,37,38
 482 131 482 131 482 91 c 0,39,40
 482 0 482 0 444 0 c 2,41,-1
 76 0 l 2,42,43
 56 0 56 0 48 7 c 128,-1,44
 40 14 40 14 40 32 c 1,45,-1
 105 660 l 2,46,47
 109 700 109 700 149 700 c 2,48,-1
 515 700 l 2,23,24
179 -112 m 2,49,50
 182 -80 182 -80 242 -80 c 0,51,52
 299 -80 299 -80 299 -112 c 1,53,-1
 292 -172 l 1,54,55
 287 -204 287 -204 229 -204 c 0,56,57
 172 -204 172 -204 172 -172 c 1,58,-1
 179 -112 l 2,49,50
EndSplineSet
Validated: 1
Position2: "'cpsp' Capital Spacing lookup 3 subtable" dx=5 dy=0 dh=10 dv=0
EndChar

StartChar: Ecircumflexgrave
Encoding: 7872 7872 49
Width: 546
Flags: MW
HStem: 0 131<62.5 456 204 444> 293 131<235 447 222 459> 569 131<251 503 251 251> 660 40 749 146<202 346 208 346 335 406 335 428> 825 139<392 497>
VStem: 40 501
LayerCount: 2
UndoRedoHistory
Layer: 1
Undoes
EndUndoes
Redoes
EndRedoes
EndUndoRedoHistory
Fore
SplineSet
408 964 m 0,0,1
 481 964 481 964 490 937 c 0,2,3
 518 846 518 846 518 841 c 0,4,5
 518 825 518 825 485 825 c 0,6,7
 445 825 445 825 426 850 c 0,8,9
 411 870 411 870 391 898 c 0,10,11
 359 942 359 942 359 948 c 0,12,13
 359 964 359 964 408 964 c 0,0,1
346 895 m 2,14,15
 386 895 386 895 395 876 c 2,16,-1
 444 774 l 2,17,18
 447 766 447 766 447 762 c 0,19,20
 447 749 447 749 428 749 c 2,21,-1
 406 749 l 2,22,23
 347 749 347 749 342 773 c 2,24,-1
 332 813 l 1,25,-1
 301 774 l 2,26,27
 282 749 282 749 232 749 c 2,28,-1
 208 749 l 2,29,30
 189 749 189 749 189 759 c 0,31,32
 189 766 189 766 196 774 c 2,33,-1
 272 876 l 2,34,35
 286 895 286 895 335 895 c 2,36,-1
 346 895 l 2,14,15
515 700 m 2,37,38
 541 700 541 700 541 660 c 0,39,40
 541 569 541 569 503 569 c 2,41,-1
 251 569 l 1,42,-1
 235 424 l 1,43,-1
 459 424 l 2,44,45
 485 424 485 424 485 384 c 0,46,47
 485 293 485 293 447 293 c 2,48,-1
 222 293 l 1,49,-1
 204 131 l 1,50,-1
 456 131 l 2,51,52
 482 131 482 131 482 91 c 0,53,54
 482 0 482 0 444 0 c 2,55,-1
 76 0 l 2,56,57
 56 0 56 0 48 7 c 128,-1,58
 40 14 40 14 40 32 c 1,59,-1
 105 660 l 2,60,61
 109 700 109 700 149 700 c 2,62,-1
 515 700 l 2,37,38
EndSplineSet
Validated: 1
Position2: "'cpsp' Capital Spacing lookup 3 subtable" dx=5 dy=0 dh=10 dv=0
EndChar

StartChar: Ecircumflexhookabove
Encoding: 7874 7874 50
Width: 546
Flags: MW
HStem: 0 131<62.5 456 204 444> 293 131<235 447 222 459> 569 131<251 503 251 251> 660 40 749 146<202 346 208 346 335 406 335 428> 896 70<412 503>
VStem: 489 70<889 901.5>
LayerCount: 2
UndoRedoHistory
Layer: 1
Undoes
EndUndoes
Redoes
EndRedoes
EndUndoRedoHistory
Fore
SplineSet
489 896 m 0,0,1
 489 913 489 913 468 913 c 0,2,3
 450 913 450 913 434 904.5 c 128,-1,4
 418 896 418 896 416 896 c 0,5,6
 410 896 410 896 400.5 911.5 c 128,-1,7
 391 927 391 927 391 938 c 0,8,9
 391 948 391 948 419 957 c 128,-1,10
 447 966 447 966 474 966 c 0,11,12
 559 966 559 966 559 900 c 0,13,14
 559 872 559 872 519 847 c 0,15,16
 485 826 485 826 475 826 c 0,17,18
 434 826 434 826 434 847 c 0,19,20
 434 859 434 859 455 867 c 0,21,22
 469 873 469 873 474.5 876 c 128,-1,23
 480 879 480 879 484.5 884 c 128,-1,24
 489 889 489 889 489 896 c 0,0,1
346 895 m 2,25,26
 386 895 386 895 395 876 c 2,27,-1
 444 774 l 2,28,29
 447 766 447 766 447 762 c 0,30,31
 447 749 447 749 428 749 c 2,32,-1
 406 749 l 2,33,34
 347 749 347 749 342 773 c 2,35,-1
 332 813 l 1,36,-1
 301 774 l 2,37,38
 282 749 282 749 232 749 c 2,39,-1
 208 749 l 2,40,41
 189 749 189 749 189 759 c 0,42,43
 189 766 189 766 196 774 c 2,44,-1
 272 876 l 2,45,46
 286 895 286 895 335 895 c 2,47,-1
 346 895 l 2,25,26
515 700 m 2,48,49
 541 700 541 700 541 660 c 0,50,51
 541 569 541 569 503 569 c 2,52,-1
 251 569 l 1,53,-1
 235 424 l 1,54,-1
 459 424 l 2,55,56
 485 424 485 424 485 384 c 0,57,58
 485 293 485 293 447 293 c 2,59,-1
 222 293 l 1,60,-1
 204 131 l 1,61,-1
 456 131 l 2,62,63
 482 131 482 131 482 91 c 0,64,65
 482 0 482 0 444 0 c 2,66,-1
 76 0 l 2,67,68
 56 0 56 0 48 7 c 128,-1,69
 40 14 40 14 40 32 c 1,70,-1
 105 660 l 2,71,72
 109 700 109 700 149 700 c 2,73,-1
 515 700 l 2,48,49
EndSplineSet
Validated: 1
Position2: "'cpsp' Capital Spacing lookup 3 subtable" dx=5 dy=0 dh=10 dv=0
EndChar

StartChar: Ecircumflextilde
Encoding: 7876 7876 51
Width: 546
Flags: MW
HStem: 0 131<62.5 456 204 444> 293 131<235 447 222 459> 569 131<251 503 251 251> 660 40 749 122<215 353 342 428 342 450> 903 86<408.5 421.5> 915 100
VStem: 40 501
LayerCount: 2
UndoRedoHistory
Layer: 1
Undoes
EndUndoes
Redoes
EndRedoes
EndUndoRedoHistory
Fore
SplineSet
466 1004 m 0,0,1
 476 1010 476 1010 483 1010 c 0,2,3
 496 1010 496 1010 506 996 c 0,4,5
 514 985 514 985 514 976 c 0,6,7
 514 965 514 965 499 944 c 1,8,9
 461 903 461 903 403 903 c 0,10,11
 369 903 369 903 338 915 c 0,12,13
 301 929 301 929 291 929 c 0,14,15
 271 929 271 929 245 915 c 0,16,17
 237 911 237 911 234 911 c 0,18,19
 221 911 221 911 211 928 c 0,20,21
 203 941 203 941 203 952 c 0,22,23
 203 965 203 965 212 974 c 0,24,25
 258 1015 258 1015 305 1015 c 0,26,27
 337 1015 337 1015 368 1002 c 0,28,29
 398 989 398 989 417 989 c 0,30,31
 443 989 443 989 466 1004 c 0,0,1
353 871 m 2,32,33
 397 871 397 871 412 852 c 1,34,-1
 466 774 l 1,35,36
 469 766 469 766 469 762 c 0,37,38
 469 749 469 749 450 749 c 2,39,-1
 428 749 l 2,40,41
 401 749 401 749 364 773 c 1,42,-1
 339 799 l 1,43,-1
 308 774 l 1,44,45
 301 771 301 771 290.5 765.5 c 128,-1,46
 280 760 280 760 274 757 c 128,-1,47
 268 754 268 754 258.5 751.5 c 128,-1,48
 249 749 249 749 239 749 c 2,49,-1
 215 749 l 2,50,51
 196 749 196 749 196 759 c 0,52,53
 196 766 196 766 203 774 c 2,54,-1
 279 852 l 1,55,56
 299 871 299 871 342 871 c 2,57,-1
 353 871 l 2,32,33
515 700 m 2,58,59
 541 700 541 700 541 660 c 0,60,61
 541 569 541 569 503 569 c 2,62,-1
 251 569 l 1,63,-1
 235 424 l 1,64,-1
 459 424 l 2,65,66
 485 424 485 424 485 384 c 0,67,68
 485 293 485 293 447 293 c 2,69,-1
 222 293 l 1,70,-1
 204 131 l 1,71,-1
 456 131 l 2,72,73
 482 131 482 131 482 91 c 0,74,75
 482 0 482 0 444 0 c 2,76,-1
 76 0 l 2,77,78
 56 0 56 0 48 7 c 128,-1,79
 40 14 40 14 40 32 c 1,80,-1
 105 660 l 2,81,82
 109 700 109 700 149 700 c 2,83,-1
 515 700 l 2,58,59
EndSplineSet
Validated: 1
Position2: "'cpsp' Capital Spacing lookup 3 subtable" dx=5 dy=0 dh=10 dv=0
EndChar

StartChar: Edieresis
Encoding: 203 203 52
Width: 546
Flags: MW
HStem: 0 131<62.5 456 204 444> 293 131<235 447 222 459> 569 131<251 503 251 251> 660 40 755 124<237 265 417 445>
VStem: 40 501 188 127<776.5 857.5> 368 127<776.5 857.5>
LayerCount: 2
UndoRedoHistory
Layer: 1
Undoes
EndUndoes
Redoes
EndRedoes
EndUndoRedoHistory
Fore
SplineSet
195 847 m 2,0,1
 198 879 198 879 258 879 c 0,2,3
 315 879 315 879 315 847 c 1,4,-1
 308 787 l 1,5,6
 303 755 303 755 245 755 c 0,7,8
 188 755 188 755 188 787 c 1,9,-1
 195 847 l 2,0,1
375 847 m 2,10,11
 378 879 378 879 438 879 c 0,12,13
 495 879 495 879 495 847 c 1,14,-1
 488 787 l 1,15,16
 483 755 483 755 425 755 c 0,17,18
 368 755 368 755 368 787 c 1,19,-1
 375 847 l 2,10,11
515 700 m 2,20,21
 541 700 541 700 541 660 c 0,22,23
 541 569 541 569 503 569 c 2,24,-1
 251 569 l 1,25,-1
 235 424 l 1,26,-1
 459 424 l 2,27,28
 485 424 485 424 485 384 c 0,29,30
 485 293 485 293 447 293 c 2,31,-1
 222 293 l 1,32,-1
 204 131 l 1,33,-1
 456 131 l 2,34,35
 482 131 482 131 482 91 c 0,36,37
 482 0 482 0 444 0 c 2,38,-1
 76 0 l 2,39,40
 56 0 56 0 48 7 c 128,-1,41
 40 14 40 14 40 32 c 1,42,-1
 105 660 l 2,43,44
 109 700 109 700 149 700 c 2,45,-1
 515 700 l 2,20,21
EndSplineSet
Validated: 1
Position2: "'cpsp' Capital Spacing lookup 3 subtable" dx=5 dy=0 dh=10 dv=0
EndChar

StartChar: Edotaccent
Encoding: 278 278 53
Width: 546
Flags: MW
HStem: 0 131<62.5 456 204 444> 293 131<235 447 222 459> 569 131<251 503 251 251> 660 40 755 124<313 341>
VStem: 40 501 264 127<776.5 857.5>
LayerCount: 2
UndoRedoHistory
Layer: 1
Undoes
EndUndoes
Redoes
EndRedoes
EndUndoRedoHistory
Fore
SplineSet
271 847 m 2,0,1
 274 879 274 879 334 879 c 0,2,3
 391 879 391 879 391 847 c 1,4,-1
 384 787 l 1,5,6
 379 755 379 755 321 755 c 0,7,8
 264 755 264 755 264 787 c 1,9,-1
 271 847 l 2,0,1
515 700 m 2,10,11
 541 700 541 700 541 660 c 0,12,13
 541 569 541 569 503 569 c 2,14,-1
 251 569 l 1,15,-1
 235 424 l 1,16,-1
 459 424 l 2,17,18
 485 424 485 424 485 384 c 0,19,20
 485 293 485 293 447 293 c 2,21,-1
 222 293 l 1,22,-1
 204 131 l 1,23,-1
 456 131 l 2,24,25
 482 131 482 131 482 91 c 0,26,27
 482 0 482 0 444 0 c 2,28,-1
 76 0 l 2,29,30
 56 0 56 0 48 7 c 128,-1,31
 40 14 40 14 40 32 c 1,32,-1
 105 660 l 2,33,34
 109 700 109 700 149 700 c 2,35,-1
 515 700 l 2,10,11
EndSplineSet
Validated: 1
Position2: "'cpsp' Capital Spacing lookup 3 subtable" dx=5 dy=0 dh=10 dv=0
EndChar

StartChar: Edotbelow
Encoding: 7864 7864 54
Width: 546
Flags: MW
HStem: -204 124<221 249> 0 131<62.5 456 204 444> 293 131<235 447 222 459> 569 131<251 503 251 251> 660 40
VStem: 40 501 172 127<-182.5 -101.5>
LayerCount: 2
UndoRedoHistory
Layer: 1
Undoes
EndUndoes
Redoes
EndRedoes
EndUndoRedoHistory
Fore
SplineSet
515 700 m 2,0,1
 541 700 541 700 541 660 c 0,2,3
 541 569 541 569 503 569 c 2,4,-1
 251 569 l 1,5,-1
 235 424 l 1,6,-1
 459 424 l 2,7,8
 485 424 485 424 485 384 c 0,9,10
 485 293 485 293 447 293 c 2,11,-1
 222 293 l 1,12,-1
 204 131 l 1,13,-1
 456 131 l 2,14,15
 482 131 482 131 482 91 c 0,16,17
 482 0 482 0 444 0 c 2,18,-1
 76 0 l 2,19,20
 56 0 56 0 48 7 c 128,-1,21
 40 14 40 14 40 32 c 1,22,-1
 105 660 l 2,23,24
 109 700 109 700 149 700 c 2,25,-1
 515 700 l 2,0,1
179 -112 m 2,26,27
 182 -80 182 -80 242 -80 c 0,28,29
 299 -80 299 -80 299 -112 c 1,30,-1
 292 -172 l 1,31,32
 287 -204 287 -204 229 -204 c 0,33,34
 172 -204 172 -204 172 -172 c 1,35,-1
 179 -112 l 2,26,27
EndSplineSet
Validated: 1
Position2: "'cpsp' Capital Spacing lookup 3 subtable" dx=5 dy=0 dh=10 dv=0
EndChar

StartChar: Egrave
Encoding: 200 200 55
Width: 546
Flags: MW
HStem: 0 131<62.5 456 204 444> 293 131<235 447 222 459> 569 131<251 503 251 251> 660 40 752 159<237 372>
VStem: 40 501
LayerCount: 2
UndoRedoHistory
Layer: 1
Undoes
EndUndoes
Redoes
EndRedoes
EndUndoRedoHistory
Fore
SplineSet
258 911 m 0,0,1
 327 911 327 911 340 884 c 0,2,3
 350 863 350 863 359.5 843 c 128,-1,4
 369 823 369 823 374.5 812 c 128,-1,5
 380 801 380 801 384.5 791 c 128,-1,6
 389 781 389 781 391 776 c 128,-1,7
 393 771 393 771 393 768 c 0,8,9
 393 752 393 752 360 752 c 0,10,11
 309 752 309 752 288 777 c 0,12,13
 265 806 265 806 234 842 c 0,14,15
 196 888 196 888 196 895 c 0,16,17
 196 911 196 911 258 911 c 0,0,1
515 700 m 2,18,19
 541 700 541 700 541 660 c 0,20,21
 541 569 541 569 503 569 c 2,22,-1
 251 569 l 1,23,-1
 235 424 l 1,24,-1
 459 424 l 2,25,26
 485 424 485 424 485 384 c 0,27,28
 485 293 485 293 447 293 c 2,29,-1
 222 293 l 1,30,-1
 204 131 l 1,31,-1
 456 131 l 2,32,33
 482 131 482 131 482 91 c 0,34,35
 482 0 482 0 444 0 c 2,36,-1
 76 0 l 2,37,38
 56 0 56 0 48 7 c 128,-1,39
 40 14 40 14 40 32 c 1,40,-1
 105 660 l 2,41,42
 109 700 109 700 149 700 c 2,43,-1
 515 700 l 2,18,19
EndSplineSet
Validated: 1
Position2: "'cpsp' Capital Spacing lookup 3 subtable" dx=5 dy=0 dh=10 dv=0
EndChar

StartChar: Ehookabove
Encoding: 7866 7866 56
Width: 546
Flags: MW
HStem: 0 131<62.5 456 204 444> 293 131<235 447 222 459> 569 131<251 503 251 251> 660 40 867 61<335.5 348.5>
VStem: 371 87<828 852>
LayerCount: 2
UndoRedoHistory
Layer: 1
Undoes
EndUndoes
Redoes
EndRedoes
EndUndoRedoHistory
Fore
SplineSet
371 845 m 0,0,1
 371 867 371 867 339 867 c 0,2,3
 326 867 326 867 312 861 c 128,-1,4
 298 855 298 855 295 855 c 0,5,6
 289 855 289 855 279.5 870.5 c 128,-1,7
 270 886 270 886 270 897 c 0,8,9
 270 907 270 907 298.5 917.5 c 128,-1,10
 327 928 327 928 353 928 c 0,11,12
 402 928 402 928 430 906.5 c 128,-1,13
 458 885 458 885 458 851 c 128,-1,14
 458 817 458 817 416 782 c 128,-1,15
 374 747 374 747 356 747 c 0,16,17
 329 747 329 747 314 753.5 c 128,-1,18
 299 760 299 760 299 768 c 0,19,20
 299 778 299 778 335 802 c 128,-1,21
 371 826 371 826 371 845 c 0,0,1
515 700 m 2,22,23
 541 700 541 700 541 660 c 0,24,25
 541 569 541 569 503 569 c 2,26,-1
 251 569 l 1,27,-1
 235 424 l 1,28,-1
 459 424 l 2,29,30
 485 424 485 424 485 384 c 0,31,32
 485 293 485 293 447 293 c 2,33,-1
 222 293 l 1,34,-1
 204 131 l 1,35,-1
 456 131 l 2,36,37
 482 131 482 131 482 91 c 0,38,39
 482 0 482 0 444 0 c 2,40,-1
 76 0 l 2,41,42
 56 0 56 0 48 7 c 128,-1,43
 40 14 40 14 40 32 c 1,44,-1
 105 660 l 2,45,46
 109 700 109 700 149 700 c 2,47,-1
 515 700 l 2,22,23
EndSplineSet
Validated: 1
Position2: "'cpsp' Capital Spacing lookup 3 subtable" dx=5 dy=0 dh=10 dv=0
EndChar

StartChar: Emacron
Encoding: 274 274 57
Width: 546
Flags: MW
HStem: 0 131<62.5 456 204 444> 293 131<235 447 222 459> 569 131<251 503 251 251> 660 40 774 95<222 458 242 447>
VStem: 40 501
LayerCount: 2
UndoRedoHistory
Layer: 1
Undoes
EndUndoes
Redoes
EndRedoes
EndUndoRedoHistory
Fore
SplineSet
458 869 m 2,0,1
 484 869 484 869 484 839 c 0,2,3
 484 774 484 774 447 774 c 2,4,-1
 231 774 l 2,5,6
 205 774 205 774 205 804 c 0,7,8
 205 869 205 869 242 869 c 2,9,-1
 458 869 l 2,0,1
515 700 m 2,10,11
 541 700 541 700 541 660 c 0,12,13
 541 569 541 569 503 569 c 2,14,-1
 251 569 l 1,15,-1
 235 424 l 1,16,-1
 459 424 l 2,17,18
 485 424 485 424 485 384 c 0,19,20
 485 293 485 293 447 293 c 2,21,-1
 222 293 l 1,22,-1
 204 131 l 1,23,-1
 456 131 l 2,24,25
 482 131 482 131 482 91 c 0,26,27
 482 0 482 0 444 0 c 2,28,-1
 76 0 l 2,29,30
 56 0 56 0 48 7 c 128,-1,31
 40 14 40 14 40 32 c 1,32,-1
 105 660 l 2,33,34
 109 700 109 700 149 700 c 2,35,-1
 515 700 l 2,10,11
EndSplineSet
Validated: 1
Position2: "'cpsp' Capital Spacing lookup 3 subtable" dx=5 dy=0 dh=10 dv=0
EndChar

StartChar: Eogonek
Encoding: 280 280 58
Width: 546
Flags: MW
HStem: -183 70<473 485> 0 131<62.5 456 204 391 444 456 456 458.5> 293 131<235 447 222 459> 569 131<251 503 251 251> 660 40
VStem: 357 69<-90 -81>
LayerCount: 2
UndoRedoHistory
Layer: 1
Undoes
EndUndoes
Redoes
EndRedoes
EndUndoRedoHistory
Fore
SplineSet
444 0 m 1,0,-1
 444 -3 l 2,1,2
 444 -9 444 -9 435 -29.5 c 128,-1,3
 426 -50 426 -50 426 -70 c 0,4,5
 426 -113 426 -113 484 -113 c 0,6,7
 502 -113 502 -113 521 -106 c 128,-1,8
 540 -99 540 -99 542 -99 c 0,9,10
 553 -99 553 -99 553 -129 c 0,11,12
 553 -158 553 -158 527 -170.5 c 128,-1,13
 501 -183 501 -183 465 -183 c 0,14,15
 403 -183 403 -183 380 -156 c 128,-1,16
 357 -129 357 -129 357 -94 c 0,17,18
 357 -31 357 -31 391 0 c 1,19,-1
 76 0 l 2,20,21
 56 0 56 0 48 7 c 128,-1,22
 40 14 40 14 40 32 c 1,23,-1
 105 660 l 2,24,25
 109 700 109 700 149 700 c 2,26,-1
 515 700 l 2,27,28
 541 700 541 700 541 660 c 0,29,30
 541 569 541 569 503 569 c 2,31,-1
 251 569 l 1,32,-1
 235 424 l 1,33,-1
 459 424 l 2,34,35
 485 424 485 424 485 384 c 0,36,37
 485 293 485 293 447 293 c 2,38,-1
 222 293 l 1,39,-1
 204 131 l 1,40,-1
 456 131 l 2,41,42
 482 131 482 131 482 91 c 0,43,44
 482 0 482 0 444 0 c 1,0,-1
EndSplineSet
Validated: 1
Position2: "'cpsp' Capital Spacing lookup 3 subtable" dx=5 dy=0 dh=10 dv=0
EndChar

StartChar: Etilde
Encoding: 7868 7868 59
Width: 546
Flags: MW
HStem: 0 131<62.5 456 204 444> 293 131<235 447 222 459> 569 131<251 503 251 251> 660 40 758 86<395.5 409.5> 770 100
VStem: 40 501
LayerCount: 2
UndoRedoHistory
Layer: 1
Undoes
EndUndoes
Redoes
EndRedoes
EndUndoRedoHistory
Fore
SplineSet
459 859 m 1,0,1
 471 865 471 865 478 865 c 0,2,3
 493 865 493 865 503 851 c 0,4,5
 512 838 512 838 512 831 c 0,6,7
 512 819 512 819 495 799 c 1,8,9
 454 758 454 758 389 758 c 0,10,11
 352 758 352 758 318 770 c 0,12,13
 276 784 276 784 266 784 c 0,14,15
 244 784 244 784 216 770 c 0,16,17
 208 766 208 766 203 766 c 0,18,19
 190 766 190 766 178 783 c 0,20,21
 170 796 170 796 170 807 c 0,22,23
 170 820 170 820 179 829 c 1,24,25
 231 870 231 870 282 870 c 0,26,27
 317 870 317 870 351 857 c 0,28,29
 384 844 384 844 405 844 c 0,30,31
 434 844 434 844 459 859 c 1,0,1
515 700 m 2,32,33
 541 700 541 700 541 660 c 0,34,35
 541 569 541 569 503 569 c 2,36,-1
 251 569 l 1,37,-1
 235 424 l 1,38,-1
 459 424 l 2,39,40
 485 424 485 424 485 384 c 0,41,42
 485 293 485 293 447 293 c 2,43,-1
 222 293 l 1,44,-1
 204 131 l 1,45,-1
 456 131 l 2,46,47
 482 131 482 131 482 91 c 0,48,49
 482 0 482 0 444 0 c 2,50,-1
 76 0 l 2,51,52
 56 0 56 0 48 7 c 128,-1,53
 40 14 40 14 40 32 c 1,54,-1
 105 660 l 2,55,56
 109 700 109 700 149 700 c 2,57,-1
 515 700 l 2,32,33
EndSplineSet
Validated: 1
Position2: "'cpsp' Capital Spacing lookup 3 subtable" dx=5 dy=0 dh=10 dv=0
EndChar

StartChar: F
Encoding: 70 70 60
Width: 503
Flags: MW
HStem: -2 21G<90.5 99 99 134> 292 131<238 439 225 451> 569 131<254 475 254 254>
VStem: 42 471
LayerCount: 2
UndoRedoHistory
Layer: 1
Undoes
EndUndoes
Redoes
EndRedoes
EndUndoRedoHistory
Fore
SplineSet
487 700 m 2,0,1
 513 700 513 700 513 660 c 0,2,3
 513 569 513 569 475 569 c 2,4,-1
 254 569 l 1,5,-1
 238 423 l 1,6,-1
 451 423 l 2,7,8
 477 423 477 423 477 383 c 0,9,10
 477 292 477 292 439 292 c 2,11,-1
 225 292 l 1,12,-1
 197 30 l 2,13,14
 194 -2 194 -2 134 -2 c 2,15,-1
 99 -2 l 2,16,17
 42 -2 42 -2 42 29 c 1,18,-1
 108 660 l 2,19,20
 112 700 112 700 152 700 c 2,21,-1
 487 700 l 2,0,1
EndSplineSet
Validated: 1
Position2: "'cpsp' Capital Spacing lookup 3 subtable" dx=5 dy=0 dh=10 dv=0
EndChar

StartChar: G
Encoding: 71 71 61
Width: 672
Flags: MW
HStem: -8 131<299.5 364 299.5 371> 258 131<346 571 367 442> 576 132<335 447>
VStem: 41 159<240.5 390.5 240.5 420.5>
LayerCount: 2
UndoRedoHistory
Layer: 1
Undoes
EndUndoes
Redoes
EndRedoes
EndUndoRedoHistory
Fore
SplineSet
571 389 m 2,0,1
 591 389 591 389 599.5 382 c 128,-1,2
 608 375 608 375 608 358 c 0,3,4
 608 355 608 355 602.5 305.5 c 128,-1,5
 597 256 597 256 589 183 c 128,-1,6
 581 110 581 110 577 71 c 0,7,8
 574 47 574 47 547 30 c 128,-1,9
 520 13 520 13 478.5 5.5 c 128,-1,10
 437 -2 437 -2 403 -5 c 128,-1,11
 369 -8 369 -8 336 -8 c 0,12,13
 186 -8 186 -8 113.5 61.5 c 128,-1,14
 41 131 41 131 41 276 c 0,15,16
 41 491 41 491 137 599.5 c 128,-1,17
 233 708 233 708 416 708 c 0,18,19
 487 708 487 708 553 688.5 c 128,-1,20
 619 669 619 669 619 640 c 0,21,22
 619 619 619 619 590.5 581.5 c 128,-1,23
 562 544 562 544 544 544 c 0,24,25
 541 544 541 544 524.5 552 c 128,-1,26
 508 560 508 560 474.5 568 c 128,-1,27
 441 576 441 576 399 576 c 0,28,29
 302 576 302 576 251 506 c 128,-1,30
 200 436 200 436 200 298 c 0,31,32
 200 123 200 123 350 123 c 0,33,34
 390 123 390 123 428 130 c 1,35,-1
 442 258 l 1,36,-1
 355 258 l 2,37,38
 329 258 329 258 329 298 c 0,39,40
 329 389 329 389 367 389 c 2,41,-1
 571 389 l 2,0,1
EndSplineSet
Validated: 1
Position2: "'cpsp' Capital Spacing lookup 3 subtable" dx=5 dy=0 dh=10 dv=0
EndChar

StartChar: Gbreve
Encoding: 286 286 62
Width: 672
Flags: MW
HStem: -8 131<299.5 364 299.5 371> 258 131<346 571 367 442> 576 132<335 447> 752 91<384.5 439 384.5 443>
VStem: 41 159<240.5 390.5 240.5 420.5>
LayerCount: 2
UndoRedoHistory
Layer: 1
Undoes
EndUndoes
Redoes
EndRedoes
EndUndoRedoHistory
Fore
SplineSet
527 892 m 0,0,1
 559 892 559 892 559 868 c 0,2,3
 559 823 559 823 511.5 787.5 c 128,-1,4
 464 752 464 752 400 752 c 0,5,6
 340 752 340 752 302 782.5 c 128,-1,7
 264 813 264 813 264 855 c 0,8,9
 264 892 264 892 303 892 c 0,10,11
 320 892 320 892 334 874 c 0,12,13
 358 843 358 843 410 843 c 0,14,15
 427 843 427 843 439.5 845 c 128,-1,16
 452 847 452 847 462 852.5 c 128,-1,17
 472 858 472 858 476 860 c 128,-1,18
 480 862 480 862 489 870 c 2,19,-1
 498 879 l 2,20,21
 511 892 511 892 527 892 c 0,0,1
571 389 m 2,22,23
 591 389 591 389 599.5 382 c 128,-1,24
 608 375 608 375 608 358 c 0,25,26
 608 355 608 355 602.5 305.5 c 128,-1,27
 597 256 597 256 589 183 c 128,-1,28
 581 110 581 110 577 71 c 0,29,30
 574 47 574 47 547 30 c 128,-1,31
 520 13 520 13 478.5 5.5 c 128,-1,32
 437 -2 437 -2 403 -5 c 128,-1,33
 369 -8 369 -8 336 -8 c 0,34,35
 186 -8 186 -8 113.5 61.5 c 128,-1,36
 41 131 41 131 41 276 c 0,37,38
 41 491 41 491 137 599.5 c 128,-1,39
 233 708 233 708 416 708 c 0,40,41
 487 708 487 708 553 688.5 c 128,-1,42
 619 669 619 669 619 640 c 0,43,44
 619 619 619 619 590.5 581.5 c 128,-1,45
 562 544 562 544 544 544 c 0,46,47
 541 544 541 544 524.5 552 c 128,-1,48
 508 560 508 560 474.5 568 c 128,-1,49
 441 576 441 576 399 576 c 0,50,51
 302 576 302 576 251 506 c 128,-1,52
 200 436 200 436 200 298 c 0,53,54
 200 123 200 123 350 123 c 0,55,56
 390 123 390 123 428 130 c 1,57,-1
 442 258 l 1,58,-1
 355 258 l 2,59,60
 329 258 329 258 329 298 c 0,61,62
 329 389 329 389 367 389 c 2,63,-1
 571 389 l 2,22,23
EndSplineSet
Validated: 1
Position2: "'cpsp' Capital Spacing lookup 3 subtable" dx=5 dy=0 dh=10 dv=0
EndChar

StartChar: Gcircumflex
Encoding: 284 284 63
Width: 672
Flags: MW
HStem: -8 131<299.5 364 299.5 371> 258 131<346 571 367 442> 576 132<335 447> 749 146<274 418 280 418 407 493 407 515>
VStem: 41 159<240.5 390.5 240.5 420.5>
LayerCount: 2
UndoRedoHistory
Layer: 1
Undoes
EndUndoes
Redoes
EndRedoes
EndUndoRedoHistory
Fore
SplineSet
418 895 m 2,0,1
 466 895 466 895 477 876 c 2,2,-1
 531 774 l 1,3,4
 534 766 534 766 534 762 c 0,5,6
 534 749 534 749 515 749 c 2,7,-1
 493 749 l 2,8,9
 444 749 444 749 429 773 c 2,10,-1
 404 813 l 1,11,-1
 373 774 l 2,12,13
 354 749 354 749 304 749 c 2,14,-1
 280 749 l 2,15,16
 261 749 261 749 261 759 c 0,17,18
 261 766 261 766 268 774 c 2,19,-1
 344 876 l 2,20,21
 358 895 358 895 407 895 c 2,22,-1
 418 895 l 2,0,1
571 389 m 2,23,24
 591 389 591 389 599.5 382 c 128,-1,25
 608 375 608 375 608 358 c 0,26,27
 608 355 608 355 602.5 305.5 c 128,-1,28
 597 256 597 256 589 183 c 128,-1,29
 581 110 581 110 577 71 c 0,30,31
 574 47 574 47 547 30 c 128,-1,32
 520 13 520 13 478.5 5.5 c 128,-1,33
 437 -2 437 -2 403 -5 c 128,-1,34
 369 -8 369 -8 336 -8 c 0,35,36
 186 -8 186 -8 113.5 61.5 c 128,-1,37
 41 131 41 131 41 276 c 0,38,39
 41 491 41 491 137 599.5 c 128,-1,40
 233 708 233 708 416 708 c 0,41,42
 487 708 487 708 553 688.5 c 128,-1,43
 619 669 619 669 619 640 c 0,44,45
 619 619 619 619 590.5 581.5 c 128,-1,46
 562 544 562 544 544 544 c 0,47,48
 541 544 541 544 524.5 552 c 128,-1,49
 508 560 508 560 474.5 568 c 128,-1,50
 441 576 441 576 399 576 c 0,51,52
 302 576 302 576 251 506 c 128,-1,53
 200 436 200 436 200 298 c 0,54,55
 200 123 200 123 350 123 c 0,56,57
 390 123 390 123 428 130 c 1,58,-1
 442 258 l 1,59,-1
 355 258 l 2,60,61
 329 258 329 258 329 298 c 0,62,63
 329 389 329 389 367 389 c 2,64,-1
 571 389 l 2,23,24
EndSplineSet
Validated: 1
Position2: "'cpsp' Capital Spacing lookup 3 subtable" dx=5 dy=0 dh=10 dv=0
EndChar

StartChar: Gcommaaccent
Encoding: 290 290 64
Width: 672
Flags: MW
HStem: -240 21G<257 283.5> -8 131<299.5 364 299.5 371> 258 131<346 571 367 442> 576 132<335 447>
VStem: 41 159<240.5 390.5 240.5 420.5> 260 129<-128.5 -82.5 -128.5 -81.5>
LayerCount: 2
UndoRedoHistory
Layer: 1
Undoes
EndUndoes
Redoes
EndRedoes
EndUndoRedoHistory
Fore
SplineSet
571 389 m 2,0,1
 591 389 591 389 599.5 382 c 128,-1,2
 608 375 608 375 608 358 c 0,3,4
 608 355 608 355 602.5 305.5 c 128,-1,5
 597 256 597 256 589 183 c 128,-1,6
 581 110 581 110 577 71 c 0,7,8
 574 47 574 47 547 30 c 128,-1,9
 520 13 520 13 478.5 5.5 c 128,-1,10
 437 -2 437 -2 403 -5 c 128,-1,11
 369 -8 369 -8 336 -8 c 0,12,13
 186 -8 186 -8 113.5 61.5 c 128,-1,14
 41 131 41 131 41 276 c 0,15,16
 41 491 41 491 137 599.5 c 128,-1,17
 233 708 233 708 416 708 c 0,18,19
 487 708 487 708 553 688.5 c 128,-1,20
 619 669 619 669 619 640 c 0,21,22
 619 619 619 619 590.5 581.5 c 128,-1,23
 562 544 562 544 544 544 c 0,24,25
 541 544 541 544 524.5 552 c 128,-1,26
 508 560 508 560 474.5 568 c 128,-1,27
 441 576 441 576 399 576 c 0,28,29
 302 576 302 576 251 506 c 128,-1,30
 200 436 200 436 200 298 c 0,31,32
 200 123 200 123 350 123 c 0,33,34
 390 123 390 123 428 130 c 1,35,-1
 442 258 l 1,36,-1
 355 258 l 2,37,38
 329 258 329 258 329 298 c 0,39,40
 329 389 329 389 367 389 c 2,41,-1
 571 389 l 2,0,1
344 -51 m 2,42,43
 389 -51 389 -51 389 -95 c 0,44,45
 389 -141 389 -141 342.5 -190.5 c 128,-1,46
 296 -240 296 -240 266 -240 c 0,47,48
 250 -240 250 -240 236 -234 c 0,49,50
 223 -229 223 -229 223 -219 c 1,51,52
 224 -214 224 -214 234 -198 c 0,53,54
 244 -183 244 -183 252 -156.5 c 128,-1,55
 260 -130 260 -130 260 -95 c 0,56,57
 260 -51 260 -51 325 -51 c 2,58,-1
 344 -51 l 2,42,43
EndSplineSet
Validated: 1
Position2: "'cpsp' Capital Spacing lookup 3 subtable" dx=5 dy=0 dh=10 dv=0
EndChar

StartChar: Gdotaccent
Encoding: 288 288 65
Width: 672
Flags: MW
HStem: -8 131<299.5 364 299.5 371> 258 131<346 571 367 442> 576 132<335 447> 755 124<382 410>
VStem: 41 159<240.5 390.5 240.5 420.5> 333 127<776.5 857.5>
LayerCount: 2
UndoRedoHistory
Layer: 1
Undoes
EndUndoes
Redoes
EndRedoes
EndUndoRedoHistory
Fore
SplineSet
340 847 m 2,0,1
 343 879 343 879 403 879 c 0,2,3
 460 879 460 879 460 847 c 1,4,-1
 453 787 l 1,5,6
 448 755 448 755 390 755 c 0,7,8
 333 755 333 755 333 787 c 1,9,-1
 340 847 l 2,0,1
571 389 m 2,10,11
 591 389 591 389 599.5 382 c 128,-1,12
 608 375 608 375 608 358 c 0,13,14
 608 355 608 355 602.5 305.5 c 128,-1,15
 597 256 597 256 589 183 c 128,-1,16
 581 110 581 110 577 71 c 0,17,18
 574 47 574 47 547 30 c 128,-1,19
 520 13 520 13 478.5 5.5 c 128,-1,20
 437 -2 437 -2 403 -5 c 128,-1,21
 369 -8 369 -8 336 -8 c 0,22,23
 186 -8 186 -8 113.5 61.5 c 128,-1,24
 41 131 41 131 41 276 c 0,25,26
 41 491 41 491 137 599.5 c 128,-1,27
 233 708 233 708 416 708 c 0,28,29
 487 708 487 708 553 688.5 c 128,-1,30
 619 669 619 669 619 640 c 0,31,32
 619 619 619 619 590.5 581.5 c 128,-1,33
 562 544 562 544 544 544 c 0,34,35
 541 544 541 544 524.5 552 c 128,-1,36
 508 560 508 560 474.5 568 c 128,-1,37
 441 576 441 576 399 576 c 0,38,39
 302 576 302 576 251 506 c 128,-1,40
 200 436 200 436 200 298 c 0,41,42
 200 123 200 123 350 123 c 0,43,44
 390 123 390 123 428 130 c 1,45,-1
 442 258 l 1,46,-1
 355 258 l 2,47,48
 329 258 329 258 329 298 c 0,49,50
 329 389 329 389 367 389 c 2,51,-1
 571 389 l 2,10,11
EndSplineSet
Validated: 1
Position2: "'cpsp' Capital Spacing lookup 3 subtable" dx=5 dy=0 dh=10 dv=0
EndChar

StartChar: H
Encoding: 72 72 66
Width: 733
Flags: MW
HStem: -2 21G<90.5 99 99 134 515.5 524 524 559> 291 132<238 494 224 508> 682 20G<172 207 207 215.5 597 632 632 640.5>
VStem: 42 647<14.5 685.5>
LayerCount: 2
UndoRedoHistory
Layer: 1
Undoes
EndUndoes
Redoes
EndRedoes
EndUndoRedoHistory
Fore
SplineSet
632 702 m 2,0,1
 689 702 689 702 689 671 c 1,2,-1
 622 30 l 2,3,4
 619 -2 619 -2 559 -2 c 2,5,-1
 524 -2 l 2,6,7
 467 -2 467 -2 467 29 c 1,8,-1
 494 291 l 1,9,-1
 224 291 l 1,10,-1
 197 30 l 2,11,12
 194 -2 194 -2 134 -2 c 2,13,-1
 99 -2 l 2,14,15
 42 -2 42 -2 42 29 c 1,16,-1
 109 670 l 2,17,18
 112 702 112 702 172 702 c 2,19,-1
 207 702 l 2,20,21
 264 702 264 702 264 671 c 1,22,-1
 238 423 l 1,23,-1
 508 423 l 1,24,-1
 534 670 l 2,25,26
 537 702 537 702 597 702 c 2,27,-1
 632 702 l 2,0,1
EndSplineSet
Validated: 1
Position2: "'cpsp' Capital Spacing lookup 3 subtable" dx=5 dy=0 dh=10 dv=0
EndChar

StartChar: Hbar
Encoding: 294 294 67
Width: 733
Flags: MW
HStem: -2 21G<90.5 99 99 134 515.5 524 524 559> 291 132<238 494 224 508> 476 95<53 99 73 89 254 514> 476 226<53 207 62 207 172 244 172 514>
VStem: 36 679<495.5 551> 104 160 529 160
LayerCount: 2
UndoRedoHistory
Layer: 1
Undoes
EndUndoes
Redoes
EndRedoes
EndUndoRedoHistory
Fore
SplineSet
689 571 m 2,0,1
 715 571 715 571 715 541 c 0,2,3
 715 476 715 476 678 476 c 2,4,-1
 669 476 l 1,5,-1
 622 30 l 2,6,7
 619 -2 619 -2 559 -2 c 2,8,-1
 524 -2 l 2,9,10
 467 -2 467 -2 467 29 c 1,11,-1
 494 291 l 1,12,-1
 224 291 l 1,13,-1
 197 30 l 2,14,15
 194 -2 194 -2 134 -2 c 2,16,-1
 99 -2 l 2,17,18
 42 -2 42 -2 42 29 c 1,19,-1
 89 476 l 1,20,-1
 62 476 l 2,21,22
 36 476 36 476 36 506 c 0,23,24
 36 571 36 571 73 571 c 2,25,-1
 99 571 l 1,26,-1
 109 670 l 2,27,28
 112 702 112 702 172 702 c 2,29,-1
 207 702 l 2,30,31
 264 702 264 702 264 671 c 1,32,-1
 254 571 l 1,33,-1
 524 571 l 1,34,-1
 534 670 l 2,35,36
 537 702 537 702 597 702 c 2,37,-1
 632 702 l 2,38,39
 689 702 689 702 689 671 c 1,40,-1
 679 571 l 1,41,-1
 689 571 l 2,0,1
514 476 m 1,42,-1
 244 476 l 1,43,-1
 238 423 l 1,44,-1
 508 423 l 1,45,-1
 514 476 l 1,42,-1
EndSplineSet
Validated: 1
Position2: "'cpsp' Capital Spacing lookup 3 subtable" dx=5 dy=0 dh=10 dv=0
EndChar

StartChar: Hcircumflex
Encoding: 292 292 68
Width: 733
Flags: MW
HStem: -2 21G<90.5 99 99 134 515.5 524 524 559> 291 132<238 494 224 508> 682 20G<172 207 207 215.5 597 632 632 640.5> 749 146<276 420 282 420 409 495 409 517>
VStem: 42 647<14.5 685.5>
LayerCount: 2
UndoRedoHistory
Layer: 1
Undoes
EndUndoes
Redoes
EndRedoes
EndUndoRedoHistory
Fore
SplineSet
420 895 m 2,0,1
 468 895 468 895 479 876 c 2,2,-1
 533 774 l 1,3,4
 536 766 536 766 536 762 c 0,5,6
 536 749 536 749 517 749 c 2,7,-1
 495 749 l 2,8,9
 446 749 446 749 431 773 c 2,10,-1
 406 813 l 1,11,-1
 375 774 l 2,12,13
 356 749 356 749 306 749 c 2,14,-1
 282 749 l 2,15,16
 263 749 263 749 263 759 c 0,17,18
 263 766 263 766 270 774 c 2,19,-1
 346 876 l 2,20,21
 360 895 360 895 409 895 c 2,22,-1
 420 895 l 2,0,1
632 702 m 2,23,24
 689 702 689 702 689 671 c 1,25,-1
 622 30 l 2,26,27
 619 -2 619 -2 559 -2 c 2,28,-1
 524 -2 l 2,29,30
 467 -2 467 -2 467 29 c 1,31,-1
 494 291 l 1,32,-1
 224 291 l 1,33,-1
 197 30 l 2,34,35
 194 -2 194 -2 134 -2 c 2,36,-1
 99 -2 l 2,37,38
 42 -2 42 -2 42 29 c 1,39,-1
 109 670 l 2,40,41
 112 702 112 702 172 702 c 2,42,-1
 207 702 l 2,43,44
 264 702 264 702 264 671 c 1,45,-1
 238 423 l 1,46,-1
 508 423 l 1,47,-1
 534 670 l 2,48,49
 537 702 537 702 597 702 c 2,50,-1
 632 702 l 2,23,24
EndSplineSet
Validated: 1
Position2: "'cpsp' Capital Spacing lookup 3 subtable" dx=5 dy=0 dh=10 dv=0
EndChar

StartChar: Hdotbelow
Encoding: 7716 7716 69
Width: 733
Flags: MW
HStem: -204 124<309 337> -2 21G<90.5 99 99 134 515.5 524 524 559> 291 132<238 494 224 508> 682 20G<172 207 207 215.5 597 632 632 640.5>
VStem: 42 647<14.5 685.5> 260 127<-182.5 -101.5>
LayerCount: 2
UndoRedoHistory
Layer: 1
Undoes
EndUndoes
Redoes
EndRedoes
EndUndoRedoHistory
Fore
SplineSet
632 702 m 2,0,1
 689 702 689 702 689 671 c 1,2,-1
 622 30 l 2,3,4
 619 -2 619 -2 559 -2 c 2,5,-1
 524 -2 l 2,6,7
 467 -2 467 -2 467 29 c 1,8,-1
 494 291 l 1,9,-1
 224 291 l 1,10,-1
 197 30 l 2,11,12
 194 -2 194 -2 134 -2 c 2,13,-1
 99 -2 l 2,14,15
 42 -2 42 -2 42 29 c 1,16,-1
 109 670 l 2,17,18
 112 702 112 702 172 702 c 2,19,-1
 207 702 l 2,20,21
 264 702 264 702 264 671 c 1,22,-1
 238 423 l 1,23,-1
 508 423 l 1,24,-1
 534 670 l 2,25,26
 537 702 537 702 597 702 c 2,27,-1
 632 702 l 2,0,1
267 -112 m 2,28,29
 270 -80 270 -80 330 -80 c 0,30,31
 387 -80 387 -80 387 -112 c 1,32,-1
 380 -172 l 1,33,34
 375 -204 375 -204 317 -204 c 0,35,36
 260 -204 260 -204 260 -172 c 1,37,-1
 267 -112 l 2,28,29
EndSplineSet
Validated: 1
Position2: "'cpsp' Capital Spacing lookup 3 subtable" dx=5 dy=0 dh=10 dv=0
EndChar

StartChar: I
Encoding: 73 73 70
Width: 282
Flags: MW
HStem: -2 21G<78.5 87 87 122> 682 20G<160 195 195 203.5>
VStem: 30 222
LayerCount: 2
UndoRedoHistory
Layer: 1
Undoes
EndUndoes
Redoes
EndRedoes
EndUndoRedoHistory
Fore
SplineSet
195 702 m 2,0,1
 252 702 252 702 252 671 c 1,2,-1
 185 30 l 2,3,4
 182 -2 182 -2 122 -2 c 2,5,-1
 87 -2 l 2,6,7
 30 -2 30 -2 30 29 c 1,8,-1
 97 670 l 2,9,10
 100 702 100 702 160 702 c 2,11,-1
 195 702 l 2,0,1
EndSplineSet
Validated: 1
Position2: "'cpsp' Capital Spacing lookup 3 subtable" dx=5 dy=0 dh=10 dv=0
EndChar

StartChar: IJ
Encoding: 306 306 71
Width: 684
Flags: MW
HStem: -8 131<341 378 326 435.5> -2 21G<78.5 87 87 122> 682 20G<160 195 195 203.5 553 588 588 596.5>
VStem: 30 615
LayerCount: 2
UndoRedoHistory
Layer: 1
Undoes
EndUndoes
Redoes
EndRedoes
EndUndoRedoHistory
Fore
SplineSet
195 702 m 2,0,1
 252 702 252 702 252 671 c 1,2,-1
 185 30 l 2,3,4
 182 -2 182 -2 122 -2 c 2,5,-1
 87 -2 l 2,6,7
 30 -2 30 -2 30 29 c 1,8,-1
 97 670 l 2,9,10
 100 702 100 702 160 702 c 2,11,-1
 195 702 l 2,0,1
588 702 m 2,12,13
 645 702 645 702 645 671 c 1,14,-1
 595 202 l 2,15,16
 584 103 584 103 526.5 47.5 c 128,-1,17
 469 -8 469 -8 361 -8 c 0,18,19
 265 -8 265 -8 265 35 c 0,20,21
 265 132 265 132 285 132 c 0,22,23
 287 132 287 132 294 129.5 c 128,-1,24
 301 127 301 127 315 125 c 128,-1,25
 329 123 329 123 348 123 c 0,26,27
 393 123 393 123 415 147.5 c 128,-1,28
 437 172 437 172 443 227 c 2,29,-1
 490 670 l 2,30,31
 493 702 493 702 553 702 c 2,32,-1
 588 702 l 2,12,13
EndSplineSet
Validated: 1
Position2: "'cpsp' Capital Spacing lookup 3 subtable" dx=5 dy=0 dh=10 dv=0
EndChar

StartChar: Iacute
Encoding: 205 205 72
Width: 282
Flags: MW
HStem: -2 21G<78.5 87 87 122> 682 20G<160 195 195 203.5> 752 159<142 308>
VStem: 30 317
LayerCount: 2
UndoRedoHistory
Layer: 1
Undoes
EndUndoes
Redoes
EndRedoes
EndUndoRedoHistory
Fore
SplineSet
289 911 m 0,0,1
 347 911 347 911 347 898 c 0,2,3
 347 891 347 891 342.5 885.5 c 128,-1,4
 338 880 338 880 307 851 c 0,5,6
 266 811 266 811 231 777 c 0,7,8
 206 752 206 752 153 752 c 0,9,10
 124 752 124 752 124 765 c 0,11,12
 124 768 124 768 126 772.5 c 128,-1,13
 128 777 128 777 134.5 786.5 c 128,-1,14
 141 796 141 796 148.5 807 c 128,-1,15
 156 818 156 818 171 839.5 c 128,-1,16
 186 861 186 861 201 884 c 0,17,18
 219 911 219 911 289 911 c 0,0,1
195 702 m 2,19,20
 252 702 252 702 252 671 c 1,21,-1
 185 30 l 2,22,23
 182 -2 182 -2 122 -2 c 2,24,-1
 87 -2 l 2,25,26
 30 -2 30 -2 30 29 c 1,27,-1
 97 670 l 2,28,29
 100 702 100 702 160 702 c 2,30,-1
 195 702 l 2,19,20
EndSplineSet
Validated: 1
Position2: "'cpsp' Capital Spacing lookup 3 subtable" dx=5 dy=0 dh=10 dv=0
EndChar

StartChar: Ibreve
Encoding: 300 300 73
Width: 282
Flags: MW
HStem: -2 21G<78.5 87 87 122> 682 20G<160 195 195 203.5> 752 91<168.5 223 168.5 227>
VStem: 30 313
LayerCount: 2
UndoRedoHistory
Layer: 1
Undoes
EndUndoes
Redoes
EndRedoes
EndUndoRedoHistory
Fore
SplineSet
311 892 m 0,0,1
 343 892 343 892 343 868 c 0,2,3
 343 823 343 823 295.5 787.5 c 128,-1,4
 248 752 248 752 184 752 c 0,5,6
 124 752 124 752 86 782.5 c 128,-1,7
 48 813 48 813 48 855 c 0,8,9
 48 892 48 892 87 892 c 0,10,11
 104 892 104 892 118 874 c 0,12,13
 142 843 142 843 194 843 c 0,14,15
 211 843 211 843 223.5 845 c 128,-1,16
 236 847 236 847 246 852.5 c 128,-1,17
 256 858 256 858 260 860 c 128,-1,18
 264 862 264 862 273 870 c 2,19,-1
 282 879 l 2,20,21
 295 892 295 892 311 892 c 0,0,1
195 702 m 2,22,23
 252 702 252 702 252 671 c 1,24,-1
 185 30 l 2,25,26
 182 -2 182 -2 122 -2 c 2,27,-1
 87 -2 l 2,28,29
 30 -2 30 -2 30 29 c 1,30,-1
 97 670 l 2,31,32
 100 702 100 702 160 702 c 2,33,-1
 195 702 l 2,22,23
EndSplineSet
Validated: 1
Position2: "'cpsp' Capital Spacing lookup 3 subtable" dx=5 dy=0 dh=10 dv=0
EndChar

StartChar: Icircumflex
Encoding: 206 206 74
Width: 282
Flags: MW
HStem: -2 21G<78.5 87 87 122> 682 20G<160 195 195 203.5> 749 146<58 202 64 202 191 277 191 299>
VStem: 30 288
LayerCount: 2
UndoRedoHistory
Layer: 1
Undoes
EndUndoes
Redoes
EndRedoes
EndUndoRedoHistory
Fore
SplineSet
202 895 m 2,0,1
 250 895 250 895 261 876 c 2,2,-1
 315 774 l 1,3,4
 318 766 318 766 318 762 c 0,5,6
 318 749 318 749 299 749 c 2,7,-1
 277 749 l 2,8,9
 228 749 228 749 213 773 c 2,10,-1
 188 813 l 1,11,-1
 157 774 l 2,12,13
 138 749 138 749 88 749 c 2,14,-1
 64 749 l 2,15,16
 45 749 45 749 45 759 c 0,17,18
 45 766 45 766 52 774 c 2,19,-1
 128 876 l 2,20,21
 142 895 142 895 191 895 c 2,22,-1
 202 895 l 2,0,1
195 702 m 2,23,24
 252 702 252 702 252 671 c 1,25,-1
 185 30 l 2,26,27
 182 -2 182 -2 122 -2 c 2,28,-1
 87 -2 l 2,29,30
 30 -2 30 -2 30 29 c 1,31,-1
 97 670 l 2,32,33
 100 702 100 702 160 702 c 2,34,-1
 195 702 l 2,23,24
EndSplineSet
Validated: 1
Position2: "'cpsp' Capital Spacing lookup 3 subtable" dx=5 dy=0 dh=10 dv=0
EndChar

StartChar: Idieresis
Encoding: 207 207 75
Width: 282
Flags: MW
HStem: -2 21G<78.5 87 87 122> 682 20G<160 195 195 203.5> 755 124<90 118 270 298>
VStem: 41 127<776.5 857.5> 221 127<776.5 857.5>
LayerCount: 2
UndoRedoHistory
Layer: 1
Undoes
EndUndoes
Redoes
EndRedoes
EndUndoRedoHistory
Fore
SplineSet
48 847 m 2,0,1
 51 879 51 879 111 879 c 0,2,3
 168 879 168 879 168 847 c 1,4,-1
 161 787 l 1,5,6
 156 755 156 755 98 755 c 0,7,8
 41 755 41 755 41 787 c 1,9,-1
 48 847 l 2,0,1
228 847 m 2,10,11
 231 879 231 879 291 879 c 0,12,13
 348 879 348 879 348 847 c 1,14,-1
 341 787 l 1,15,16
 336 755 336 755 278 755 c 0,17,18
 221 755 221 755 221 787 c 1,19,-1
 228 847 l 2,10,11
195 702 m 2,20,21
 252 702 252 702 252 671 c 1,22,-1
 185 30 l 2,23,24
 182 -2 182 -2 122 -2 c 2,25,-1
 87 -2 l 2,26,27
 30 -2 30 -2 30 29 c 1,28,-1
 97 670 l 2,29,30
 100 702 100 702 160 702 c 2,31,-1
 195 702 l 2,20,21
EndSplineSet
Validated: 1
Position2: "'cpsp' Capital Spacing lookup 3 subtable" dx=5 dy=0 dh=10 dv=0
EndChar

StartChar: Idotaccent
Encoding: 304 304 76
Width: 282
Flags: MW
HStem: -2 21G<78.5 87 87 122> 682 20G<160 195 195 203.5> 755 124<166 194>
VStem: 117 127<776.5 857.5>
LayerCount: 2
UndoRedoHistory
Layer: 1
Undoes
EndUndoes
Redoes
EndRedoes
EndUndoRedoHistory
Fore
SplineSet
124 847 m 2,0,1
 127 879 127 879 187 879 c 0,2,3
 244 879 244 879 244 847 c 1,4,-1
 237 787 l 1,5,6
 232 755 232 755 174 755 c 0,7,8
 117 755 117 755 117 787 c 1,9,-1
 124 847 l 2,0,1
195 702 m 2,10,11
 252 702 252 702 252 671 c 1,12,-1
 185 30 l 2,13,14
 182 -2 182 -2 122 -2 c 2,15,-1
 87 -2 l 2,16,17
 30 -2 30 -2 30 29 c 1,18,-1
 97 670 l 2,19,20
 100 702 100 702 160 702 c 2,21,-1
 195 702 l 2,10,11
EndSplineSet
Validated: 1
Position2: "'cpsp' Capital Spacing lookup 3 subtable" dx=5 dy=0 dh=10 dv=0
EndChar

StartChar: Idotbelow
Encoding: 7882 7882 77
Width: 282
Flags: MW
HStem: -204 124<71 99> -2 21G<78.5 87 87 122> 682 20G<160 195 195 203.5>
VStem: 22 127<-182.5 -101.5> 22 230
LayerCount: 2
UndoRedoHistory
Layer: 1
Undoes
EndUndoes
Redoes
EndRedoes
EndUndoRedoHistory
Fore
SplineSet
195 702 m 2,0,1
 252 702 252 702 252 671 c 1,2,-1
 185 30 l 2,3,4
 182 -2 182 -2 122 -2 c 2,5,-1
 87 -2 l 2,6,7
 30 -2 30 -2 30 29 c 1,8,-1
 97 670 l 2,9,10
 100 702 100 702 160 702 c 2,11,-1
 195 702 l 2,0,1
29 -112 m 2,12,13
 32 -80 32 -80 92 -80 c 0,14,15
 149 -80 149 -80 149 -112 c 1,16,-1
 142 -172 l 1,17,18
 137 -204 137 -204 79 -204 c 0,19,20
 22 -204 22 -204 22 -172 c 1,21,-1
 29 -112 l 2,12,13
EndSplineSet
Validated: 1
Position2: "'cpsp' Capital Spacing lookup 3 subtable" dx=5 dy=0 dh=10 dv=0
EndChar

StartChar: Igrave
Encoding: 204 204 78
Width: 282
Flags: MW
HStem: -2 21G<78.5 87 87 122> 682 20G<160 195 195 203.5> 752 159<90 225>
VStem: 30 222
LayerCount: 2
UndoRedoHistory
Layer: 1
Undoes
EndUndoes
Redoes
EndRedoes
EndUndoRedoHistory
Fore
SplineSet
111 911 m 0,0,1
 180 911 180 911 193 884 c 0,2,3
 203 863 203 863 212.5 843 c 128,-1,4
 222 823 222 823 227.5 812 c 128,-1,5
 233 801 233 801 237.5 791 c 128,-1,6
 242 781 242 781 244 776 c 128,-1,7
 246 771 246 771 246 768 c 0,8,9
 246 752 246 752 213 752 c 0,10,11
 162 752 162 752 141 777 c 0,12,13
 118 806 118 806 87 842 c 0,14,15
 49 888 49 888 49 895 c 0,16,17
 49 911 49 911 111 911 c 0,0,1
195 702 m 2,18,19
 252 702 252 702 252 671 c 1,20,-1
 185 30 l 2,21,22
 182 -2 182 -2 122 -2 c 2,23,-1
 87 -2 l 2,24,25
 30 -2 30 -2 30 29 c 1,26,-1
 97 670 l 2,27,28
 100 702 100 702 160 702 c 2,29,-1
 195 702 l 2,18,19
EndSplineSet
Validated: 1
Position2: "'cpsp' Capital Spacing lookup 3 subtable" dx=5 dy=0 dh=10 dv=0
EndChar

StartChar: Ihookabove
Encoding: 7880 7880 79
Width: 282
Flags: MW
HStem: -2 21G<78.5 87 87 122> 682 20G<160 195 195 203.5> 867 61<188.5 201.5>
VStem: 224 87<828 852>
LayerCount: 2
UndoRedoHistory
Layer: 1
Undoes
EndUndoes
Redoes
EndRedoes
EndUndoRedoHistory
Fore
SplineSet
224 845 m 0,0,1
 224 867 224 867 192 867 c 0,2,3
 179 867 179 867 165 861 c 128,-1,4
 151 855 151 855 148 855 c 0,5,6
 142 855 142 855 132.5 870.5 c 128,-1,7
 123 886 123 886 123 897 c 0,8,9
 123 907 123 907 151.5 917.5 c 128,-1,10
 180 928 180 928 206 928 c 0,11,12
 255 928 255 928 283 906.5 c 128,-1,13
 311 885 311 885 311 851 c 128,-1,14
 311 817 311 817 269 782 c 128,-1,15
 227 747 227 747 209 747 c 0,16,17
 182 747 182 747 167 753.5 c 128,-1,18
 152 760 152 760 152 768 c 0,19,20
 152 778 152 778 188 802 c 128,-1,21
 224 826 224 826 224 845 c 0,0,1
195 702 m 2,22,23
 252 702 252 702 252 671 c 1,24,-1
 185 30 l 2,25,26
 182 -2 182 -2 122 -2 c 2,27,-1
 87 -2 l 2,28,29
 30 -2 30 -2 30 29 c 1,30,-1
 97 670 l 2,31,32
 100 702 100 702 160 702 c 2,33,-1
 195 702 l 2,22,23
EndSplineSet
Validated: 1
Position2: "'cpsp' Capital Spacing lookup 3 subtable" dx=5 dy=0 dh=10 dv=0
EndChar

StartChar: Imacron
Encoding: 298 298 80
Width: 282
Flags: MW
HStem: -2 21G<78.5 87 87 122> 682 20G<160 195 195 203.5> 774 95<75 311 95 300>
VStem: 30 307
LayerCount: 2
UndoRedoHistory
Layer: 1
Undoes
EndUndoes
Redoes
EndRedoes
EndUndoRedoHistory
Fore
SplineSet
311 869 m 2,0,1
 337 869 337 869 337 839 c 0,2,3
 337 774 337 774 300 774 c 2,4,-1
 84 774 l 2,5,6
 58 774 58 774 58 804 c 0,7,8
 58 869 58 869 95 869 c 2,9,-1
 311 869 l 2,0,1
195 702 m 2,10,11
 252 702 252 702 252 671 c 1,12,-1
 185 30 l 2,13,14
 182 -2 182 -2 122 -2 c 2,15,-1
 87 -2 l 2,16,17
 30 -2 30 -2 30 29 c 1,18,-1
 97 670 l 2,19,20
 100 702 100 702 160 702 c 2,21,-1
 195 702 l 2,10,11
EndSplineSet
Validated: 1
Position2: "'cpsp' Capital Spacing lookup 3 subtable" dx=5 dy=0 dh=10 dv=0
EndChar

StartChar: Iogonek
Encoding: 302 302 81
Width: 282
Flags: MW
HStem: -183 70<171 183> -2 21G<78.5 87> -1 21G<142 142> 682 20G<160 195 195 203.5>
VStem: 55 69<-90 -81.5>
LayerCount: 2
UndoRedoHistory
Layer: 1
Undoes
EndUndoes
Redoes
EndRedoes
EndUndoRedoHistory
Fore
SplineSet
185 30 m 2,0,1
 182 4 182 4 142 -1 c 1,2,-1
 142 -3 l 2,3,4
 142 -9 142 -9 133 -29.5 c 128,-1,5
 124 -50 124 -50 124 -70 c 0,6,7
 124 -113 124 -113 182 -113 c 0,8,9
 200 -113 200 -113 219 -106 c 128,-1,10
 238 -99 238 -99 240 -99 c 0,11,12
 251 -99 251 -99 251 -129 c 0,13,14
 251 -158 251 -158 225 -170.5 c 128,-1,15
 199 -183 199 -183 163 -183 c 0,16,17
 101 -183 101 -183 78 -156 c 128,-1,18
 55 -129 55 -129 55 -94 c 0,19,20
 55 -34 55 -34 87 -2 c 1,21,22
 30 -2 30 -2 30 29 c 1,23,-1
 97 670 l 2,24,25
 100 702 100 702 160 702 c 2,26,-1
 195 702 l 2,27,28
 252 702 252 702 252 671 c 1,29,-1
 185 30 l 2,0,1
EndSplineSet
Validated: 1
Position2: "'cpsp' Capital Spacing lookup 3 subtable" dx=5 dy=0 dh=10 dv=0
EndChar

StartChar: Itilde
Encoding: 296 296 82
Width: 282
Flags: MW
HStem: -2 21G<78.5 87 87 122> 682 20G<160 195 195 203.5> 758 86<241.5 254.5> 770 100
VStem: 30 316
LayerCount: 2
UndoRedoHistory
Layer: 1
Undoes
EndUndoes
Redoes
EndRedoes
EndUndoRedoHistory
Fore
SplineSet
299 859 m 0,0,1
 309 865 309 865 316 865 c 0,2,3
 330 865 330 865 338 851 c 1,4,5
 346 840 346 840 346 831 c 0,6,7
 346 820 346 820 331 799 c 1,8,9
 295 758 295 758 236 758 c 0,10,11
 203 758 203 758 172 770 c 0,12,13
 135 784 135 784 125 784 c 0,14,15
 106 784 106 784 80 770 c 0,16,17
 72 766 72 766 69 766 c 0,18,19
 56 766 56 766 46 783 c 0,20,21
 38 796 38 796 38 807 c 0,22,23
 38 820 38 820 47 829 c 0,24,25
 93 870 93 870 140 870 c 0,26,27
 171 870 171 870 202 857 c 0,28,29
 232 844 232 844 250 844 c 0,30,31
 276 844 276 844 299 859 c 0,0,1
195 702 m 2,32,33
 252 702 252 702 252 671 c 1,34,-1
 185 30 l 2,35,36
 182 -2 182 -2 122 -2 c 2,37,-1
 87 -2 l 2,38,39
 30 -2 30 -2 30 29 c 1,40,-1
 97 670 l 2,41,42
 100 702 100 702 160 702 c 2,43,-1
 195 702 l 2,32,33
EndSplineSet
Validated: 1
Position2: "'cpsp' Capital Spacing lookup 3 subtable" dx=5 dy=0 dh=10 dv=0
EndChar

StartChar: J
Encoding: 74 74 83
Width: 402
Flags: MW
HStem: -8 131<59 96 44 153.5> 682 20G<271 306 306 314.5>
VStem: -17 380
LayerCount: 2
UndoRedoHistory
Layer: 1
Undoes
EndUndoes
Redoes
EndRedoes
EndUndoRedoHistory
Fore
SplineSet
306 702 m 2,0,1
 363 702 363 702 363 671 c 1,2,-1
 313 202 l 2,3,4
 302 103 302 103 244.5 47.5 c 128,-1,5
 187 -8 187 -8 79 -8 c 0,6,7
 -17 -8 -17 -8 -17 35 c 0,8,9
 -17 132 -17 132 3 132 c 0,10,11
 5 132 5 132 12 129.5 c 128,-1,12
 19 127 19 127 33 125 c 128,-1,13
 47 123 47 123 66 123 c 0,14,15
 111 123 111 123 133 147.5 c 128,-1,16
 155 172 155 172 161 227 c 2,17,-1
 208 670 l 2,18,19
 211 702 211 702 271 702 c 2,20,-1
 306 702 l 2,0,1
EndSplineSet
Validated: 1
Position2: "'cpsp' Capital Spacing lookup 3 subtable" dx=5 dy=0 dh=10 dv=0
EndChar

StartChar: Jcircumflex
Encoding: 308 308 84
Width: 402
Flags: MW
HStem: -8 131<59 96 44 153.5> 682 20G<271 306 306 314.5> 749 146<167 311 173 311 300 386 300 408>
VStem: -17 444
LayerCount: 2
UndoRedoHistory
Layer: 1
Undoes
EndUndoes
Redoes
EndRedoes
EndUndoRedoHistory
Fore
SplineSet
311 895 m 2,0,1
 359 895 359 895 370 876 c 2,2,-1
 424 774 l 1,3,4
 427 766 427 766 427 762 c 0,5,6
 427 749 427 749 408 749 c 2,7,-1
 386 749 l 2,8,9
 337 749 337 749 322 773 c 2,10,-1
 297 813 l 1,11,-1
 266 774 l 2,12,13
 247 749 247 749 197 749 c 2,14,-1
 173 749 l 2,15,16
 154 749 154 749 154 759 c 0,17,18
 154 766 154 766 161 774 c 2,19,-1
 237 876 l 2,20,21
 251 895 251 895 300 895 c 2,22,-1
 311 895 l 2,0,1
306 702 m 2,23,24
 363 702 363 702 363 671 c 1,25,-1
 313 202 l 2,26,27
 302 103 302 103 244.5 47.5 c 128,-1,28
 187 -8 187 -8 79 -8 c 0,29,30
 -17 -8 -17 -8 -17 35 c 0,31,32
 -17 132 -17 132 3 132 c 0,33,34
 5 132 5 132 12 129.5 c 128,-1,35
 19 127 19 127 33 125 c 128,-1,36
 47 123 47 123 66 123 c 0,37,38
 111 123 111 123 133 147.5 c 128,-1,39
 155 172 155 172 161 227 c 2,40,-1
 208 670 l 2,41,42
 211 702 211 702 271 702 c 2,43,-1
 306 702 l 2,23,24
EndSplineSet
Validated: 1
Position2: "'cpsp' Capital Spacing lookup 3 subtable" dx=5 dy=0 dh=10 dv=0
EndChar

StartChar: K
Encoding: 75 75 85
Width: 576
Flags: MW
HStem: -2 21G<70.5 92 92 127 424 440 440 498> 682 20G<165 200 200 221.5 498 545 545 564>
VStem: 35 565
LayerCount: 2
UndoRedoHistory
Layer: 1
Undoes
EndUndoes
Redoes
EndRedoes
EndUndoRedoHistory
Fore
SplineSet
545 702 m 2,0,1
 600 702 600 702 600 688 c 0,2,3
 600 679 600 679 590 666 c 2,4,-1
 366 370 l 1,5,-1
 549 34 l 2,6,7
 555 22 555 22 555 16 c 0,8,9
 555 -2 555 -2 498 -2 c 2,10,-1
 440 -2 l 2,11,12
 390 -2 390 -2 381 17 c 2,13,-1
 224 321 l 1,14,-1
 220 320 l 1,15,-1
 190 30 l 2,16,17
 187 -2 187 -2 127 -2 c 2,18,-1
 92 -2 l 2,19,20
 35 -2 35 -2 35 30 c 1,21,-1
 102 670 l 2,22,23
 105 702 105 702 165 702 c 2,24,-1
 200 702 l 2,25,26
 257 702 257 702 257 670 c 1,27,-1
 229 402 l 1,28,-1
 233 401 l 1,29,-1
 436 683 l 2,30,31
 450 702 450 702 498 702 c 2,32,-1
 545 702 l 2,0,1
EndSplineSet
Validated: 1
Position2: "'cpsp' Capital Spacing lookup 3 subtable" dx=5 dy=0 dh=10 dv=0
EndChar

StartChar: Kcommaaccent
Encoding: 310 310 86
Width: 576
Flags: MW
HStem: -240 21G<191 217.5> -2 21G<70.5 92 92 127 424 440 440 498> 682 20G<165 200 200 221.5 498 545 545 564>
VStem: 194 129<-128.5 -82.5 -128.5 -81.5>
LayerCount: 2
UndoRedoHistory
Layer: 1
Undoes
EndUndoes
Redoes
EndRedoes
EndUndoRedoHistory
Fore
SplineSet
545 702 m 2,0,1
 600 702 600 702 600 688 c 0,2,3
 600 679 600 679 590 666 c 2,4,-1
 366 370 l 1,5,-1
 549 34 l 2,6,7
 555 22 555 22 555 16 c 0,8,9
 555 -2 555 -2 498 -2 c 2,10,-1
 440 -2 l 2,11,12
 390 -2 390 -2 381 17 c 2,13,-1
 224 321 l 1,14,-1
 220 320 l 1,15,-1
 190 30 l 2,16,17
 187 -2 187 -2 127 -2 c 2,18,-1
 92 -2 l 2,19,20
 35 -2 35 -2 35 30 c 1,21,-1
 102 670 l 2,22,23
 105 702 105 702 165 702 c 2,24,-1
 200 702 l 2,25,26
 257 702 257 702 257 670 c 1,27,-1
 229 402 l 1,28,-1
 233 401 l 1,29,-1
 436 683 l 2,30,31
 450 702 450 702 498 702 c 2,32,-1
 545 702 l 2,0,1
278 -51 m 2,33,34
 323 -51 323 -51 323 -95 c 0,35,36
 323 -141 323 -141 276.5 -190.5 c 128,-1,37
 230 -240 230 -240 200 -240 c 0,38,39
 184 -240 184 -240 170 -234 c 0,40,41
 157 -229 157 -229 157 -219 c 1,42,43
 158 -214 158 -214 168 -198 c 0,44,45
 178 -183 178 -183 186 -156.5 c 128,-1,46
 194 -130 194 -130 194 -95 c 0,47,48
 194 -51 194 -51 259 -51 c 2,49,-1
 278 -51 l 2,33,34
EndSplineSet
Validated: 1
Position2: "'cpsp' Capital Spacing lookup 3 subtable" dx=5 dy=0 dh=10 dv=0
EndChar

StartChar: L
Encoding: 76 76 87
Width: 484
Flags: MW
HStem: 0 131<58.5 424 201 412> 682 20G<166 201 201 209.5>
VStem: 36 414<20 105>
LayerCount: 2
UndoRedoHistory
Layer: 1
Undoes
EndUndoes
Redoes
EndRedoes
EndUndoRedoHistory
Fore
SplineSet
201 702 m 2,0,1
 258 702 258 702 258 671 c 1,2,-1
 201 131 l 1,3,-1
 424 131 l 2,4,5
 450 131 450 131 450 91 c 0,6,7
 450 0 450 0 412 0 c 2,8,-1
 72 0 l 2,9,10
 52 0 52 0 44 7 c 128,-1,11
 36 14 36 14 36 32 c 1,12,-1
 103 670 l 2,13,14
 106 702 106 702 166 702 c 2,15,-1
 201 702 l 2,0,1
EndSplineSet
Validated: 1
Position2: "'cpsp' Capital Spacing lookup 3 subtable" dx=5 dy=0 dh=10 dv=0
EndChar

StartChar: LJ
Encoding: 455 455 88
Width: 718
Flags: MW
HStem: -182 131<372 409 357 466.5> 0 131<58.5 354 201 342> 682 20G<166 201 201 209.5 604 639 639 647.5>
VStem: 36 660<20 685.5>
LayerCount: 2
UndoRedoHistory
Layer: 1
Undoes
EndUndoes
Redoes
EndRedoes
EndUndoRedoHistory
Fore
SplineSet
201 702 m 2,0,1
 258 702 258 702 258 671 c 1,2,-1
 201 131 l 1,3,-1
 354 131 l 2,4,5
 380 131 380 131 380 91 c 0,6,7
 380 0 380 0 342 0 c 2,8,-1
 72 0 l 2,9,10
 52 0 52 0 44 7 c 128,-1,11
 36 14 36 14 36 32 c 1,12,-1
 103 670 l 2,13,14
 106 702 106 702 166 702 c 2,15,-1
 201 702 l 2,0,1
639 702 m 2,16,17
 696 702 696 702 696 671 c 1,18,-1
 626 28 l 2,19,20
 615 -71 615 -71 557.5 -126.5 c 128,-1,21
 500 -182 500 -182 392 -182 c 0,22,23
 296 -182 296 -182 296 -139 c 0,24,25
 296 -42 296 -42 316 -42 c 0,26,27
 318 -42 318 -42 325 -44 c 128,-1,28
 332 -46 332 -46 346 -48.5 c 128,-1,29
 360 -51 360 -51 379 -51 c 0,30,31
 424 -51 424 -51 446 -26.5 c 128,-1,32
 468 -2 468 -2 474 53 c 2,33,-1
 541 670 l 2,34,35
 544 702 544 702 604 702 c 2,36,-1
 639 702 l 2,16,17
EndSplineSet
Validated: 1
Position2: "'cpsp' Capital Spacing lookup 3 subtable" dx=5 dy=0 dh=10 dv=0
EndChar

StartChar: Lacute
Encoding: 313 313 89
Width: 484
Flags: MW
HStem: 0 131<58.5 424 201 412> 682 20G<166 201 201 209.5> 752 159<145 311>
VStem: 36 414<20 105>
LayerCount: 2
UndoRedoHistory
Layer: 1
Undoes
EndUndoes
Redoes
EndRedoes
EndUndoRedoHistory
Fore
SplineSet
292 911 m 0,0,1
 350 911 350 911 350 898 c 0,2,3
 350 891 350 891 345.5 885.5 c 128,-1,4
 341 880 341 880 310 851 c 0,5,6
 269 811 269 811 234 777 c 0,7,8
 209 752 209 752 156 752 c 0,9,10
 127 752 127 752 127 765 c 0,11,12
 127 768 127 768 129 772.5 c 128,-1,13
 131 777 131 777 137.5 786.5 c 128,-1,14
 144 796 144 796 151.5 807 c 128,-1,15
 159 818 159 818 174 839.5 c 128,-1,16
 189 861 189 861 204 884 c 0,17,18
 222 911 222 911 292 911 c 0,0,1
201 702 m 2,19,20
 258 702 258 702 258 671 c 1,21,-1
 201 131 l 1,22,-1
 424 131 l 2,23,24
 450 131 450 131 450 91 c 0,25,26
 450 0 450 0 412 0 c 2,27,-1
 72 0 l 2,28,29
 52 0 52 0 44 7 c 128,-1,30
 36 14 36 14 36 32 c 1,31,-1
 103 670 l 2,32,33
 106 702 106 702 166 702 c 2,34,-1
 201 702 l 2,19,20
EndSplineSet
Validated: 1
Position2: "'cpsp' Capital Spacing lookup 3 subtable" dx=5 dy=0 dh=10 dv=0
EndChar

StartChar: Lcaron
Encoding: 317 317 90
Width: 484
Flags: MW
HStem: 0 131<58.5 424 201 412> 680 20G<405 424 424 441.5> 682 20G<166 201 201 209.5>
VStem: 340 129<622.5 668.5 622.5 669.5>
LayerCount: 2
UndoRedoHistory
Layer: 1
Undoes
EndUndoes
Redoes
EndRedoes
EndUndoRedoHistory
Fore
SplineSet
201 702 m 2,0,1
 258 702 258 702 258 671 c 1,2,-1
 201 131 l 1,3,-1
 424 131 l 2,4,5
 450 131 450 131 450 91 c 0,6,7
 450 0 450 0 412 0 c 2,8,-1
 72 0 l 2,9,10
 52 0 52 0 44 7 c 128,-1,11
 36 14 36 14 36 32 c 1,12,-1
 103 670 l 2,13,14
 106 702 106 702 166 702 c 2,15,-1
 201 702 l 2,0,1
424 700 m 2,16,17
 469 700 469 700 469 656 c 0,18,19
 469 610 469 610 430 560.5 c 128,-1,20
 391 511 391 511 366 511 c 0,21,22
 350 511 350 511 336.5 516.5 c 128,-1,23
 323 522 323 522 323 532 c 0,24,25
 323 535 323 535 331.5 572 c 128,-1,26
 340 609 340 609 340 656 c 0,27,28
 340 700 340 700 405 700 c 2,29,-1
 424 700 l 2,16,17
EndSplineSet
Validated: 1
Position2: "'cpsp' Capital Spacing lookup 3 subtable" dx=5 dy=0 dh=10 dv=0
EndChar

StartChar: Lcommaaccent
Encoding: 315 315 91
Width: 484
Flags: MW
HStem: -240 21G<139 165.5> 0 131<58.5 424 201 412> 682 20G<166 201 201 209.5>
VStem: 142 129<-128.5 -82.5 -128.5 -81.5>
LayerCount: 2
UndoRedoHistory
Layer: 1
Undoes
EndUndoes
Redoes
EndRedoes
EndUndoRedoHistory
Fore
SplineSet
201 702 m 2,0,1
 258 702 258 702 258 671 c 1,2,-1
 201 131 l 1,3,-1
 424 131 l 2,4,5
 450 131 450 131 450 91 c 0,6,7
 450 0 450 0 412 0 c 2,8,-1
 72 0 l 2,9,10
 52 0 52 0 44 7 c 128,-1,11
 36 14 36 14 36 32 c 1,12,-1
 103 670 l 2,13,14
 106 702 106 702 166 702 c 2,15,-1
 201 702 l 2,0,1
226 -51 m 2,16,17
 271 -51 271 -51 271 -95 c 0,18,19
 271 -141 271 -141 224.5 -190.5 c 128,-1,20
 178 -240 178 -240 148 -240 c 0,21,22
 132 -240 132 -240 118 -234 c 0,23,24
 105 -229 105 -229 105 -219 c 1,25,26
 106 -214 106 -214 116 -198 c 0,27,28
 126 -183 126 -183 134 -156.5 c 128,-1,29
 142 -130 142 -130 142 -95 c 0,30,31
 142 -51 142 -51 207 -51 c 2,32,-1
 226 -51 l 2,16,17
EndSplineSet
Validated: 1
Position2: "'cpsp' Capital Spacing lookup 3 subtable" dx=5 dy=0 dh=10 dv=0
EndChar

StartChar: Ldot
Encoding: 319 319 92
Width: 484
Flags: MW
HStem: 0 131<58.5 424 201 412> 289 140<312.5 346> 682 20G<166 201 201 209.5>
VStem: 260 141<345 369>
LayerCount: 2
UndoRedoHistory
Layer: 1
Undoes
EndUndoes
Redoes
EndRedoes
EndUndoRedoHistory
Fore
SplineSet
201 702 m 2,0,1
 258 702 258 702 258 671 c 1,2,-1
 201 131 l 1,3,-1
 424 131 l 2,4,5
 450 131 450 131 450 91 c 0,6,7
 450 0 450 0 412 0 c 2,8,-1
 72 0 l 2,9,10
 52 0 52 0 44 7 c 128,-1,11
 36 14 36 14 36 32 c 1,12,-1
 103 670 l 2,13,14
 106 702 106 702 166 702 c 2,15,-1
 201 702 l 2,0,1
338 429 m 0,16,17
 365 429 365 429 383 411 c 128,-1,18
 401 393 401 393 401 366 c 0,19,20
 401 334 401 334 379 311.5 c 128,-1,21
 357 289 357 289 323 289 c 0,22,23
 296 289 296 289 278 306.5 c 128,-1,24
 260 324 260 324 260 350 c 0,25,26
 260 381 260 381 281 405 c 128,-1,27
 302 429 302 429 338 429 c 0,16,17
EndSplineSet
Validated: 1
Ligature2: "Ligature Substitution lookup 20 subtable" L periodcentered
Position2: "'cpsp' Capital Spacing lookup 3 subtable" dx=5 dy=0 dh=10 dv=0
EndChar

StartChar: Lj
Encoding: 456 456 93
Width: 760
Flags: MW
HStem: -212 117<478 480.5 458 541> 0 131<58.5 424 201 412> 609 145<617 680 652 665> 682 20G<166 201 201 209.5>
VStem: 36 701<20 731> 580 157<632 731>
LayerCount: 2
UndoRedoHistory
Layer: 1
Undoes
EndUndoes
Redoes
EndRedoes
EndUndoRedoHistory
Fore
SplineSet
680 754 m 2,0,1
 708 754 708 754 722.5 745 c 128,-1,2
 737 736 737 736 737 723 c 1,3,-1
 728 641 l 2,4,5
 725 609 725 609 665 609 c 2,6,-1
 637 609 l 2,7,8
 609 609 609 609 594.5 618 c 128,-1,9
 580 627 580 627 580 640 c 1,10,-1
 589 722 l 2,11,12
 592 754 592 754 652 754 c 2,13,-1
 680 754 l 2,0,1
201 702 m 2,14,15
 258 702 258 702 258 671 c 1,16,-1
 201 131 l 1,17,-1
 424 131 l 2,18,19
 450 131 450 131 450 91 c 0,20,21
 450 0 450 0 412 0 c 2,22,-1
 72 0 l 2,23,24
 52 0 52 0 44 7 c 128,-1,25
 36 14 36 14 36 32 c 1,26,-1
 103 670 l 2,27,28
 106 702 106 702 166 702 c 2,29,-1
 201 702 l 2,14,15
656 525 m 2,30,31
 684 525 684 525 698.5 516 c 128,-1,32
 713 507 713 507 713 494 c 1,33,-1
 656 -50 l 2,34,35
 648 -127 648 -127 606 -169.5 c 128,-1,36
 564 -212 564 -212 493 -212 c 0,37,38
 415 -212 415 -212 415 -173 c 0,39,40
 415 -90 415 -90 433 -90 c 0,41,42
 434 -90 434 -90 445 -92.5 c 128,-1,43
 456 -95 456 -95 468 -95 c 0,44,45
 504 -95 504 -95 508 -52 c 2,46,-1
 565 493 l 2,47,48
 568 525 568 525 628 525 c 2,49,-1
 656 525 l 2,30,31
EndSplineSet
Validated: 1
Position2: "'cpsp' Capital Spacing lookup 3 subtable" dx=5 dy=0 dh=10 dv=0
EndChar

StartChar: Lslash
Encoding: 321 321 94
Width: 486
Flags: MW
HStem: 0 131<59.5 425 202 413> 682 20G<167 202 202 210.5>
VStem: 20 431<65 323.5>
LayerCount: 2
UndoRedoHistory
Layer: 1
Undoes
EndUndoes
Redoes
EndRedoes
EndUndoRedoHistory
Fore
SplineSet
202 702 m 2,0,1
 259 702 259 702 259 671 c 1,2,-1
 238 475 l 1,3,-1
 330 528 l 2,4,5
 340 534 340 534 346 534 c 0,6,7
 355 534 355 534 355 514 c 0,8,9
 355 466 355 466 322 448 c 2,10,-1
 230 395 l 1,11,-1
 202 131 l 1,12,-1
 425 131 l 2,13,14
 451 131 451 131 451 91 c 0,15,16
 451 0 451 0 413 0 c 2,17,-1
 73 0 l 2,18,19
 53 0 53 0 45 7 c 128,-1,20
 37 14 37 14 37 32 c 1,21,-1
 65 300 l 1,22,-1
 45 289 l 2,23,24
 35 283 35 283 29 283 c 0,25,26
 20 283 20 283 20 303 c 0,27,28
 20 349 20 349 53 369 c 2,29,-1
 73 381 l 1,30,-1
 104 670 l 2,31,32
 107 702 107 702 167 702 c 2,33,-1
 202 702 l 2,0,1
EndSplineSet
Validated: 1
Position2: "'cpsp' Capital Spacing lookup 3 subtable" dx=5 dy=0 dh=10 dv=0
EndChar

StartChar: M
Encoding: 77 77 95
Width: 843
Flags: MW
HStem: -2 21G<76.5 98 98 127 632.5 654 654 683> 682 20G<171 224 224 238.5 704 756 756 777.5>
VStem: 41 772<19.5 680.5>
LayerCount: 2
UndoRedoHistory
Layer: 1
Undoes
EndUndoes
Redoes
EndRedoes
EndUndoRedoHistory
Fore
SplineSet
756 702 m 2,0,1
 813 702 813 702 813 670 c 1,2,-1
 746 30 l 2,3,4
 743 -2 743 -2 683 -2 c 2,5,-1
 654 -2 l 2,6,7
 597 -2 597 -2 597 30 c 1,8,-1
 640 444 l 1,9,-1
 636 445 l 1,10,-1
 464 186 l 1,11,12
 448 167 448 167 422 167 c 2,13,-1
 393 167 l 2,14,15
 368 167 368 167 355 186 c 1,16,-1
 237 445 l 1,17,-1
 233 444 l 1,18,-1
 190 30 l 2,19,20
 187 -2 187 -2 127 -2 c 2,21,-1
 98 -2 l 2,22,23
 41 -2 41 -2 41 30 c 1,24,-1
 108 670 l 2,25,26
 111 702 111 702 171 702 c 2,27,-1
 224 702 l 2,28,29
 273 702 273 702 285 675 c 2,30,-1
 428 362 l 1,31,-1
 449 394 l 1,32,-1
 639 675 l 2,33,34
 657 702 657 702 704 702 c 2,35,-1
 756 702 l 2,0,1
EndSplineSet
Validated: 1
Position2: "'cpsp' Capital Spacing lookup 3 subtable" dx=5 dy=0 dh=10 dv=0
EndChar

StartChar: N
Encoding: 78 78 96
Width: 719
Flags: MW
HStem: -2 21G<70.5 92 92 121 500.5 515 515 553> 682 20G<165 208 208 222.5 597 626 626 647.5>
VStem: 35 648<19.5 680.5>
LayerCount: 2
UndoRedoHistory
Layer: 1
Undoes
EndUndoes
Redoes
EndRedoes
EndUndoRedoHistory
Fore
SplineSet
626 702 m 2,0,1
 683 702 683 702 683 670 c 1,2,-1
 616 30 l 2,3,4
 613 -2 613 -2 553 -2 c 2,5,-1
 515 -2 l 2,6,7
 466 -2 466 -2 451 25 c 2,8,-1
 239 412 l 1,9,-1
 226 435 l 1,10,-1
 184 30 l 2,11,12
 181 -2 181 -2 121 -2 c 2,13,-1
 92 -2 l 2,14,15
 35 -2 35 -2 35 30 c 1,16,-1
 102 670 l 2,17,18
 105 702 105 702 165 702 c 2,19,-1
 208 702 l 2,20,21
 257 702 257 702 272 675 c 2,22,-1
 476 300 l 1,23,-1
 492 270 l 1,24,-1
 534 670 l 2,25,26
 537 702 537 702 597 702 c 2,27,-1
 626 702 l 2,0,1
EndSplineSet
Validated: 1
Position2: "'cpsp' Capital Spacing lookup 3 subtable" dx=5 dy=0 dh=10 dv=0
EndChar

StartChar: NJ
Encoding: 458 458 97
Width: 1121
Flags: MW
HStem: -8 131<778 815 763 872.5> -2 21G<70.5 92 92 121 500.5 515 515 553> 682 20G<165 208 208 222.5 597 626 626 647.5 990 1025 1025 1033.5>
VStem: 35 1047<19.5 685.5>
LayerCount: 2
UndoRedoHistory
Layer: 1
Undoes
EndUndoes
Redoes
EndRedoes
EndUndoRedoHistory
Fore
SplineSet
626 702 m 2,0,1
 683 702 683 702 683 670 c 1,2,-1
 616 30 l 2,3,4
 613 -2 613 -2 553 -2 c 2,5,-1
 515 -2 l 2,6,7
 466 -2 466 -2 451 25 c 2,8,-1
 239 412 l 1,9,-1
 226 435 l 1,10,-1
 184 30 l 2,11,12
 181 -2 181 -2 121 -2 c 2,13,-1
 92 -2 l 2,14,15
 35 -2 35 -2 35 30 c 1,16,-1
 102 670 l 2,17,18
 105 702 105 702 165 702 c 2,19,-1
 208 702 l 2,20,21
 257 702 257 702 272 675 c 2,22,-1
 476 300 l 1,23,-1
 492 270 l 1,24,-1
 534 670 l 2,25,26
 537 702 537 702 597 702 c 2,27,-1
 626 702 l 2,0,1
1025 702 m 2,28,29
 1082 702 1082 702 1082 671 c 1,30,-1
 1032 202 l 2,31,32
 1021 103 1021 103 963.5 47.5 c 128,-1,33
 906 -8 906 -8 798 -8 c 0,34,35
 702 -8 702 -8 702 35 c 0,36,37
 702 132 702 132 722 132 c 0,38,39
 724 132 724 132 731 129.5 c 128,-1,40
 738 127 738 127 752 125 c 128,-1,41
 766 123 766 123 785 123 c 0,42,43
 830 123 830 123 852 147.5 c 128,-1,44
 874 172 874 172 880 227 c 2,45,-1
 927 670 l 2,46,47
 930 702 930 702 990 702 c 2,48,-1
 1025 702 l 2,28,29
EndSplineSet
Validated: 1
Position2: "'cpsp' Capital Spacing lookup 3 subtable" dx=5 dy=0 dh=10 dv=0
EndChar

StartChar: Nacute
Encoding: 323 323 98
Width: 719
Flags: MW
HStem: -2 21G<70.5 92 92 121 500.5 515 515 553> 682 20G<165 208 208 222.5 597 626 626 647.5> 752 159<357 523>
VStem: 35 648<19.5 680.5>
LayerCount: 2
UndoRedoHistory
Layer: 1
Undoes
EndUndoes
Redoes
EndRedoes
EndUndoRedoHistory
Fore
SplineSet
504 911 m 0,0,1
 562 911 562 911 562 898 c 0,2,3
 562 891 562 891 557.5 885.5 c 128,-1,4
 553 880 553 880 522 851 c 0,5,6
 481 811 481 811 446 777 c 0,7,8
 421 752 421 752 368 752 c 0,9,10
 339 752 339 752 339 765 c 0,11,12
 339 768 339 768 341 772.5 c 128,-1,13
 343 777 343 777 349.5 786.5 c 128,-1,14
 356 796 356 796 363.5 807 c 128,-1,15
 371 818 371 818 386 839.5 c 128,-1,16
 401 861 401 861 416 884 c 0,17,18
 434 911 434 911 504 911 c 0,0,1
626 702 m 2,19,20
 683 702 683 702 683 670 c 1,21,-1
 616 30 l 2,22,23
 613 -2 613 -2 553 -2 c 2,24,-1
 515 -2 l 2,25,26
 466 -2 466 -2 451 25 c 2,27,-1
 239 412 l 1,28,-1
 226 435 l 1,29,-1
 184 30 l 2,30,31
 181 -2 181 -2 121 -2 c 2,32,-1
 92 -2 l 2,33,34
 35 -2 35 -2 35 30 c 1,35,-1
 102 670 l 2,36,37
 105 702 105 702 165 702 c 2,38,-1
 208 702 l 2,39,40
 257 702 257 702 272 675 c 2,41,-1
 476 300 l 1,42,-1
 492 270 l 1,43,-1
 534 670 l 2,44,45
 537 702 537 702 597 702 c 2,46,-1
 626 702 l 2,19,20
EndSplineSet
Validated: 1
Substitution2: "'locl' Localized Forms in Latin lookup 12 subtable" Nacute.loclPLK
Substitution2: "'aalt' Access All Alternates lookup 0 subtable" Nacute.loclPLK
Position2: "'cpsp' Capital Spacing lookup 3 subtable" dx=5 dy=0 dh=10 dv=0
EndChar

StartChar: Ncaron
Encoding: 327 327 99
Width: 719
Flags: MW
HStem: -2 21G<70.5 92 92 121 500.5 515 515 553> 682 20G<165 208 208 222.5 597 626 626 647.5> 749 146<295 392 295 403>
VStem: 35 648<19.5 680.5>
LayerCount: 2
UndoRedoHistory
Layer: 1
Undoes
EndUndoes
Redoes
EndRedoes
EndUndoRedoHistory
Fore
SplineSet
530 895 m 2,0,1
 549 895 549 895 549 885 c 0,2,3
 549 878 549 878 542 870 c 2,4,-1
 466 768 l 2,5,6
 452 749 452 749 403 749 c 2,7,-1
 392 749 l 2,8,9
 344 749 344 749 333 768 c 2,10,-1
 279 870 l 1,11,12
 276 878 276 878 276 882 c 0,13,14
 276 895 276 895 295 895 c 2,15,-1
 317 895 l 2,16,17
 365 895 365 895 381 871 c 2,18,-1
 406 831 l 1,19,-1
 437 870 l 2,20,21
 455 893 455 893 506 895 c 1,22,-1
 530 895 l 2,0,1
626 702 m 2,23,24
 683 702 683 702 683 670 c 1,25,-1
 616 30 l 2,26,27
 613 -2 613 -2 553 -2 c 2,28,-1
 515 -2 l 2,29,30
 466 -2 466 -2 451 25 c 2,31,-1
 239 412 l 1,32,-1
 226 435 l 1,33,-1
 184 30 l 2,34,35
 181 -2 181 -2 121 -2 c 2,36,-1
 92 -2 l 2,37,38
 35 -2 35 -2 35 30 c 1,39,-1
 102 670 l 2,40,41
 105 702 105 702 165 702 c 2,42,-1
 208 702 l 2,43,44
 257 702 257 702 272 675 c 2,45,-1
 476 300 l 1,46,-1
 492 270 l 1,47,-1
 534 670 l 2,48,49
 537 702 537 702 597 702 c 2,50,-1
 626 702 l 2,23,24
EndSplineSet
Validated: 1
Position2: "'cpsp' Capital Spacing lookup 3 subtable" dx=5 dy=0 dh=10 dv=0
EndChar

StartChar: Ncommaaccent
Encoding: 325 325 100
Width: 719
Flags: MW
HStem: -240 21G<262 288.5> -2 21G<70.5 92 92 121 500.5 515 515 553> 682 20G<165 208 208 222.5 597 626 626 647.5>
VStem: 265 129<-128.5 -82.5 -128.5 -81.5>
LayerCount: 2
UndoRedoHistory
Layer: 1
Undoes
EndUndoes
Redoes
EndRedoes
EndUndoRedoHistory
Fore
SplineSet
626 702 m 2,0,1
 683 702 683 702 683 670 c 1,2,-1
 616 30 l 2,3,4
 613 -2 613 -2 553 -2 c 2,5,-1
 515 -2 l 2,6,7
 466 -2 466 -2 451 25 c 2,8,-1
 239 412 l 1,9,-1
 226 435 l 1,10,-1
 184 30 l 2,11,12
 181 -2 181 -2 121 -2 c 2,13,-1
 92 -2 l 2,14,15
 35 -2 35 -2 35 30 c 1,16,-1
 102 670 l 2,17,18
 105 702 105 702 165 702 c 2,19,-1
 208 702 l 2,20,21
 257 702 257 702 272 675 c 2,22,-1
 476 300 l 1,23,-1
 492 270 l 1,24,-1
 534 670 l 2,25,26
 537 702 537 702 597 702 c 2,27,-1
 626 702 l 2,0,1
349 -51 m 2,28,29
 394 -51 394 -51 394 -95 c 0,30,31
 394 -141 394 -141 347.5 -190.5 c 128,-1,32
 301 -240 301 -240 271 -240 c 0,33,34
 255 -240 255 -240 241 -234 c 0,35,36
 228 -229 228 -229 228 -219 c 0,37,38
 228 -214 228 -214 238 -198 c 0,39,40
 248 -183 248 -183 256.5 -156.5 c 128,-1,41
 265 -130 265 -130 265 -95 c 0,42,43
 265 -51 265 -51 330 -51 c 2,44,-1
 349 -51 l 2,28,29
EndSplineSet
Validated: 1
Position2: "'cpsp' Capital Spacing lookup 3 subtable" dx=5 dy=0 dh=10 dv=0
EndChar

StartChar: Ndotaccent
Encoding: 7748 7748 101
Width: 719
Flags: MW
HStem: -2 21G<70.5 92 92 121 500.5 515 515 553> 682 20G<165 208 208 222.5 597 626 626 647.5> 755 124<381 409>
VStem: 332 127<776.5 857.5>
LayerCount: 2
UndoRedoHistory
Layer: 1
Undoes
EndUndoes
Redoes
EndRedoes
EndUndoRedoHistory
Fore
SplineSet
339 847 m 2,0,1
 342 879 342 879 402 879 c 0,2,3
 459 879 459 879 459 847 c 1,4,-1
 452 787 l 1,5,6
 447 755 447 755 389 755 c 0,7,8
 332 755 332 755 332 787 c 1,9,-1
 339 847 l 2,0,1
626 702 m 2,10,11
 683 702 683 702 683 670 c 1,12,-1
 616 30 l 2,13,14
 613 -2 613 -2 553 -2 c 2,15,-1
 515 -2 l 2,16,17
 466 -2 466 -2 451 25 c 2,18,-1
 239 412 l 1,19,-1
 226 435 l 1,20,-1
 184 30 l 2,21,22
 181 -2 181 -2 121 -2 c 2,23,-1
 92 -2 l 2,24,25
 35 -2 35 -2 35 30 c 1,26,-1
 102 670 l 2,27,28
 105 702 105 702 165 702 c 2,29,-1
 208 702 l 2,30,31
 257 702 257 702 272 675 c 2,32,-1
 476 300 l 1,33,-1
 492 270 l 1,34,-1
 534 670 l 2,35,36
 537 702 537 702 597 702 c 2,37,-1
 626 702 l 2,10,11
EndSplineSet
Validated: 1
Position2: "'cpsp' Capital Spacing lookup 3 subtable" dx=5 dy=0 dh=10 dv=0
EndChar

StartChar: Eng
Encoding: 330 330 102
Width: 719
Flags: MW
HStem: -212 117<429 431.5 409 492> -2 21G<70.5 92 92 121> 682 20G<165 208 208 222.5 597 626 626 647.5>
VStem: 462 149
LayerCount: 2
UndoRedoHistory
Layer: 1
Undoes
EndUndoes
Redoes
EndRedoes
EndUndoRedoHistory
Fore
SplineSet
615 30 m 1,0,-1
 607 -50 l 2,1,2
 599 -127 599 -127 557 -169.5 c 128,-1,3
 515 -212 515 -212 444 -212 c 0,4,5
 366 -212 366 -212 366 -173 c 0,6,7
 366 -90 366 -90 384 -90 c 0,8,9
 385 -90 385 -90 396 -92.5 c 128,-1,10
 407 -95 407 -95 419 -95 c 0,11,12
 455 -95 455 -95 459 -52 c 2,13,-1
 465 1 l 1,14,-1
 247 397 l 1,15,-1
 226 435 l 1,16,-1
 184 30 l 2,17,18
 181 -2 181 -2 121 -2 c 2,19,-1
 92 -2 l 2,20,21
 35 -2 35 -2 35 30 c 1,22,-1
 102 670 l 2,23,24
 105 702 105 702 165 702 c 2,25,-1
 208 702 l 2,26,27
 257 702 257 702 272 675 c 2,28,-1
 471 308 l 1,29,-1
 492 270 l 1,30,-1
 534 670 l 2,31,32
 537 702 537 702 597 702 c 2,33,-1
 626 702 l 2,34,35
 683 702 683 702 683 670 c 1,36,-1
 615 30 l 1,0,-1
EndSplineSet
Validated: 1
Position2: "'cpsp' Capital Spacing lookup 3 subtable" dx=5 dy=0 dh=10 dv=0
EndChar

StartChar: Nj
Encoding: 459 459 103
Width: 995
Flags: MW
HStem: -212 117<713 715.5 693 776> -2 21G<70.5 92 92 121 500.5 515 515 553> 609 145<852 915 887 900> 682 20G<165 208 208 222.5 597 626 626 647.5>
VStem: 35 937<19.5 731> 815 157<632 731>
LayerCount: 2
UndoRedoHistory
Layer: 1
Undoes
EndUndoes
Redoes
EndRedoes
EndUndoRedoHistory
Fore
SplineSet
915 754 m 2,0,1
 943 754 943 754 957.5 745 c 128,-1,2
 972 736 972 736 972 723 c 1,3,-1
 963 641 l 2,4,5
 960 609 960 609 900 609 c 2,6,-1
 872 609 l 2,7,8
 844 609 844 609 829.5 618 c 128,-1,9
 815 627 815 627 815 640 c 1,10,-1
 824 722 l 2,11,12
 827 754 827 754 887 754 c 2,13,-1
 915 754 l 2,0,1
626 702 m 2,14,15
 683 702 683 702 683 670 c 1,16,-1
 616 30 l 2,17,18
 613 -2 613 -2 553 -2 c 2,19,-1
 515 -2 l 2,20,21
 466 -2 466 -2 451 25 c 2,22,-1
 239 412 l 1,23,-1
 226 435 l 1,24,-1
 184 30 l 2,25,26
 181 -2 181 -2 121 -2 c 2,27,-1
 92 -2 l 2,28,29
 35 -2 35 -2 35 30 c 1,30,-1
 102 670 l 2,31,32
 105 702 105 702 165 702 c 2,33,-1
 208 702 l 2,34,35
 257 702 257 702 272 675 c 2,36,-1
 476 300 l 1,37,-1
 492 270 l 1,38,-1
 534 670 l 2,39,40
 537 702 537 702 597 702 c 2,41,-1
 626 702 l 2,14,15
891 525 m 2,42,43
 919 525 919 525 933.5 516 c 128,-1,44
 948 507 948 507 948 494 c 1,45,-1
 891 -50 l 2,46,47
 883 -127 883 -127 841 -169.5 c 128,-1,48
 799 -212 799 -212 728 -212 c 0,49,50
 650 -212 650 -212 650 -173 c 0,51,52
 650 -90 650 -90 668 -90 c 0,53,54
 669 -90 669 -90 680 -92.5 c 128,-1,55
 691 -95 691 -95 703 -95 c 0,56,57
 739 -95 739 -95 743 -52 c 2,58,-1
 800 493 l 2,59,60
 803 525 803 525 863 525 c 2,61,-1
 891 525 l 2,42,43
EndSplineSet
Validated: 1
Position2: "'cpsp' Capital Spacing lookup 3 subtable" dx=5 dy=0 dh=10 dv=0
EndChar

StartChar: Ntilde
Encoding: 209 209 104
Width: 719
Flags: MW
HStem: -2 21G<70.5 92 92 121 500.5 515 515 553> 682 20G<165 208 208 222.5 597 626 626 647.5> 758 86<463.5 477.5> 770 100
VStem: 35 648<19.5 680.5>
LayerCount: 2
UndoRedoHistory
Layer: 1
Undoes
EndUndoes
Redoes
EndRedoes
EndUndoRedoHistory
Fore
SplineSet
527 859 m 1,0,1
 539 865 539 865 546 865 c 0,2,3
 561 865 561 865 571 851 c 0,4,5
 580 838 580 838 580 831 c 0,6,7
 580 819 580 819 563 799 c 1,8,9
 522 758 522 758 457 758 c 0,10,11
 420 758 420 758 386 770 c 0,12,13
 344 784 344 784 334 784 c 0,14,15
 312 784 312 784 284 770 c 0,16,17
 276 766 276 766 271 766 c 0,18,19
 258 766 258 766 246 783 c 0,20,21
 238 796 238 796 238 807 c 0,22,23
 238 820 238 820 247 829 c 1,24,25
 299 870 299 870 350 870 c 0,26,27
 385 870 385 870 419 857 c 0,28,29
 452 844 452 844 473 844 c 0,30,31
 502 844 502 844 527 859 c 1,0,1
626 702 m 2,32,33
 683 702 683 702 683 670 c 1,34,-1
 616 30 l 2,35,36
 613 -2 613 -2 553 -2 c 2,37,-1
 515 -2 l 2,38,39
 466 -2 466 -2 451 25 c 2,40,-1
 239 412 l 1,41,-1
 226 435 l 1,42,-1
 184 30 l 2,43,44
 181 -2 181 -2 121 -2 c 2,45,-1
 92 -2 l 2,46,47
 35 -2 35 -2 35 30 c 1,48,-1
 102 670 l 2,49,50
 105 702 105 702 165 702 c 2,51,-1
 208 702 l 2,52,53
 257 702 257 702 272 675 c 2,54,-1
 476 300 l 1,55,-1
 492 270 l 1,56,-1
 534 670 l 2,57,58
 537 702 537 702 597 702 c 2,59,-1
 626 702 l 2,32,33
EndSplineSet
Validated: 1
Position2: "'cpsp' Capital Spacing lookup 3 subtable" dx=5 dy=0 dh=10 dv=0
EndChar

StartChar: O
Encoding: 79 79 105
Width: 731
Flags: MW
HStem: -8 131<295 399 295 445> 576 132<331 436>
VStem: 41 159<241 388 241 390> 531 158<310.5 457.5>
LayerCount: 2
UndoRedoHistory
Layer: 1
Undoes
EndUndoes
Redoes
EndRedoes
EndUndoRedoHistory
Fore
SplineSet
403 708 m 0,0,1
 542 708 542 708 615.5 632.5 c 128,-1,2
 689 557 689 557 689 414 c 0,3,4
 689 210 689 210 596 101 c 128,-1,5
 503 -8 503 -8 328 -8 c 0,6,7
 189 -8 189 -8 115 67 c 128,-1,8
 41 142 41 142 41 284 c 0,9,10
 41 367 41 367 61 440.5 c 128,-1,11
 81 514 81 514 122.5 575 c 128,-1,12
 164 636 164 636 236 672 c 128,-1,13
 308 708 308 708 403 708 c 0,0,1
389 576 m 0,14,15
 301 576 301 576 250.5 503.5 c 128,-1,16
 200 431 200 431 200 298 c 0,17,18
 200 123 200 123 342 123 c 0,19,20
 429 123 429 123 480 195.5 c 128,-1,21
 531 268 531 268 531 400 c 0,22,23
 531 576 531 576 389 576 c 0,14,15
EndSplineSet
Validated: 1
Substitution2: "Single Substitution lookup 21 subtable" ordmasculine
Substitution2: "'aalt' Access All Alternates lookup 0 subtable" ordmasculine
Position2: "'cpsp' Capital Spacing lookup 3 subtable" dx=5 dy=0 dh=10 dv=0
EndChar

StartChar: Oacute
Encoding: 211 211 106
Width: 731
Flags: MW
HStem: -8 131<295 399 295 445> 576 132<331 436> 752 159<357 523>
VStem: 41 159<241 388 241 390> 531 158<310.5 457.5>
LayerCount: 2
UndoRedoHistory
Layer: 1
Undoes
EndUndoes
Redoes
EndRedoes
EndUndoRedoHistory
Fore
SplineSet
504 911 m 0,0,1
 562 911 562 911 562 898 c 0,2,3
 562 891 562 891 557.5 885.5 c 128,-1,4
 553 880 553 880 522 851 c 0,5,6
 481 811 481 811 446 777 c 0,7,8
 421 752 421 752 368 752 c 0,9,10
 339 752 339 752 339 765 c 0,11,12
 339 768 339 768 341 772.5 c 128,-1,13
 343 777 343 777 349.5 786.5 c 128,-1,14
 356 796 356 796 363.5 807 c 128,-1,15
 371 818 371 818 386 839.5 c 128,-1,16
 401 861 401 861 416 884 c 0,17,18
 434 911 434 911 504 911 c 0,0,1
403 708 m 0,19,20
 542 708 542 708 615.5 632.5 c 128,-1,21
 689 557 689 557 689 414 c 0,22,23
 689 210 689 210 596 101 c 128,-1,24
 503 -8 503 -8 328 -8 c 0,25,26
 189 -8 189 -8 115 67 c 128,-1,27
 41 142 41 142 41 284 c 0,28,29
 41 367 41 367 61 440.5 c 128,-1,30
 81 514 81 514 122.5 575 c 128,-1,31
 164 636 164 636 236 672 c 128,-1,32
 308 708 308 708 403 708 c 0,19,20
389 576 m 0,33,34
 301 576 301 576 250.5 503.5 c 128,-1,35
 200 431 200 431 200 298 c 0,36,37
 200 123 200 123 342 123 c 0,38,39
 429 123 429 123 480 195.5 c 128,-1,40
 531 268 531 268 531 400 c 0,41,42
 531 576 531 576 389 576 c 0,33,34
EndSplineSet
Validated: 1
Substitution2: "'locl' Localized Forms in Latin lookup 12 subtable" Oacute.loclPLK
Substitution2: "'aalt' Access All Alternates lookup 0 subtable" Oacute.loclPLK
Position2: "'cpsp' Capital Spacing lookup 3 subtable" dx=5 dy=0 dh=10 dv=0
EndChar

StartChar: Obreve
Encoding: 334 334 107
Width: 731
Flags: MW
HStem: -8 131<295 399 295 445> 576 132<331 436> 752 91<383.5 438 383.5 442>
VStem: 41 159<241 388 241 390> 531 158<310.5 457.5>
LayerCount: 2
UndoRedoHistory
Layer: 1
Undoes
EndUndoes
Redoes
EndRedoes
EndUndoRedoHistory
Fore
SplineSet
526 892 m 0,0,1
 558 892 558 892 558 868 c 0,2,3
 558 823 558 823 510.5 787.5 c 128,-1,4
 463 752 463 752 399 752 c 0,5,6
 339 752 339 752 301 782.5 c 128,-1,7
 263 813 263 813 263 855 c 0,8,9
 263 892 263 892 302 892 c 0,10,11
 319 892 319 892 333 874 c 0,12,13
 357 843 357 843 409 843 c 0,14,15
 426 843 426 843 438.5 845 c 128,-1,16
 451 847 451 847 461 852.5 c 128,-1,17
 471 858 471 858 475 860 c 128,-1,18
 479 862 479 862 488 870 c 2,19,-1
 497 879 l 2,20,21
 510 892 510 892 526 892 c 0,0,1
403 708 m 0,22,23
 542 708 542 708 615.5 632.5 c 128,-1,24
 689 557 689 557 689 414 c 0,25,26
 689 210 689 210 596 101 c 128,-1,27
 503 -8 503 -8 328 -8 c 0,28,29
 189 -8 189 -8 115 67 c 128,-1,30
 41 142 41 142 41 284 c 0,31,32
 41 367 41 367 61 440.5 c 128,-1,33
 81 514 81 514 122.5 575 c 128,-1,34
 164 636 164 636 236 672 c 128,-1,35
 308 708 308 708 403 708 c 0,22,23
389 576 m 0,36,37
 301 576 301 576 250.5 503.5 c 128,-1,38
 200 431 200 431 200 298 c 0,39,40
 200 123 200 123 342 123 c 0,41,42
 429 123 429 123 480 195.5 c 128,-1,43
 531 268 531 268 531 400 c 0,44,45
 531 576 531 576 389 576 c 0,36,37
EndSplineSet
Validated: 1
Position2: "'cpsp' Capital Spacing lookup 3 subtable" dx=5 dy=0 dh=10 dv=0
EndChar

StartChar: Ocircumflex
Encoding: 212 212 108
Width: 731
Flags: MW
HStem: -8 131<295 399 295 445> 576 132<331 436> 749 146<273 417 279 417 406 492 406 514>
VStem: 41 159<241 388 241 390> 531 158<310.5 457.5>
LayerCount: 2
UndoRedoHistory
Layer: 1
Undoes
EndUndoes
Redoes
EndRedoes
EndUndoRedoHistory
Fore
SplineSet
417 895 m 2,0,1
 465 895 465 895 476 876 c 2,2,-1
 530 774 l 1,3,4
 533 766 533 766 533 762 c 0,5,6
 533 749 533 749 514 749 c 2,7,-1
 492 749 l 2,8,9
 443 749 443 749 428 773 c 2,10,-1
 403 813 l 1,11,-1
 372 774 l 2,12,13
 353 749 353 749 303 749 c 2,14,-1
 279 749 l 2,15,16
 260 749 260 749 260 759 c 0,17,18
 260 766 260 766 267 774 c 2,19,-1
 343 876 l 2,20,21
 357 895 357 895 406 895 c 2,22,-1
 417 895 l 2,0,1
403 708 m 0,23,24
 542 708 542 708 615.5 632.5 c 128,-1,25
 689 557 689 557 689 414 c 0,26,27
 689 210 689 210 596 101 c 128,-1,28
 503 -8 503 -8 328 -8 c 0,29,30
 189 -8 189 -8 115 67 c 128,-1,31
 41 142 41 142 41 284 c 0,32,33
 41 367 41 367 61 440.5 c 128,-1,34
 81 514 81 514 122.5 575 c 128,-1,35
 164 636 164 636 236 672 c 128,-1,36
 308 708 308 708 403 708 c 0,23,24
389 576 m 0,37,38
 301 576 301 576 250.5 503.5 c 128,-1,39
 200 431 200 431 200 298 c 0,40,41
 200 123 200 123 342 123 c 0,42,43
 429 123 429 123 480 195.5 c 128,-1,44
 531 268 531 268 531 400 c 0,45,46
 531 576 531 576 389 576 c 0,37,38
EndSplineSet
Validated: 1
Position2: "'cpsp' Capital Spacing lookup 3 subtable" dx=5 dy=0 dh=10 dv=0
EndChar

StartChar: Ocircumflexacute
Encoding: 7888 7888 109
Width: 731
Flags: MW
HStem: -8 131<295 399 295 445> 576 132<331 436> 749 146<270 414 276 414 403 474 403 496>
VStem: 41 159<241 388 241 390> 531 158<310.5 457.5>
LayerCount: 2
UndoRedoHistory
Layer: 1
Undoes
EndUndoes
Redoes
EndRedoes
EndUndoRedoHistory
Fore
SplineSet
622 963 m 0,0,1
 660 963 660 963 660 940 c 0,2,3
 660 924 660 924 574 839 c 1,4,5
 557 824 557 824 516 824 c 0,6,7
 497 824 497 824 497 837 c 0,8,9
 497 843 497 843 544 936 c 0,10,11
 558 963 558 963 622 963 c 0,0,1
414 895 m 2,12,13
 454 895 454 895 463 876 c 2,14,-1
 512 774 l 2,15,16
 515 766 515 766 515 762 c 0,17,18
 515 749 515 749 496 749 c 2,19,-1
 474 749 l 2,20,21
 415 749 415 749 410 773 c 2,22,-1
 400 813 l 1,23,-1
 369 774 l 2,24,25
 350 749 350 749 300 749 c 2,26,-1
 276 749 l 2,27,28
 257 749 257 749 257 759 c 0,29,30
 257 766 257 766 264 774 c 2,31,-1
 340 876 l 2,32,33
 354 895 354 895 403 895 c 2,34,-1
 414 895 l 2,12,13
403 708 m 0,35,36
 542 708 542 708 615.5 632.5 c 128,-1,37
 689 557 689 557 689 414 c 0,38,39
 689 210 689 210 596 101 c 128,-1,40
 503 -8 503 -8 328 -8 c 0,41,42
 189 -8 189 -8 115 67 c 128,-1,43
 41 142 41 142 41 284 c 0,44,45
 41 367 41 367 61 440.5 c 128,-1,46
 81 514 81 514 122.5 575 c 128,-1,47
 164 636 164 636 236 672 c 128,-1,48
 308 708 308 708 403 708 c 0,35,36
389 576 m 0,49,50
 301 576 301 576 250.5 503.5 c 128,-1,51
 200 431 200 431 200 298 c 0,52,53
 200 123 200 123 342 123 c 0,54,55
 429 123 429 123 480 195.5 c 128,-1,56
 531 268 531 268 531 400 c 0,57,58
 531 576 531 576 389 576 c 0,49,50
EndSplineSet
Validated: 1
Position2: "'cpsp' Capital Spacing lookup 3 subtable" dx=5 dy=0 dh=10 dv=0
EndChar

StartChar: Ocircumflexdotbelow
Encoding: 7896 7896 110
Width: 731
Flags: MW
HStem: -204 124<295 323> -8 131<295 399 295 445> 576 132<331 436> 749 146<273 417 279 417 406 492 406 514>
VStem: 41 159<241 388 241 390> 246 127<-182.5 -101.5> 531 158<310.5 457.5>
LayerCount: 2
UndoRedoHistory
Layer: 1
Undoes
EndUndoes
Redoes
EndRedoes
EndUndoRedoHistory
Fore
SplineSet
403 708 m 0,0,1
 542 708 542 708 615.5 632.5 c 128,-1,2
 689 557 689 557 689 414 c 0,3,4
 689 210 689 210 596 101 c 128,-1,5
 503 -8 503 -8 328 -8 c 0,6,7
 189 -8 189 -8 115 67 c 128,-1,8
 41 142 41 142 41 284 c 0,9,10
 41 367 41 367 61 440.5 c 128,-1,11
 81 514 81 514 122.5 575 c 128,-1,12
 164 636 164 636 236 672 c 128,-1,13
 308 708 308 708 403 708 c 0,0,1
389 576 m 0,14,15
 301 576 301 576 250.5 503.5 c 128,-1,16
 200 431 200 431 200 298 c 0,17,18
 200 123 200 123 342 123 c 0,19,20
 429 123 429 123 480 195.5 c 128,-1,21
 531 268 531 268 531 400 c 0,22,23
 531 576 531 576 389 576 c 0,14,15
417 895 m 2,24,25
 465 895 465 895 476 876 c 2,26,-1
 530 774 l 1,27,28
 533 766 533 766 533 762 c 0,29,30
 533 749 533 749 514 749 c 2,31,-1
 492 749 l 2,32,33
 443 749 443 749 428 773 c 2,34,-1
 403 813 l 1,35,-1
 372 774 l 2,36,37
 353 749 353 749 303 749 c 2,38,-1
 279 749 l 2,39,40
 260 749 260 749 260 759 c 0,41,42
 260 766 260 766 267 774 c 2,43,-1
 343 876 l 2,44,45
 357 895 357 895 406 895 c 2,46,-1
 417 895 l 2,24,25
253 -112 m 2,47,48
 256 -80 256 -80 316 -80 c 0,49,50
 373 -80 373 -80 373 -112 c 1,51,-1
 366 -172 l 1,52,53
 361 -204 361 -204 303 -204 c 0,54,55
 246 -204 246 -204 246 -172 c 1,56,-1
 253 -112 l 2,47,48
EndSplineSet
Validated: 1
Position2: "'cpsp' Capital Spacing lookup 3 subtable" dx=5 dy=0 dh=10 dv=0
EndChar

StartChar: Ocircumflexgrave
Encoding: 7890 7890 111
Width: 731
Flags: MW
HStem: -8 131<295 399 295 445> 576 132<331 436> 749 146<270 414 276 414 403 474 403 496> 825 139<460 565>
VStem: 41 159<241 388 241 390> 531 158<310.5 457.5>
LayerCount: 2
UndoRedoHistory
Layer: 1
Undoes
EndUndoes
Redoes
EndRedoes
EndUndoRedoHistory
Fore
SplineSet
403 708 m 0,0,1
 542 708 542 708 615.5 632.5 c 128,-1,2
 689 557 689 557 689 414 c 0,3,4
 689 210 689 210 596 101 c 128,-1,5
 503 -8 503 -8 328 -8 c 0,6,7
 189 -8 189 -8 115 67 c 128,-1,8
 41 142 41 142 41 284 c 0,9,10
 41 367 41 367 61 440.5 c 128,-1,11
 81 514 81 514 122.5 575 c 128,-1,12
 164 636 164 636 236 672 c 128,-1,13
 308 708 308 708 403 708 c 0,0,1
389 576 m 0,14,15
 301 576 301 576 250.5 503.5 c 128,-1,16
 200 431 200 431 200 298 c 0,17,18
 200 123 200 123 342 123 c 0,19,20
 429 123 429 123 480 195.5 c 128,-1,21
 531 268 531 268 531 400 c 0,22,23
 531 576 531 576 389 576 c 0,14,15
476 964 m 0,24,25
 549 964 549 964 558 937 c 0,26,27
 586 846 586 846 586 841 c 0,28,29
 586 825 586 825 553 825 c 0,30,31
 513 825 513 825 494 850 c 0,32,33
 479 870 479 870 459 898 c 0,34,35
 427 942 427 942 427 948 c 0,36,37
 427 964 427 964 476 964 c 0,24,25
414 895 m 2,38,39
 454 895 454 895 463 876 c 2,40,-1
 512 774 l 2,41,42
 515 766 515 766 515 762 c 0,43,44
 515 749 515 749 496 749 c 2,45,-1
 474 749 l 2,46,47
 415 749 415 749 410 773 c 2,48,-1
 400 813 l 1,49,-1
 369 774 l 2,50,51
 350 749 350 749 300 749 c 2,52,-1
 276 749 l 2,53,54
 257 749 257 749 257 759 c 0,55,56
 257 766 257 766 264 774 c 2,57,-1
 340 876 l 2,58,59
 354 895 354 895 403 895 c 2,60,-1
 414 895 l 2,38,39
EndSplineSet
Validated: 1
Position2: "'cpsp' Capital Spacing lookup 3 subtable" dx=5 dy=0 dh=10 dv=0
EndChar

StartChar: Ocircumflexhookabove
Encoding: 7892 7892 112
Width: 731
Flags: MW
HStem: -8 131<295 399 295 445> 576 132<331 436> 749 146<270 414 276 414 403 474 403 496> 896 70<480 571>
VStem: 41 159<241 388 241 390> 531 158<310.5 457.5> 557 70<889 901.5>
LayerCount: 2
UndoRedoHistory
Layer: 1
Undoes
EndUndoes
Redoes
EndRedoes
EndUndoRedoHistory
Fore
SplineSet
403 708 m 0,0,1
 542 708 542 708 615.5 632.5 c 128,-1,2
 689 557 689 557 689 414 c 0,3,4
 689 210 689 210 596 101 c 128,-1,5
 503 -8 503 -8 328 -8 c 0,6,7
 189 -8 189 -8 115 67 c 128,-1,8
 41 142 41 142 41 284 c 0,9,10
 41 367 41 367 61 440.5 c 128,-1,11
 81 514 81 514 122.5 575 c 128,-1,12
 164 636 164 636 236 672 c 128,-1,13
 308 708 308 708 403 708 c 0,0,1
389 576 m 0,14,15
 301 576 301 576 250.5 503.5 c 128,-1,16
 200 431 200 431 200 298 c 0,17,18
 200 123 200 123 342 123 c 0,19,20
 429 123 429 123 480 195.5 c 128,-1,21
 531 268 531 268 531 400 c 0,22,23
 531 576 531 576 389 576 c 0,14,15
557 896 m 0,24,25
 557 913 557 913 536 913 c 0,26,27
 518 913 518 913 502 904.5 c 128,-1,28
 486 896 486 896 484 896 c 0,29,30
 478 896 478 896 468.5 911.5 c 128,-1,31
 459 927 459 927 459 938 c 0,32,33
 459 948 459 948 487 957 c 128,-1,34
 515 966 515 966 542 966 c 0,35,36
 627 966 627 966 627 900 c 0,37,38
 627 872 627 872 587 847 c 0,39,40
 553 826 553 826 543 826 c 0,41,42
 502 826 502 826 502 847 c 0,43,44
 502 859 502 859 523 867 c 0,45,46
 537 873 537 873 542.5 876 c 128,-1,47
 548 879 548 879 552.5 884 c 128,-1,48
 557 889 557 889 557 896 c 0,24,25
414 895 m 2,49,50
 454 895 454 895 463 876 c 2,51,-1
 512 774 l 2,52,53
 515 766 515 766 515 762 c 0,54,55
 515 749 515 749 496 749 c 2,56,-1
 474 749 l 2,57,58
 415 749 415 749 410 773 c 2,59,-1
 400 813 l 1,60,-1
 369 774 l 2,61,62
 350 749 350 749 300 749 c 2,63,-1
 276 749 l 2,64,65
 257 749 257 749 257 759 c 0,66,67
 257 766 257 766 264 774 c 2,68,-1
 340 876 l 2,69,70
 354 895 354 895 403 895 c 2,71,-1
 414 895 l 2,49,50
EndSplineSet
Validated: 1
Position2: "'cpsp' Capital Spacing lookup 3 subtable" dx=5 dy=0 dh=10 dv=0
EndChar

StartChar: Ocircumflextilde
Encoding: 7894 7894 113
Width: 731
Flags: MW
HStem: -8 131<295 399 295 445> 576 132<331 436> 749 122<283 421 410 496 410 518> 903 86<476.5 489.5> 915 100
VStem: 41 159<241 388 241 390> 531 158<310.5 457.5>
LayerCount: 2
UndoRedoHistory
Layer: 1
Undoes
EndUndoes
Redoes
EndRedoes
EndUndoRedoHistory
Fore
SplineSet
403 708 m 0,0,1
 542 708 542 708 615.5 632.5 c 128,-1,2
 689 557 689 557 689 414 c 0,3,4
 689 210 689 210 596 101 c 128,-1,5
 503 -8 503 -8 328 -8 c 0,6,7
 189 -8 189 -8 115 67 c 128,-1,8
 41 142 41 142 41 284 c 0,9,10
 41 367 41 367 61 440.5 c 128,-1,11
 81 514 81 514 122.5 575 c 128,-1,12
 164 636 164 636 236 672 c 128,-1,13
 308 708 308 708 403 708 c 0,0,1
389 576 m 0,14,15
 301 576 301 576 250.5 503.5 c 128,-1,16
 200 431 200 431 200 298 c 0,17,18
 200 123 200 123 342 123 c 0,19,20
 429 123 429 123 480 195.5 c 128,-1,21
 531 268 531 268 531 400 c 0,22,23
 531 576 531 576 389 576 c 0,14,15
534 1004 m 0,24,25
 544 1010 544 1010 551 1010 c 0,26,27
 564 1010 564 1010 574 996 c 0,28,29
 582 985 582 985 582 976 c 0,30,31
 582 965 582 965 567 944 c 1,32,33
 529 903 529 903 471 903 c 0,34,35
 437 903 437 903 406 915 c 0,36,37
 369 929 369 929 359 929 c 0,38,39
 339 929 339 929 313 915 c 0,40,41
 305 911 305 911 302 911 c 0,42,43
 289 911 289 911 279 928 c 0,44,45
 271 941 271 941 271 952 c 0,46,47
 271 965 271 965 280 974 c 0,48,49
 326 1015 326 1015 373 1015 c 0,50,51
 405 1015 405 1015 436 1002 c 0,52,53
 466 989 466 989 485 989 c 0,54,55
 512 989 512 989 534 1004 c 0,24,25
421 871 m 2,56,57
 465 871 465 871 480 852 c 1,58,-1
 534 774 l 1,59,60
 537 766 537 766 537 762 c 0,61,62
 537 749 537 749 518 749 c 2,63,-1
 496 749 l 2,64,65
 469 749 469 749 432 773 c 1,66,-1
 407 799 l 1,67,-1
 376 774 l 1,68,69
 369 771 369 771 358.5 765.5 c 128,-1,70
 348 760 348 760 342 757 c 128,-1,71
 336 754 336 754 326.5 751.5 c 128,-1,72
 317 749 317 749 307 749 c 2,73,-1
 283 749 l 2,74,75
 264 749 264 749 264 759 c 0,76,77
 264 766 264 766 271 774 c 2,78,-1
 347 852 l 1,79,80
 367 871 367 871 410 871 c 2,81,-1
 421 871 l 2,56,57
EndSplineSet
Validated: 1
Position2: "'cpsp' Capital Spacing lookup 3 subtable" dx=5 dy=0 dh=10 dv=0
EndChar

StartChar: Odieresis
Encoding: 214 214 114
Width: 731
Flags: MW
HStem: -8 131<295 399 295 445> 576 132<331 436> 755 124<305 333 485 513>
VStem: 41 159<241 388 241 390> 256 127<776.5 857.5> 436 127<776.5 857.5> 531 158<310.5 457.5>
LayerCount: 2
UndoRedoHistory
Layer: 1
Undoes
EndUndoes
Redoes
EndRedoes
EndUndoRedoHistory
Fore
SplineSet
403 708 m 0,0,1
 542 708 542 708 615.5 632.5 c 128,-1,2
 689 557 689 557 689 414 c 0,3,4
 689 210 689 210 596 101 c 128,-1,5
 503 -8 503 -8 328 -8 c 0,6,7
 189 -8 189 -8 115 67 c 128,-1,8
 41 142 41 142 41 284 c 0,9,10
 41 367 41 367 61 440.5 c 128,-1,11
 81 514 81 514 122.5 575 c 128,-1,12
 164 636 164 636 236 672 c 128,-1,13
 308 708 308 708 403 708 c 0,0,1
389 576 m 0,14,15
 301 576 301 576 250.5 503.5 c 128,-1,16
 200 431 200 431 200 298 c 0,17,18
 200 123 200 123 342 123 c 0,19,20
 429 123 429 123 480 195.5 c 128,-1,21
 531 268 531 268 531 400 c 0,22,23
 531 576 531 576 389 576 c 0,14,15
263 847 m 2,24,25
 266 879 266 879 326 879 c 0,26,27
 383 879 383 879 383 847 c 1,28,-1
 376 787 l 1,29,30
 371 755 371 755 313 755 c 0,31,32
 256 755 256 755 256 787 c 1,33,-1
 263 847 l 2,24,25
443 847 m 2,34,35
 446 879 446 879 506 879 c 0,36,37
 563 879 563 879 563 847 c 1,38,-1
 556 787 l 1,39,40
 551 755 551 755 493 755 c 0,41,42
 436 755 436 755 436 787 c 1,43,-1
 443 847 l 2,34,35
EndSplineSet
Validated: 1
Position2: "'cpsp' Capital Spacing lookup 3 subtable" dx=5 dy=0 dh=10 dv=0
EndChar

StartChar: Odotbelow
Encoding: 7884 7884 115
Width: 731
Flags: MW
HStem: -204 124<295 323> -8 131<295 399 295 445> 576 132<331 436>
VStem: 41 159<241 388 241 390> 246 127<-182.5 -101.5> 531 158<310.5 457.5>
LayerCount: 2
UndoRedoHistory
Layer: 1
Undoes
EndUndoes
Redoes
EndRedoes
EndUndoRedoHistory
Fore
SplineSet
403 708 m 0,0,1
 542 708 542 708 615.5 632.5 c 128,-1,2
 689 557 689 557 689 414 c 0,3,4
 689 210 689 210 596 101 c 128,-1,5
 503 -8 503 -8 328 -8 c 0,6,7
 189 -8 189 -8 115 67 c 128,-1,8
 41 142 41 142 41 284 c 0,9,10
 41 367 41 367 61 440.5 c 128,-1,11
 81 514 81 514 122.5 575 c 128,-1,12
 164 636 164 636 236 672 c 128,-1,13
 308 708 308 708 403 708 c 0,0,1
389 576 m 0,14,15
 301 576 301 576 250.5 503.5 c 128,-1,16
 200 431 200 431 200 298 c 0,17,18
 200 123 200 123 342 123 c 0,19,20
 429 123 429 123 480 195.5 c 128,-1,21
 531 268 531 268 531 400 c 0,22,23
 531 576 531 576 389 576 c 0,14,15
253 -112 m 2,24,25
 256 -80 256 -80 316 -80 c 0,26,27
 373 -80 373 -80 373 -112 c 1,28,-1
 366 -172 l 1,29,30
 361 -204 361 -204 303 -204 c 0,31,32
 246 -204 246 -204 246 -172 c 1,33,-1
 253 -112 l 2,24,25
EndSplineSet
Validated: 1
Position2: "'cpsp' Capital Spacing lookup 3 subtable" dx=5 dy=0 dh=10 dv=0
EndChar

StartChar: Ograve
Encoding: 210 210 116
Width: 731
Flags: MW
HStem: -8 131<295 399 295 445> 576 132<331 436> 752 159<305 440>
VStem: 41 159<241 388 241 390> 531 158<310.5 457.5>
LayerCount: 2
UndoRedoHistory
Layer: 1
Undoes
EndUndoes
Redoes
EndRedoes
EndUndoRedoHistory
Fore
SplineSet
326 911 m 0,0,1
 395 911 395 911 408 884 c 0,2,3
 418 863 418 863 427.5 843 c 128,-1,4
 437 823 437 823 442.5 812 c 128,-1,5
 448 801 448 801 452.5 791 c 128,-1,6
 457 781 457 781 459 776 c 128,-1,7
 461 771 461 771 461 768 c 0,8,9
 461 752 461 752 428 752 c 0,10,11
 377 752 377 752 356 777 c 0,12,13
 333 806 333 806 302 842 c 0,14,15
 276 873 276 873 270 881.5 c 128,-1,16
 264 890 264 890 264 895 c 0,17,18
 264 911 264 911 326 911 c 0,0,1
403 708 m 0,19,20
 542 708 542 708 615.5 632.5 c 128,-1,21
 689 557 689 557 689 414 c 0,22,23
 689 210 689 210 596 101 c 128,-1,24
 503 -8 503 -8 328 -8 c 0,25,26
 189 -8 189 -8 115 67 c 128,-1,27
 41 142 41 142 41 284 c 0,28,29
 41 367 41 367 61 440.5 c 128,-1,30
 81 514 81 514 122.5 575 c 128,-1,31
 164 636 164 636 236 672 c 128,-1,32
 308 708 308 708 403 708 c 0,19,20
389 576 m 0,33,34
 301 576 301 576 250.5 503.5 c 128,-1,35
 200 431 200 431 200 298 c 0,36,37
 200 123 200 123 342 123 c 0,38,39
 429 123 429 123 480 195.5 c 128,-1,40
 531 268 531 268 531 400 c 0,41,42
 531 576 531 576 389 576 c 0,33,34
EndSplineSet
Validated: 1
Position2: "'cpsp' Capital Spacing lookup 3 subtable" dx=5 dy=0 dh=10 dv=0
EndChar

StartChar: Ohookabove
Encoding: 7886 7886 117
Width: 731
Flags: MW
HStem: -8 131<295 399 295 445> 576 132<331 436> 867 61<403.5 416.5>
VStem: 41 159<241 388 241 390> 439 87<828 852> 531 158<310.5 457.5>
LayerCount: 2
UndoRedoHistory
Layer: 1
Undoes
EndUndoes
Redoes
EndRedoes
EndUndoRedoHistory
Fore
SplineSet
439 845 m 0,0,1
 439 867 439 867 407 867 c 0,2,3
 394 867 394 867 380 861 c 128,-1,4
 366 855 366 855 363 855 c 0,5,6
 357 855 357 855 347.5 870.5 c 128,-1,7
 338 886 338 886 338 897 c 0,8,9
 338 907 338 907 366.5 917.5 c 128,-1,10
 395 928 395 928 421 928 c 0,11,12
 470 928 470 928 498 906.5 c 128,-1,13
 526 885 526 885 526 851 c 128,-1,14
 526 817 526 817 484 782 c 128,-1,15
 442 747 442 747 424 747 c 0,16,17
 397 747 397 747 382 753.5 c 128,-1,18
 367 760 367 760 367 768 c 0,19,20
 367 778 367 778 403 802 c 128,-1,21
 439 826 439 826 439 845 c 0,0,1
403 708 m 0,22,23
 542 708 542 708 615.5 632.5 c 128,-1,24
 689 557 689 557 689 414 c 0,25,26
 689 210 689 210 596 101 c 128,-1,27
 503 -8 503 -8 328 -8 c 0,28,29
 189 -8 189 -8 115 67 c 128,-1,30
 41 142 41 142 41 284 c 0,31,32
 41 367 41 367 61 440.5 c 128,-1,33
 81 514 81 514 122.5 575 c 128,-1,34
 164 636 164 636 236 672 c 128,-1,35
 308 708 308 708 403 708 c 0,22,23
389 576 m 0,36,37
 301 576 301 576 250.5 503.5 c 128,-1,38
 200 431 200 431 200 298 c 0,39,40
 200 123 200 123 342 123 c 0,41,42
 429 123 429 123 480 195.5 c 128,-1,43
 531 268 531 268 531 400 c 0,44,45
 531 576 531 576 389 576 c 0,36,37
EndSplineSet
Validated: 1
Position2: "'cpsp' Capital Spacing lookup 3 subtable" dx=5 dy=0 dh=10 dv=0
EndChar

StartChar: Ohorn
Encoding: 416 416 118
Width: 731
Flags: MW
HStem: -8 131<295 399 295 445> 576 106 576 132<331 430 271.5 436>
VStem: 41 159<241 388 241 390> 531 158<310.5 457.5> 626 81<712.5 731>
LayerCount: 2
UndoRedoHistory
Layer: 1
Undoes
EndUndoes
Redoes
EndRedoes
EndUndoRedoHistory
Fore
SplineSet
652 811 m 2,0,1
 660 816 660 816 669 816 c 0,2,3
 686 816 686 816 696.5 789 c 128,-1,4
 707 762 707 762 707 737 c 0,5,6
 707 700 707 700 681 674.5 c 128,-1,7
 655 649 655 649 606 642 c 1,8,9
 689 567 689 567 689 414 c 0,10,11
 689 210 689 210 596 101 c 128,-1,12
 503 -8 503 -8 328 -8 c 0,13,14
 189 -8 189 -8 115 67 c 128,-1,15
 41 142 41 142 41 284 c 0,16,17
 41 367 41 367 61 440.5 c 128,-1,18
 81 514 81 514 122.5 575 c 128,-1,19
 164 636 164 636 236 672 c 128,-1,20
 308 708 308 708 403 708 c 0,21,22
 483 708 483 708 543 682 c 1,23,-1
 575 682 l 2,24,25
 626 682 626 682 626 722 c 0,26,27
 626 732 626 732 615.5 748 c 128,-1,28
 605 764 605 764 605 770 c 0,29,30
 605 781 605 781 618 789 c 2,31,-1
 652 811 l 2,0,1
342 123 m 0,32,33
 429 123 429 123 480 195.5 c 128,-1,34
 531 268 531 268 531 400 c 0,35,36
 531 576 531 576 389 576 c 0,37,38
 301 576 301 576 250.5 503.5 c 128,-1,39
 200 431 200 431 200 298 c 0,40,41
 200 123 200 123 342 123 c 0,32,33
EndSplineSet
Validated: 1
Position2: "'cpsp' Capital Spacing lookup 3 subtable" dx=5 dy=0 dh=10 dv=0
EndChar

StartChar: Ohornacute
Encoding: 7898 7898 119
Width: 731
Flags: MW
HStem: -8 131<295 399 295 445> 576 106 576 132<331 430 271.5 436> 752 159<357 523>
VStem: 41 159<241 388 241 390> 531 158<310.5 457.5> 626 81<712.5 731>
LayerCount: 2
UndoRedoHistory
Layer: 1
Undoes
EndUndoes
Redoes
EndRedoes
EndUndoRedoHistory
Fore
SplineSet
368 752 m 0,0,1
 339 752 339 752 339 765 c 0,2,3
 339 768 339 768 341 772.5 c 128,-1,4
 343 777 343 777 349.5 786.5 c 128,-1,5
 356 796 356 796 363.5 807 c 128,-1,6
 371 818 371 818 386 839.5 c 128,-1,7
 401 861 401 861 416 884 c 0,8,9
 434 911 434 911 504 911 c 0,10,11
 562 911 562 911 562 898 c 0,12,13
 562 891 562 891 557.5 885.5 c 128,-1,14
 553 880 553 880 522 851 c 0,15,16
 481 811 481 811 446 777 c 0,17,18
 421 752 421 752 368 752 c 0,0,1
652 811 m 2,19,20
 660 816 660 816 669 816 c 0,21,22
 686 816 686 816 696.5 789 c 128,-1,23
 707 762 707 762 707 737 c 0,24,25
 707 700 707 700 681 674.5 c 128,-1,26
 655 649 655 649 606 642 c 1,27,28
 689 567 689 567 689 414 c 0,29,30
 689 210 689 210 596 101 c 128,-1,31
 503 -8 503 -8 328 -8 c 0,32,33
 189 -8 189 -8 115 67 c 128,-1,34
 41 142 41 142 41 284 c 0,35,36
 41 367 41 367 61 440.5 c 128,-1,37
 81 514 81 514 122.5 575 c 128,-1,38
 164 636 164 636 236 672 c 128,-1,39
 308 708 308 708 403 708 c 0,40,41
 483 708 483 708 543 682 c 1,42,-1
 575 682 l 2,43,44
 626 682 626 682 626 722 c 0,45,46
 626 732 626 732 615.5 748 c 128,-1,47
 605 764 605 764 605 770 c 0,48,49
 605 781 605 781 618 789 c 2,50,-1
 652 811 l 2,19,20
342 123 m 0,51,52
 429 123 429 123 480 195.5 c 128,-1,53
 531 268 531 268 531 400 c 0,54,55
 531 576 531 576 389 576 c 0,56,57
 301 576 301 576 250.5 503.5 c 128,-1,58
 200 431 200 431 200 298 c 0,59,60
 200 123 200 123 342 123 c 0,51,52
EndSplineSet
Validated: 1
Position2: "'cpsp' Capital Spacing lookup 3 subtable" dx=5 dy=0 dh=10 dv=0
EndChar

StartChar: Ohorndotbelow
Encoding: 7906 7906 120
Width: 731
Flags: MW
HStem: -204 124<295 323> -8 131<295 399 295 445> 576 106 576 132<331 430 271.5 436>
VStem: 41 159<241 388 241 390> 246 127<-182.5 -101.5> 531 158<310.5 457.5> 626 81<712.5 731>
LayerCount: 2
UndoRedoHistory
Layer: 1
Undoes
EndUndoes
Redoes
EndRedoes
EndUndoRedoHistory
Fore
SplineSet
652 811 m 2,0,1
 660 816 660 816 669 816 c 0,2,3
 686 816 686 816 696.5 789 c 128,-1,4
 707 762 707 762 707 737 c 0,5,6
 707 700 707 700 681 674.5 c 128,-1,7
 655 649 655 649 606 642 c 1,8,9
 689 567 689 567 689 414 c 0,10,11
 689 210 689 210 596 101 c 128,-1,12
 503 -8 503 -8 328 -8 c 0,13,14
 189 -8 189 -8 115 67 c 128,-1,15
 41 142 41 142 41 284 c 0,16,17
 41 367 41 367 61 440.5 c 128,-1,18
 81 514 81 514 122.5 575 c 128,-1,19
 164 636 164 636 236 672 c 128,-1,20
 308 708 308 708 403 708 c 0,21,22
 483 708 483 708 543 682 c 1,23,-1
 575 682 l 2,24,25
 626 682 626 682 626 722 c 0,26,27
 626 732 626 732 615.5 748 c 128,-1,28
 605 764 605 764 605 770 c 0,29,30
 605 781 605 781 618 789 c 2,31,-1
 652 811 l 2,0,1
342 123 m 0,32,33
 429 123 429 123 480 195.5 c 128,-1,34
 531 268 531 268 531 400 c 0,35,36
 531 576 531 576 389 576 c 0,37,38
 301 576 301 576 250.5 503.5 c 128,-1,39
 200 431 200 431 200 298 c 0,40,41
 200 123 200 123 342 123 c 0,32,33
253 -112 m 2,42,43
 256 -80 256 -80 316 -80 c 0,44,45
 373 -80 373 -80 373 -112 c 1,46,-1
 366 -172 l 1,47,48
 361 -204 361 -204 303 -204 c 0,49,50
 246 -204 246 -204 246 -172 c 1,51,-1
 253 -112 l 2,42,43
EndSplineSet
Validated: 1
Position2: "'cpsp' Capital Spacing lookup 3 subtable" dx=5 dy=0 dh=10 dv=0
EndChar

StartChar: Ohorngrave
Encoding: 7900 7900 121
Width: 731
Flags: MW
HStem: -8 131<295 399 295 445> 576 106 576 132<331 430 271.5 436> 752 159<305 440>
VStem: 41 159<241 388 241 390> 531 158<310.5 457.5> 626 81<712.5 731>
LayerCount: 2
UndoRedoHistory
Layer: 1
Undoes
EndUndoes
Redoes
EndRedoes
EndUndoRedoHistory
Fore
SplineSet
428 752 m 0,0,1
 377 752 377 752 356 777 c 0,2,3
 333 806 333 806 302 842 c 0,4,5
 276 873 276 873 270 881.5 c 128,-1,6
 264 890 264 890 264 895 c 0,7,8
 264 911 264 911 326 911 c 0,9,10
 395 911 395 911 408 884 c 0,11,12
 418 863 418 863 427.5 843 c 128,-1,13
 437 823 437 823 442.5 812 c 128,-1,14
 448 801 448 801 452.5 791 c 128,-1,15
 457 781 457 781 459 776 c 128,-1,16
 461 771 461 771 461 768 c 0,17,18
 461 752 461 752 428 752 c 0,0,1
652 811 m 2,19,20
 660 816 660 816 669 816 c 0,21,22
 686 816 686 816 696.5 789 c 128,-1,23
 707 762 707 762 707 737 c 0,24,25
 707 700 707 700 681 674.5 c 128,-1,26
 655 649 655 649 606 642 c 1,27,28
 689 567 689 567 689 414 c 0,29,30
 689 210 689 210 596 101 c 128,-1,31
 503 -8 503 -8 328 -8 c 0,32,33
 189 -8 189 -8 115 67 c 128,-1,34
 41 142 41 142 41 284 c 0,35,36
 41 367 41 367 61 440.5 c 128,-1,37
 81 514 81 514 122.5 575 c 128,-1,38
 164 636 164 636 236 672 c 128,-1,39
 308 708 308 708 403 708 c 0,40,41
 483 708 483 708 543 682 c 1,42,-1
 575 682 l 2,43,44
 626 682 626 682 626 722 c 0,45,46
 626 732 626 732 615.5 748 c 128,-1,47
 605 764 605 764 605 770 c 0,48,49
 605 781 605 781 618 789 c 2,50,-1
 652 811 l 2,19,20
342 123 m 0,51,52
 429 123 429 123 480 195.5 c 128,-1,53
 531 268 531 268 531 400 c 0,54,55
 531 576 531 576 389 576 c 0,56,57
 301 576 301 576 250.5 503.5 c 128,-1,58
 200 431 200 431 200 298 c 0,59,60
 200 123 200 123 342 123 c 0,51,52
EndSplineSet
Validated: 1
Position2: "'cpsp' Capital Spacing lookup 3 subtable" dx=5 dy=0 dh=10 dv=0
EndChar

StartChar: Ohornhookabove
Encoding: 7902 7902 122
Width: 731
Flags: MW
HStem: -8 131<295 399 295 445> 576 106 576 132<331 430 271.5 436> 867 61<403.5 416.5>
VStem: 41 159<241 388 241 390> 439 87<828 852> 531 158<310.5 457.5> 626 81<712.5 731>
LayerCount: 2
UndoRedoHistory
Layer: 1
Undoes
EndUndoes
Redoes
EndRedoes
EndUndoRedoHistory
Fore
SplineSet
363 855 m 0,0,1
 357 855 357 855 347.5 870.5 c 128,-1,2
 338 886 338 886 338 897 c 0,3,4
 338 907 338 907 366.5 917.5 c 128,-1,5
 395 928 395 928 421 928 c 0,6,7
 470 928 470 928 498 906.5 c 128,-1,8
 526 885 526 885 526 851 c 128,-1,9
 526 817 526 817 484 782 c 128,-1,10
 442 747 442 747 424 747 c 0,11,12
 397 747 397 747 382 753.5 c 128,-1,13
 367 760 367 760 367 768 c 0,14,15
 367 778 367 778 403 802 c 128,-1,16
 439 826 439 826 439 845 c 0,17,18
 439 867 439 867 407 867 c 0,19,20
 394 867 394 867 380 861 c 128,-1,21
 366 855 366 855 363 855 c 0,0,1
652 811 m 2,22,23
 660 816 660 816 669 816 c 0,24,25
 686 816 686 816 696.5 789 c 128,-1,26
 707 762 707 762 707 737 c 0,27,28
 707 700 707 700 681 674.5 c 128,-1,29
 655 649 655 649 606 642 c 1,30,31
 689 567 689 567 689 414 c 0,32,33
 689 210 689 210 596 101 c 128,-1,34
 503 -8 503 -8 328 -8 c 0,35,36
 189 -8 189 -8 115 67 c 128,-1,37
 41 142 41 142 41 284 c 0,38,39
 41 367 41 367 61 440.5 c 128,-1,40
 81 514 81 514 122.5 575 c 128,-1,41
 164 636 164 636 236 672 c 128,-1,42
 308 708 308 708 403 708 c 0,43,44
 483 708 483 708 543 682 c 1,45,-1
 575 682 l 2,46,47
 626 682 626 682 626 722 c 0,48,49
 626 732 626 732 615.5 748 c 128,-1,50
 605 764 605 764 605 770 c 0,51,52
 605 781 605 781 618 789 c 2,53,-1
 652 811 l 2,22,23
342 123 m 0,54,55
 429 123 429 123 480 195.5 c 128,-1,56
 531 268 531 268 531 400 c 0,57,58
 531 576 531 576 389 576 c 0,59,60
 301 576 301 576 250.5 503.5 c 128,-1,61
 200 431 200 431 200 298 c 0,62,63
 200 123 200 123 342 123 c 0,54,55
EndSplineSet
Validated: 1
Position2: "'cpsp' Capital Spacing lookup 3 subtable" dx=5 dy=0 dh=10 dv=0
EndChar

StartChar: Ohorntilde
Encoding: 7904 7904 123
Width: 731
Flags: MW
HStem: -8 131<295 399 295 445> 576 106 576 132<331 430 271.5 436> 758 86<439.5 452.5> 770 100
VStem: 41 159<241 388 241 390> 531 158<310.5 457.5> 626 81<712.5 731>
LayerCount: 2
UndoRedoHistory
Layer: 1
Undoes
EndUndoes
Redoes
EndRedoes
EndUndoRedoHistory
Fore
SplineSet
278 770 m 0,0,1
 270 766 270 766 267 766 c 0,2,3
 254 766 254 766 244 783 c 0,4,5
 236 796 236 796 236 807 c 0,6,7
 236 820 236 820 245 829 c 0,8,9
 291 870 291 870 337 870 c 0,10,11
 369 870 369 870 400 857 c 0,12,13
 430 844 430 844 448 844 c 0,14,15
 473 844 473 844 497 859 c 0,16,17
 507 865 507 865 513 865 c 0,18,19
 528 865 528 865 536 851 c 1,20,21
 544 840 544 840 544 831 c 0,22,23
 544 820 544 820 529 799 c 1,24,25
 493 758 493 758 434 758 c 0,26,27
 401 758 401 758 370 770 c 0,28,29
 333 784 333 784 323 784 c 0,30,31
 304 784 304 784 278 770 c 0,0,1
652 811 m 2,32,33
 660 816 660 816 669 816 c 0,34,35
 686 816 686 816 696.5 789 c 128,-1,36
 707 762 707 762 707 737 c 0,37,38
 707 700 707 700 681 674.5 c 128,-1,39
 655 649 655 649 606 642 c 1,40,41
 689 567 689 567 689 414 c 0,42,43
 689 210 689 210 596 101 c 128,-1,44
 503 -8 503 -8 328 -8 c 0,45,46
 189 -8 189 -8 115 67 c 128,-1,47
 41 142 41 142 41 284 c 0,48,49
 41 367 41 367 61 440.5 c 128,-1,50
 81 514 81 514 122.5 575 c 128,-1,51
 164 636 164 636 236 672 c 128,-1,52
 308 708 308 708 403 708 c 0,53,54
 483 708 483 708 543 682 c 1,55,-1
 575 682 l 2,56,57
 626 682 626 682 626 722 c 0,58,59
 626 732 626 732 615.5 748 c 128,-1,60
 605 764 605 764 605 770 c 0,61,62
 605 781 605 781 618 789 c 2,63,-1
 652 811 l 2,32,33
342 123 m 0,64,65
 429 123 429 123 480 195.5 c 128,-1,66
 531 268 531 268 531 400 c 0,67,68
 531 576 531 576 389 576 c 0,69,70
 301 576 301 576 250.5 503.5 c 128,-1,71
 200 431 200 431 200 298 c 0,72,73
 200 123 200 123 342 123 c 0,64,65
EndSplineSet
Validated: 1
Position2: "'cpsp' Capital Spacing lookup 3 subtable" dx=5 dy=0 dh=10 dv=0
EndChar

StartChar: Ohungarumlaut
Encoding: 336 336 124
Width: 731
Flags: MW
HStem: -8 131<295 399 295 445> 576 132<331 436> 752 159<291 457 418 507.5>
VStem: 41 159<241 388 241 390> 531 158<310.5 457.5>
LayerCount: 2
UndoRedoHistory
Layer: 1
Undoes
EndUndoes
Redoes
EndRedoes
EndUndoRedoHistory
Fore
SplineSet
438 911 m 0,0,1
 496 911 496 911 496 898 c 0,2,3
 496 891 496 891 491.5 885.5 c 128,-1,4
 487 880 487 880 456 851 c 0,5,6
 415 811 415 811 380 777 c 0,7,8
 355 752 355 752 302 752 c 0,9,10
 273 752 273 752 273 765 c 0,11,12
 273 768 273 768 275 772.5 c 128,-1,13
 277 777 277 777 283.5 786.5 c 128,-1,14
 290 796 290 796 297.5 807 c 128,-1,15
 305 818 305 818 320 839.5 c 128,-1,16
 335 861 335 861 350 884 c 0,17,18
 368 911 368 911 438 911 c 0,0,1
620 911 m 0,19,20
 678 911 678 911 678 898 c 0,21,22
 678 891 678 891 673.5 885.5 c 128,-1,23
 669 880 669 880 638 851 c 0,24,25
 626 839 626 839 618 831.5 c 128,-1,26
 610 824 610 824 594 808.5 c 128,-1,27
 578 793 578 793 562 777 c 0,28,29
 537 752 537 752 484 752 c 0,30,31
 455 752 455 752 455 765 c 0,32,33
 455 768 455 768 457 772.5 c 128,-1,34
 459 777 459 777 465.5 786.5 c 128,-1,35
 472 796 472 796 479.5 807 c 128,-1,36
 487 818 487 818 502 839.5 c 128,-1,37
 517 861 517 861 532 884 c 0,38,39
 550 911 550 911 620 911 c 0,19,20
403 708 m 0,40,41
 542 708 542 708 615.5 632.5 c 128,-1,42
 689 557 689 557 689 414 c 0,43,44
 689 210 689 210 596 101 c 128,-1,45
 503 -8 503 -8 328 -8 c 0,46,47
 189 -8 189 -8 115 67 c 128,-1,48
 41 142 41 142 41 284 c 0,49,50
 41 367 41 367 61 440.5 c 128,-1,51
 81 514 81 514 122.5 575 c 128,-1,52
 164 636 164 636 236 672 c 128,-1,53
 308 708 308 708 403 708 c 0,40,41
389 576 m 0,54,55
 301 576 301 576 250.5 503.5 c 128,-1,56
 200 431 200 431 200 298 c 0,57,58
 200 123 200 123 342 123 c 0,59,60
 429 123 429 123 480 195.5 c 128,-1,61
 531 268 531 268 531 400 c 0,62,63
 531 576 531 576 389 576 c 0,54,55
EndSplineSet
Validated: 1
Position2: "'cpsp' Capital Spacing lookup 3 subtable" dx=5 dy=0 dh=10 dv=0
EndChar

StartChar: Omacron
Encoding: 332 332 125
Width: 731
Flags: MW
HStem: -8 131<295 399 295 445> 576 132<331 436> 774 95<290 526 310 515>
VStem: 41 159<241 388 241 390> 531 158<310.5 457.5>
LayerCount: 2
UndoRedoHistory
Layer: 1
Undoes
EndUndoes
Redoes
EndRedoes
EndUndoRedoHistory
Fore
SplineSet
526 869 m 2,0,1
 552 869 552 869 552 839 c 0,2,3
 552 774 552 774 515 774 c 2,4,-1
 299 774 l 2,5,6
 273 774 273 774 273 804 c 0,7,8
 273 869 273 869 310 869 c 2,9,-1
 526 869 l 2,0,1
403 708 m 0,10,11
 542 708 542 708 615.5 632.5 c 128,-1,12
 689 557 689 557 689 414 c 0,13,14
 689 210 689 210 596 101 c 128,-1,15
 503 -8 503 -8 328 -8 c 0,16,17
 189 -8 189 -8 115 67 c 128,-1,18
 41 142 41 142 41 284 c 0,19,20
 41 367 41 367 61 440.5 c 128,-1,21
 81 514 81 514 122.5 575 c 128,-1,22
 164 636 164 636 236 672 c 128,-1,23
 308 708 308 708 403 708 c 0,10,11
389 576 m 0,24,25
 301 576 301 576 250.5 503.5 c 128,-1,26
 200 431 200 431 200 298 c 0,27,28
 200 123 200 123 342 123 c 0,29,30
 429 123 429 123 480 195.5 c 128,-1,31
 531 268 531 268 531 400 c 0,32,33
 531 576 531 576 389 576 c 0,24,25
EndSplineSet
Validated: 1
Position2: "'cpsp' Capital Spacing lookup 3 subtable" dx=5 dy=0 dh=10 dv=0
EndChar

StartChar: Oogonek
Encoding: 490 490 126
Width: 731
Flags: MW
HStem: -183 70<452 464> -8 131<295 334> 576 132<331 436>
VStem: 41 159<241 388 241 390> 336 69<-90 -82> 531 158<310.5 457.5>
LayerCount: 2
UndoRedoHistory
Layer: 1
Undoes
EndUndoes
Redoes
EndRedoes
EndUndoRedoHistory
Fore
SplineSet
689 414 m 0,0,1
 689 240 689 240 621 134.5 c 128,-1,2
 553 29 553 29 423 1 c 1,3,-1
 423 -3 l 2,4,5
 423 -9 423 -9 414 -29.5 c 128,-1,6
 405 -50 405 -50 405 -70 c 0,7,8
 405 -113 405 -113 463 -113 c 0,9,10
 481 -113 481 -113 500 -106 c 128,-1,11
 519 -99 519 -99 521 -99 c 0,12,13
 532 -99 532 -99 532 -129 c 0,14,15
 532 -158 532 -158 506 -170.5 c 128,-1,16
 480 -183 480 -183 444 -183 c 0,17,18
 382 -183 382 -183 359 -156 c 128,-1,19
 336 -129 336 -129 336 -94 c 0,20,21
 336 -41 336 -41 363 -7 c 1,22,23
 352 -8 352 -8 328 -8 c 0,24,25
 189 -8 189 -8 115 67 c 128,-1,26
 41 142 41 142 41 284 c 0,27,28
 41 367 41 367 61 440.5 c 128,-1,29
 81 514 81 514 122.5 575 c 128,-1,30
 164 636 164 636 236 672 c 128,-1,31
 308 708 308 708 403 708 c 0,32,33
 542 708 542 708 615.5 632.5 c 128,-1,34
 689 557 689 557 689 414 c 0,0,1
342 123 m 0,35,36
 429 123 429 123 480 195.5 c 128,-1,37
 531 268 531 268 531 400 c 0,38,39
 531 576 531 576 389 576 c 0,40,41
 301 576 301 576 250.5 503.5 c 128,-1,42
 200 431 200 431 200 298 c 0,43,44
 200 123 200 123 342 123 c 0,35,36
EndSplineSet
Validated: 1
Position2: "'cpsp' Capital Spacing lookup 3 subtable" dx=5 dy=0 dh=10 dv=0
EndChar

StartChar: Oslash
Encoding: 216 216 127
Width: 731
Flags: MW
HStem: -8 131<318.5 399 318.5 445> 576 132<331 405.5>
VStem: 41 159<289.5 388 289.5 390> 531 158<310.5 416.5>
LayerCount: 2
UndoRedoHistory
Layer: 1
Undoes
EndUndoes
Redoes
EndRedoes
EndUndoRedoHistory
Fore
SplineSet
80 112 m 1,0,1
 41 180 41 180 41 284 c 0,2,3
 41 367 41 367 61 440.5 c 128,-1,4
 81 514 81 514 122.5 575 c 128,-1,5
 164 636 164 636 236 672 c 128,-1,6
 308 708 308 708 403 708 c 0,7,8
 506 708 506 708 572 666 c 1,9,-1
 612 712 l 2,10,11
 622 724 622 724 634 724 c 0,12,13
 644 724 644 724 654 714 c 2,14,-1
 670 700 l 2,15,16
 682 690 682 690 682 678 c 0,17,18
 682 668 682 668 672 658 c 2,19,-1
 632 613 l 1,20,21
 689 539 689 539 689 414 c 0,22,23
 689 210 689 210 596 101 c 128,-1,24
 503 -8 503 -8 328 -8 c 0,25,26
 205 -8 205 -8 133 50 c 1,27,-1
 89 0 l 2,28,29
 78 -12 78 -12 67 -12 c 0,30,31
 57 -12 57 -12 47 -2 c 2,32,-1
 31 12 l 2,33,34
 19 23 19 23 19 34 c 0,35,36
 19 44 19 44 29 54 c 2,37,-1
 80 112 l 1,0,1
471 553 m 1,38,39
 439 576 439 576 389 576 c 0,40,41
 301 576 301 576 250.5 503.5 c 128,-1,42
 200 431 200 431 200 298 c 0,43,44
 200 272 200 272 203 250 c 1,45,-1
 471 553 l 1,38,39
236 167 m 1,46,47
 272 123 272 123 342 123 c 0,48,49
 429 123 429 123 480 195.5 c 128,-1,50
 531 268 531 268 531 400 c 0,51,52
 531 449 531 449 519 485 c 1,53,-1
 236 167 l 1,46,47
EndSplineSet
Validated: 1
Position2: "'cpsp' Capital Spacing lookup 3 subtable" dx=5 dy=0 dh=10 dv=0
EndChar

StartChar: Oslashacute
Encoding: 510 510 128
Width: 731
Flags: MW
HStem: -8 131<318.5 399 318.5 445> 576 132<331 405.5> 752 159<327 493>
VStem: 41 159<289.5 388 289.5 390> 531 158<310.5 416.5>
LayerCount: 2
UndoRedoHistory
Layer: 1
Undoes
EndUndoes
Redoes
EndRedoes
EndUndoRedoHistory
Fore
SplineSet
80 112 m 1,0,1
 41 180 41 180 41 284 c 0,2,3
 41 367 41 367 61 440.5 c 128,-1,4
 81 514 81 514 122.5 575 c 128,-1,5
 164 636 164 636 236 672 c 128,-1,6
 308 708 308 708 403 708 c 0,7,8
 506 708 506 708 572 666 c 1,9,-1
 612 712 l 2,10,11
 622 724 622 724 634 724 c 0,12,13
 644 724 644 724 654 714 c 2,14,-1
 670 700 l 2,15,16
 682 690 682 690 682 678 c 0,17,18
 682 668 682 668 672 658 c 2,19,-1
 632 613 l 1,20,21
 689 539 689 539 689 414 c 0,22,23
 689 210 689 210 596 101 c 128,-1,24
 503 -8 503 -8 328 -8 c 0,25,26
 205 -8 205 -8 133 50 c 1,27,-1
 89 0 l 2,28,29
 78 -12 78 -12 67 -12 c 0,30,31
 57 -12 57 -12 47 -2 c 2,32,-1
 31 12 l 2,33,34
 19 23 19 23 19 34 c 0,35,36
 19 44 19 44 29 54 c 2,37,-1
 80 112 l 1,0,1
471 553 m 1,38,39
 439 576 439 576 389 576 c 0,40,41
 301 576 301 576 250.5 503.5 c 128,-1,42
 200 431 200 431 200 298 c 0,43,44
 200 272 200 272 203 250 c 1,45,-1
 471 553 l 1,38,39
236 167 m 1,46,47
 272 123 272 123 342 123 c 0,48,49
 429 123 429 123 480 195.5 c 128,-1,50
 531 268 531 268 531 400 c 0,51,52
 531 449 531 449 519 485 c 1,53,-1
 236 167 l 1,46,47
474 911 m 0,54,55
 532 911 532 911 532 898 c 0,56,57
 532 891 532 891 527.5 885.5 c 128,-1,58
 523 880 523 880 492 851 c 0,59,60
 451 811 451 811 416 777 c 0,61,62
 391 752 391 752 338 752 c 0,63,64
 309 752 309 752 309 765 c 0,65,66
 309 768 309 768 311 772.5 c 128,-1,67
 313 777 313 777 319.5 786.5 c 128,-1,68
 326 796 326 796 333.5 807 c 128,-1,69
 341 818 341 818 356 839.5 c 128,-1,70
 371 861 371 861 386 884 c 0,71,72
 404 911 404 911 474 911 c 0,54,55
EndSplineSet
Validated: 1
Position2: "'cpsp' Capital Spacing lookup 3 subtable" dx=5 dy=0 dh=10 dv=0
EndChar

StartChar: Otilde
Encoding: 213 213 129
Width: 731
Flags: MW
HStem: -8 131<295 399 295 445> 576 132<331 436> 758 86<463.5 477.5> 770 100
VStem: 41 159<241 388 241 390> 531 158<310.5 457.5>
LayerCount: 2
UndoRedoHistory
Layer: 1
Undoes
EndUndoes
Redoes
EndRedoes
EndUndoRedoHistory
Fore
SplineSet
527 859 m 1,0,1
 539 865 539 865 546 865 c 0,2,3
 561 865 561 865 571 851 c 0,4,5
 580 838 580 838 580 831 c 0,6,7
 580 819 580 819 563 799 c 1,8,9
 522 758 522 758 457 758 c 0,10,11
 420 758 420 758 386 770 c 0,12,13
 344 784 344 784 334 784 c 0,14,15
 312 784 312 784 284 770 c 0,16,17
 276 766 276 766 271 766 c 0,18,19
 258 766 258 766 246 783 c 0,20,21
 238 796 238 796 238 807 c 0,22,23
 238 820 238 820 247 829 c 1,24,25
 299 870 299 870 350 870 c 0,26,27
 385 870 385 870 419 857 c 0,28,29
 452 844 452 844 473 844 c 0,30,31
 502 844 502 844 527 859 c 1,0,1
403 708 m 0,32,33
 542 708 542 708 615.5 632.5 c 128,-1,34
 689 557 689 557 689 414 c 0,35,36
 689 210 689 210 596 101 c 128,-1,37
 503 -8 503 -8 328 -8 c 0,38,39
 189 -8 189 -8 115 67 c 128,-1,40
 41 142 41 142 41 284 c 0,41,42
 41 367 41 367 61 440.5 c 128,-1,43
 81 514 81 514 122.5 575 c 128,-1,44
 164 636 164 636 236 672 c 128,-1,45
 308 708 308 708 403 708 c 0,32,33
389 576 m 0,46,47
 301 576 301 576 250.5 503.5 c 128,-1,48
 200 431 200 431 200 298 c 0,49,50
 200 123 200 123 342 123 c 0,51,52
 429 123 429 123 480 195.5 c 128,-1,53
 531 268 531 268 531 400 c 0,54,55
 531 576 531 576 389 576 c 0,46,47
EndSplineSet
Validated: 1
Position2: "'cpsp' Capital Spacing lookup 3 subtable" dx=5 dy=0 dh=10 dv=0
EndChar

StartChar: OE
Encoding: 338 338 130
Width: 1021
Flags: MW
HStem: -8 131<295 351.5> 0 131<518.5 912 660 900> 293 131<691 903 678 915> 569 131<707 959 707 707> 576 132<331 426.5 285.5 436>
VStem: 41 159<241 388 241 419>
LayerCount: 2
UndoRedoHistory
Layer: 1
Undoes
EndUndoes
Redoes
EndRedoes
EndUndoRedoHistory
Fore
SplineSet
971 700 m 2,0,1
 997 700 997 700 997 660 c 0,2,3
 997 569 997 569 959 569 c 2,4,-1
 707 569 l 1,5,-1
 691 424 l 1,6,-1
 915 424 l 2,7,8
 941 424 941 424 941 384 c 0,9,10
 941 293 941 293 903 293 c 2,11,-1
 678 293 l 1,12,-1
 660 131 l 1,13,-1
 912 131 l 2,14,15
 938 131 938 131 938 91 c 0,16,17
 938 0 938 0 900 0 c 2,18,-1
 532 0 l 2,19,20
 512 0 512 0 504 7 c 128,-1,21
 496 14 496 14 496 32 c 2,22,-1
 496 36 l 1,23,24
 418 -8 418 -8 318 -8 c 0,25,26
 183 -8 183 -8 112 66.5 c 128,-1,27
 41 141 41 141 41 282 c 0,28,29
 41 485 41 485 135.5 596.5 c 128,-1,30
 230 708 230 708 393 708 c 0,31,32
 494 708 494 708 561 662 c 1,33,34
 568 700 568 700 605 700 c 2,35,-1
 971 700 l 2,0,1
342 123 m 0,36,37
 429 123 429 123 480 195.5 c 128,-1,38
 531 268 531 268 531 400 c 0,39,40
 531 576 531 576 389 576 c 0,41,42
 301 576 301 576 250.5 503.5 c 128,-1,43
 200 431 200 431 200 298 c 0,44,45
 200 123 200 123 342 123 c 0,36,37
EndSplineSet
Validated: 1
Position2: "'cpsp' Capital Spacing lookup 3 subtable" dx=5 dy=0 dh=10 dv=0
EndChar

StartChar: P
Encoding: 80 80 131
Width: 570
Flags: MW
HStem: -2 21G<69.5 91 91 125> 262 132<226 322 322 325 212 322> 569 131<245 245 245 341>
VStem: 419 159<453.5 525.5>
LayerCount: 2
UndoRedoHistory
Layer: 1
Undoes
EndUndoes
Redoes
EndRedoes
EndUndoRedoHistory
Fore
SplineSet
361 700 m 2,0,1
 390 700 390 700 416 696.5 c 128,-1,2
 442 693 442 693 473 681.5 c 128,-1,3
 504 670 504 670 526 651 c 128,-1,4
 548 632 548 632 563 597.5 c 128,-1,5
 578 563 578 563 578 517 c 0,6,7
 578 453 578 453 557.5 404 c 128,-1,8
 537 355 537 355 509 329 c 128,-1,9
 481 303 481 303 443 287 c 128,-1,10
 405 271 405 271 377.5 266.5 c 128,-1,11
 350 262 350 262 325 262 c 2,12,-1
 212 262 l 1,13,-1
 188 30 l 2,14,15
 185 -2 185 -2 125 -2 c 2,16,-1
 91 -2 l 2,17,18
 34 -2 34 -2 34 30 c 1,19,-1
 100 660 l 2,20,21
 104 700 104 700 144 700 c 2,22,-1
 361 700 l 2,0,1
245 569 m 1,23,-1
 226 394 l 1,24,-1
 322 394 l 2,25,26
 361 394 361 394 390 416.5 c 128,-1,27
 419 439 419 439 419 496 c 0,28,29
 419 536 419 536 396 552.5 c 128,-1,30
 373 569 373 569 341 569 c 2,31,-1
 245 569 l 1,23,-1
EndSplineSet
Validated: 1
Position2: "'cpsp' Capital Spacing lookup 3 subtable" dx=5 dy=0 dh=10 dv=0
EndChar

StartChar: Thorn
Encoding: 222 222 132
Width: 567
Flags: MW
HStem: -2 21G<69.5 91 91 125> 155 132<215 311 311 314 201 311> 462 131<233 350 247 329> 682 20G<164 198 198 219.5>
VStem: 408 159<346.5 418.5>
LayerCount: 2
UndoRedoHistory
Layer: 1
Undoes
EndUndoes
Redoes
EndRedoes
EndUndoRedoHistory
Fore
SplineSet
198 702 m 2,0,1
 255 702 255 702 255 670 c 1,2,-1
 247 593 l 1,3,-1
 350 593 l 2,4,5
 379 593 379 593 405 589.5 c 128,-1,6
 431 586 431 586 462 574.5 c 128,-1,7
 493 563 493 563 515 543.5 c 128,-1,8
 537 524 537 524 552 489 c 128,-1,9
 567 454 567 454 567 408 c 0,10,11
 567 345 567 345 545.5 296.5 c 128,-1,12
 524 248 524 248 494.5 222 c 128,-1,13
 465 196 465 196 427 180 c 128,-1,14
 389 164 389 164 362.5 159.5 c 128,-1,15
 336 155 336 155 314 155 c 2,16,-1
 201 155 l 1,17,-1
 188 30 l 2,18,19
 185 -2 185 -2 125 -2 c 2,20,-1
 91 -2 l 2,21,22
 34 -2 34 -2 34 30 c 1,23,-1
 101 670 l 2,24,25
 104 702 104 702 164 702 c 2,26,-1
 198 702 l 2,0,1
233 462 m 1,27,-1
 215 287 l 1,28,-1
 311 287 l 2,29,30
 349 287 349 287 378.5 309.5 c 128,-1,31
 408 332 408 332 408 389 c 0,32,33
 408 429 408 429 384.5 445.5 c 128,-1,34
 361 462 361 462 329 462 c 2,35,-1
 233 462 l 1,27,-1
EndSplineSet
Validated: 1
Position2: "'cpsp' Capital Spacing lookup 3 subtable" dx=5 dy=0 dh=10 dv=0
EndChar

StartChar: Q
Encoding: 81 81 133
Width: 731
Flags: MW
HStem: 576 130<332 436.5>
VStem: 41 159<286 387 239 392.5> 531 158<318.5 459.5>
LayerCount: 2
UndoRedoHistory
Layer: 1
Undoes
EndUndoes
Redoes
EndRedoes
EndUndoRedoHistory
Fore
SplineSet
637 -27 m 2,0,1
 654 -34 654 -34 654 -54 c 0,2,3
 654 -162 654 -162 625 -162 c 0,4,5
 621 -162 621 -162 562.5 -138 c 128,-1,6
 504 -114 504 -114 384.5 -64 c 128,-1,7
 265 -14 265 -14 192 16 c 0,8,9
 43 78 43 78 41 286 c 0,10,11
 41 369 41 369 61.5 442 c 128,-1,12
 82 515 82 515 124 575.5 c 128,-1,13
 166 636 166 636 238 671 c 128,-1,14
 310 706 310 706 404 706 c 0,15,16
 543 706 543 706 616 631.5 c 128,-1,17
 689 557 689 557 689 414 c 0,18,19
 689 273 689 273 637.5 174 c 128,-1,20
 586 75 586 75 496 31 c 1,21,-1
 495 27 l 1,22,-1
 637 -27 l 2,0,1
390 576 m 0,23,24
 302 576 302 576 251 503 c 128,-1,25
 200 430 200 430 200 297 c 0,26,27
 200 119 200 119 342 119 c 0,28,29
 430 119 430 119 480.5 193 c 128,-1,30
 531 267 531 267 531 403 c 0,31,32
 531 576 531 576 390 576 c 0,23,24
EndSplineSet
Validated: 1
Position2: "'cpsp' Capital Spacing lookup 3 subtable" dx=5 dy=0 dh=10 dv=0
EndChar

StartChar: R
Encoding: 82 82 134
Width: 610
Flags: MW
HStem: -2 21G 274 133<229 254 215 324> 569 131<246 246 246 334>
VStem: 410 161<492 522>
LayerCount: 2
UndoRedoHistory
Layer: 1
Undoes
EndUndoes
Redoes
EndRedoes
EndUndoRedoHistory
Fore
SplineSet
340 700 m 2,0,1
 571 700 571 700 571 537 c 0,2,3
 571 471 571 471 534.5 423 c 128,-1,4
 498 375 498 375 436 353 c 1,5,-1
 436 349 l 1,6,7
 453 342 453 342 470.5 315.5 c 128,-1,8
 488 289 488 289 498 257 c 2,9,-1
 563 37 l 2,10,11
 566 25 566 25 566 18 c 1,12,13
 563 -2 563 -2 504 -2 c 2,14,-1
 463 -2 l 2,15,16
 414 -2 414 -2 407 19 c 2,17,-1
 348 214 l 1,18,19
 336 247 336 247 318 260.5 c 128,-1,20
 300 274 300 274 254 274 c 2,21,-1
 215 274 l 1,22,-1
 189 30 l 2,23,24
 186 -2 186 -2 126 -2 c 2,25,-1
 92 -2 l 2,26,27
 35 -2 35 -2 35 30 c 1,28,-1
 101 660 l 2,29,30
 105 700 105 700 145 700 c 2,31,-1
 340 700 l 2,0,1
246 569 m 1,32,-1
 229 407 l 1,33,-1
 324 407 l 2,34,35
 357 407 357 407 383.5 435 c 128,-1,36
 410 463 410 463 410 501 c 0,37,38
 410 533 410 533 390 551 c 128,-1,39
 370 569 370 569 334 569 c 2,40,-1
 246 569 l 1,32,-1
EndSplineSet
Validated: 1
Position2: "'cpsp' Capital Spacing lookup 3 subtable" dx=5 dy=0 dh=10 dv=0
EndChar

StartChar: Racute
Encoding: 340 340 135
Width: 610
Flags: MW
HStem: -2 21G 274 133<229 254 215 324> 569 131<246 334 246 246> 752 159<293 459>
VStem: 410 161<492 522>
LayerCount: 2
UndoRedoHistory
Layer: 1
Undoes
EndUndoes
Redoes
EndRedoes
EndUndoRedoHistory
Fore
SplineSet
440 911 m 0,0,1
 498 911 498 911 498 898 c 0,2,3
 498 891 498 891 493.5 885.5 c 128,-1,4
 489 880 489 880 458 851 c 0,5,6
 417 811 417 811 382 777 c 0,7,8
 357 752 357 752 304 752 c 0,9,10
 275 752 275 752 275 765 c 0,11,12
 275 768 275 768 277 772.5 c 128,-1,13
 279 777 279 777 285.5 786.5 c 128,-1,14
 292 796 292 796 299.5 807 c 128,-1,15
 307 818 307 818 322 839.5 c 128,-1,16
 337 861 337 861 352 884 c 0,17,18
 370 911 370 911 440 911 c 0,0,1
340 700 m 2,19,20
 571 700 571 700 571 537 c 0,21,22
 571 471 571 471 534.5 423 c 128,-1,23
 498 375 498 375 436 353 c 1,24,-1
 436 349 l 1,25,26
 453 342 453 342 470.5 315.5 c 128,-1,27
 488 289 488 289 498 257 c 2,28,-1
 563 37 l 2,29,30
 566 25 566 25 566 18 c 1,31,32
 563 -2 563 -2 504 -2 c 2,33,-1
 463 -2 l 2,34,35
 414 -2 414 -2 407 19 c 2,36,-1
 348 214 l 1,37,38
 336 247 336 247 318 260.5 c 128,-1,39
 300 274 300 274 254 274 c 2,40,-1
 215 274 l 1,41,-1
 189 30 l 2,42,43
 186 -2 186 -2 126 -2 c 2,44,-1
 92 -2 l 2,45,46
 35 -2 35 -2 35 30 c 1,47,-1
 101 660 l 2,48,49
 105 700 105 700 145 700 c 2,50,-1
 340 700 l 2,19,20
229 407 m 1,51,-1
 324 407 l 2,52,53
 357 407 357 407 383.5 435 c 128,-1,54
 410 463 410 463 410 501 c 0,55,56
 410 533 410 533 390 551 c 128,-1,57
 370 569 370 569 334 569 c 2,58,-1
 246 569 l 1,59,-1
 229 407 l 1,51,-1
EndSplineSet
Validated: 1
Position2: "'cpsp' Capital Spacing lookup 3 subtable" dx=5 dy=0 dh=10 dv=0
EndChar

StartChar: Rcaron
Encoding: 344 344 136
Width: 610
Flags: MW
HStem: -2 21G 274 133<229 254 215 324> 569 131<246 334 246 246> 749 146<231 328 231 339>
VStem: 410 161<492 522>
LayerCount: 2
UndoRedoHistory
Layer: 1
Undoes
EndUndoes
Redoes
EndRedoes
EndUndoRedoHistory
Fore
SplineSet
466 895 m 2,0,1
 485 895 485 895 485 885 c 0,2,3
 485 878 485 878 478 870 c 2,4,-1
 402 768 l 2,5,6
 388 749 388 749 339 749 c 2,7,-1
 328 749 l 2,8,9
 280 749 280 749 269 768 c 2,10,-1
 215 870 l 1,11,12
 212 878 212 878 212 882 c 0,13,14
 212 895 212 895 231 895 c 2,15,-1
 253 895 l 2,16,17
 301 895 301 895 317 871 c 2,18,-1
 342 831 l 1,19,-1
 373 870 l 2,20,21
 391 893 391 893 442 895 c 1,22,-1
 466 895 l 2,0,1
340 700 m 2,23,24
 571 700 571 700 571 537 c 0,25,26
 571 471 571 471 534.5 423 c 128,-1,27
 498 375 498 375 436 353 c 1,28,-1
 436 349 l 1,29,30
 453 342 453 342 470.5 315.5 c 128,-1,31
 488 289 488 289 498 257 c 2,32,-1
 563 37 l 2,33,34
 566 25 566 25 566 18 c 1,35,36
 563 -2 563 -2 504 -2 c 2,37,-1
 463 -2 l 2,38,39
 414 -2 414 -2 407 19 c 2,40,-1
 348 214 l 1,41,42
 336 247 336 247 318 260.5 c 128,-1,43
 300 274 300 274 254 274 c 2,44,-1
 215 274 l 1,45,-1
 189 30 l 2,46,47
 186 -2 186 -2 126 -2 c 2,48,-1
 92 -2 l 2,49,50
 35 -2 35 -2 35 30 c 1,51,-1
 101 660 l 2,52,53
 105 700 105 700 145 700 c 2,54,-1
 340 700 l 2,23,24
229 407 m 1,55,-1
 324 407 l 2,56,57
 357 407 357 407 383.5 435 c 128,-1,58
 410 463 410 463 410 501 c 0,59,60
 410 533 410 533 390 551 c 128,-1,61
 370 569 370 569 334 569 c 2,62,-1
 246 569 l 1,63,-1
 229 407 l 1,55,-1
EndSplineSet
Validated: 1
Position2: "'cpsp' Capital Spacing lookup 3 subtable" dx=5 dy=0 dh=10 dv=0
EndChar

StartChar: Rcommaaccent
Encoding: 342 342 137
Width: 610
Flags: MW
HStem: -240 21G<197 223.5> -2 21G 274 133<229 254 215 324> 569 131<246 334 246 246>
VStem: 200 129<-128.5 -82.5 -128.5 -81.5> 410 161<492 522>
LayerCount: 2
UndoRedoHistory
Layer: 1
Undoes
EndUndoes
Redoes
EndRedoes
EndUndoRedoHistory
Fore
SplineSet
340 700 m 2,0,1
 571 700 571 700 571 537 c 0,2,3
 571 471 571 471 534.5 423 c 128,-1,4
 498 375 498 375 436 353 c 1,5,-1
 436 349 l 1,6,7
 453 342 453 342 470.5 315.5 c 128,-1,8
 488 289 488 289 498 257 c 2,9,-1
 563 37 l 2,10,11
 566 25 566 25 566 18 c 1,12,13
 563 -2 563 -2 504 -2 c 2,14,-1
 463 -2 l 2,15,16
 414 -2 414 -2 407 19 c 2,17,-1
 348 214 l 1,18,19
 336 247 336 247 318 260.5 c 128,-1,20
 300 274 300 274 254 274 c 2,21,-1
 215 274 l 1,22,-1
 189 30 l 2,23,24
 186 -2 186 -2 126 -2 c 2,25,-1
 92 -2 l 2,26,27
 35 -2 35 -2 35 30 c 1,28,-1
 101 660 l 2,29,30
 105 700 105 700 145 700 c 2,31,-1
 340 700 l 2,0,1
229 407 m 1,32,-1
 324 407 l 2,33,34
 357 407 357 407 383.5 435 c 128,-1,35
 410 463 410 463 410 501 c 0,36,37
 410 533 410 533 390 551 c 128,-1,38
 370 569 370 569 334 569 c 2,39,-1
 246 569 l 1,40,-1
 229 407 l 1,32,-1
284 -51 m 2,41,42
 329 -51 329 -51 329 -95 c 0,43,44
 329 -141 329 -141 282.5 -190.5 c 128,-1,45
 236 -240 236 -240 206 -240 c 0,46,47
 190 -240 190 -240 176 -234 c 0,48,49
 163 -229 163 -229 163 -219 c 1,50,51
 164 -214 164 -214 174 -198 c 0,52,53
 184 -183 184 -183 192 -156.5 c 128,-1,54
 200 -130 200 -130 200 -95 c 0,55,56
 200 -51 200 -51 265 -51 c 2,57,-1
 284 -51 l 2,41,42
EndSplineSet
Validated: 1
Position2: "'cpsp' Capital Spacing lookup 3 subtable" dx=5 dy=0 dh=10 dv=0
EndChar

StartChar: Rdotbelow
Encoding: 7770 7770 138
Width: 610
Flags: MW
HStem: -204 124<244 272> -2 21G 274 133<229 254 215 324> 569 131<246 334 246 246>
VStem: 195 127<-182.5 -101.5> 410 161<492 522>
LayerCount: 2
UndoRedoHistory
Layer: 1
Undoes
EndUndoes
Redoes
EndRedoes
EndUndoRedoHistory
Fore
SplineSet
340 700 m 2,0,1
 571 700 571 700 571 537 c 0,2,3
 571 471 571 471 534.5 423 c 128,-1,4
 498 375 498 375 436 353 c 1,5,-1
 436 349 l 1,6,7
 453 342 453 342 470.5 315.5 c 128,-1,8
 488 289 488 289 498 257 c 2,9,-1
 563 37 l 2,10,11
 566 25 566 25 566 18 c 1,12,13
 563 -2 563 -2 504 -2 c 2,14,-1
 463 -2 l 2,15,16
 414 -2 414 -2 407 19 c 2,17,-1
 348 214 l 1,18,19
 336 247 336 247 318 260.5 c 128,-1,20
 300 274 300 274 254 274 c 2,21,-1
 215 274 l 1,22,-1
 189 30 l 2,23,24
 186 -2 186 -2 126 -2 c 2,25,-1
 92 -2 l 2,26,27
 35 -2 35 -2 35 30 c 1,28,-1
 101 660 l 2,29,30
 105 700 105 700 145 700 c 2,31,-1
 340 700 l 2,0,1
229 407 m 1,32,-1
 324 407 l 2,33,34
 357 407 357 407 383.5 435 c 128,-1,35
 410 463 410 463 410 501 c 0,36,37
 410 533 410 533 390 551 c 128,-1,38
 370 569 370 569 334 569 c 2,39,-1
 246 569 l 1,40,-1
 229 407 l 1,32,-1
202 -112 m 2,41,42
 205 -80 205 -80 265 -80 c 0,43,44
 322 -80 322 -80 322 -112 c 1,45,-1
 315 -172 l 1,46,47
 310 -204 310 -204 252 -204 c 0,48,49
 195 -204 195 -204 195 -172 c 1,50,-1
 202 -112 l 2,41,42
EndSplineSet
Validated: 1
Position2: "'cpsp' Capital Spacing lookup 3 subtable" dx=5 dy=0 dh=10 dv=0
EndChar

StartChar: S
Encoding: 83 83 139
Width: 500
Flags: MW
HStem: -8 131<186 227.5 160.5 273.5> 576 132<265.5 342.5>
VStem: 49 161<484 524 484 566> 307 161<168.5 227>
LayerCount: 2
UndoRedoHistory
Layer: 1
Undoes
EndUndoes
Redoes
EndRedoes
EndUndoRedoHistory
Fore
SplineSet
309 708 m 0,0,1
 383 708 383 708 432.5 687 c 128,-1,2
 482 666 482 666 482 640 c 0,3,4
 482 619 482 619 458.5 585 c 128,-1,5
 435 551 435 551 418 551 c 0,6,7
 414 551 414 551 400.5 557.5 c 128,-1,8
 387 564 387 564 362.5 570 c 128,-1,9
 338 576 338 576 309 576 c 0,10,11
 278 576 278 576 257 569.5 c 128,-1,12
 236 563 236 563 226.5 552.5 c 128,-1,13
 217 542 217 542 213.5 532.5 c 128,-1,14
 210 523 210 523 210 513 c 0,15,16
 210 496 210 496 215.5 483.5 c 128,-1,17
 221 471 221 471 237.5 459 c 128,-1,18
 254 447 254 447 263 442 c 128,-1,19
 272 437 272 437 301 424 c 128,-1,20
 330 411 330 411 337 408 c 0,21,22
 397 381 397 381 432.5 343 c 128,-1,23
 468 305 468 305 468 238 c 0,24,25
 468 168 468 168 445 117 c 128,-1,26
 422 66 422 66 383.5 40.5 c 128,-1,27
 345 15 345 15 304.5 3.5 c 128,-1,28
 264 -8 264 -8 218 -8 c 0,29,30
 181 -8 181 -8 139.5 -1 c 128,-1,31
 98 6 98 6 62 24.5 c 128,-1,32
 26 43 26 43 26 70 c 0,33,34
 26 181 26 181 52 181 c 0,35,36
 57 181 57 181 77.5 166.5 c 128,-1,37
 98 152 98 152 132 137.5 c 128,-1,38
 166 123 166 123 206 123 c 0,39,40
 247 123 247 123 277 140.5 c 128,-1,41
 307 158 307 158 307 200 c 0,42,43
 307 216 307 216 300 228 c 128,-1,44
 293 240 293 240 276.5 250.5 c 128,-1,45
 260 261 260 261 246.5 268 c 128,-1,46
 233 275 233 275 207 286 c 128,-1,47
 181 297 181 297 167 304 c 0,48,49
 112 331 112 331 80.5 370 c 128,-1,50
 49 409 49 409 49 478 c 0,51,52
 49 541 49 541 72 587.5 c 128,-1,53
 95 634 95 634 133.5 659.5 c 128,-1,54
 172 685 172 685 216 696.5 c 128,-1,55
 260 708 260 708 309 708 c 0,0,1
EndSplineSet
Validated: 1
Position2: "'cpsp' Capital Spacing lookup 3 subtable" dx=5 dy=0 dh=10 dv=0
EndChar

StartChar: Sacute
Encoding: 346 346 140
Width: 500
Flags: MW
HStem: -8 131<186 227.5 160.5 273.5> 576 132<265.5 342.5> 752 159<250 416>
VStem: 49 161<484 524 484 566> 307 161<168.5 227>
LayerCount: 2
UndoRedoHistory
Layer: 1
Undoes
EndUndoes
Redoes
EndRedoes
EndUndoRedoHistory
Fore
SplineSet
397 911 m 0,0,1
 455 911 455 911 455 898 c 0,2,3
 455 891 455 891 450.5 885.5 c 128,-1,4
 446 880 446 880 415 851 c 0,5,6
 374 811 374 811 339 777 c 0,7,8
 314 752 314 752 261 752 c 0,9,10
 232 752 232 752 232 765 c 0,11,12
 232 768 232 768 234 772.5 c 128,-1,13
 236 777 236 777 242.5 786.5 c 128,-1,14
 249 796 249 796 256.5 807 c 128,-1,15
 264 818 264 818 279 839.5 c 128,-1,16
 294 861 294 861 309 884 c 0,17,18
 327 911 327 911 397 911 c 0,0,1
309 708 m 0,19,20
 383 708 383 708 432.5 687 c 128,-1,21
 482 666 482 666 482 640 c 0,22,23
 482 619 482 619 458.5 585 c 128,-1,24
 435 551 435 551 418 551 c 0,25,26
 414 551 414 551 400.5 557.5 c 128,-1,27
 387 564 387 564 362.5 570 c 128,-1,28
 338 576 338 576 309 576 c 0,29,30
 278 576 278 576 257 569.5 c 128,-1,31
 236 563 236 563 226.5 552.5 c 128,-1,32
 217 542 217 542 213.5 532.5 c 128,-1,33
 210 523 210 523 210 513 c 0,34,35
 210 496 210 496 215.5 483.5 c 128,-1,36
 221 471 221 471 237.5 459 c 128,-1,37
 254 447 254 447 263 442 c 128,-1,38
 272 437 272 437 301 424 c 128,-1,39
 330 411 330 411 337 408 c 0,40,41
 397 381 397 381 432.5 343 c 128,-1,42
 468 305 468 305 468 238 c 0,43,44
 468 168 468 168 445 117 c 128,-1,45
 422 66 422 66 383.5 40.5 c 128,-1,46
 345 15 345 15 304.5 3.5 c 128,-1,47
 264 -8 264 -8 218 -8 c 0,48,49
 181 -8 181 -8 139.5 -1 c 128,-1,50
 98 6 98 6 62 24.5 c 128,-1,51
 26 43 26 43 26 70 c 0,52,53
 26 181 26 181 52 181 c 0,54,55
 57 181 57 181 77.5 166.5 c 128,-1,56
 98 152 98 152 132 137.5 c 128,-1,57
 166 123 166 123 206 123 c 0,58,59
 247 123 247 123 277 140.5 c 128,-1,60
 307 158 307 158 307 200 c 0,61,62
 307 216 307 216 300 228 c 128,-1,63
 293 240 293 240 276.5 250.5 c 128,-1,64
 260 261 260 261 246.5 268 c 128,-1,65
 233 275 233 275 207 286 c 128,-1,66
 181 297 181 297 167 304 c 0,67,68
 112 331 112 331 80.5 370 c 128,-1,69
 49 409 49 409 49 478 c 0,70,71
 49 541 49 541 72 587.5 c 128,-1,72
 95 634 95 634 133.5 659.5 c 128,-1,73
 172 685 172 685 216 696.5 c 128,-1,74
 260 708 260 708 309 708 c 0,19,20
EndSplineSet
Validated: 1
Substitution2: "'locl' Localized Forms in Latin lookup 12 subtable" Sacute.loclPLK
Substitution2: "'aalt' Access All Alternates lookup 0 subtable" Sacute.loclPLK
Position2: "'cpsp' Capital Spacing lookup 3 subtable" dx=5 dy=0 dh=10 dv=0
EndChar

